<mxfile host="app.diagrams.net" modified="2024-03-11T16:38:53.774Z" agent="Mozilla/5.0 (Windows NT 10.0; Win64; x64) AppleWebKit/537.36 (KHTML, like Gecko) Chrome/120.0.0.0 YaBrowser/24.1.0.0 Safari/537.36" etag="PE5TvSNfd-BrzxeF05DE" version="24.0.1" type="github">
  <diagram name="Страница — 1" id="LTTzaxPPcmoizCmSulEp">
    <mxGraphModel dx="2329" dy="860" grid="0" gridSize="17" guides="0" tooltips="1" connect="1" arrows="1" fold="1" page="0" pageScale="1" pageWidth="827" pageHeight="1169" background="#FFFFFF" math="0" shadow="0">
      <root>
        <mxCell id="0" />
        <mxCell id="1" parent="0" />
        <mxCell id="FbfgumM9k3iWBc4ifTP3-11" value="Товар" style="shape=table;startSize=30;container=1;collapsible=0;childLayout=tableLayout;fontSize=14;labelBackgroundColor=none;fillColor=#56517E;strokeColor=#000000;fontColor=#FFFFFF;" parent="1" vertex="1">
          <mxGeometry x="753" y="1104" width="283.42900377442913" height="389.54447756966556" as="geometry" />
        </mxCell>
        <mxCell id="FbfgumM9k3iWBc4ifTP3-78" style="shape=tableRow;horizontal=0;startSize=0;swimlaneHead=0;swimlaneBody=0;strokeColor=#EEEEEE;top=0;left=0;bottom=0;right=0;collapsible=0;dropTarget=0;fillColor=none;points=[[0,0.5],[1,0.5]];portConstraint=eastwest;fontSize=16;labelBackgroundColor=none;fontColor=#000000;" parent="FbfgumM9k3iWBc4ifTP3-11" vertex="1">
          <mxGeometry y="30" width="283.42900377442913" height="30" as="geometry" />
        </mxCell>
        <mxCell id="ApsFlAxeWI4yGW2BCktG-42" value="PK" style="shape=partialRectangle;html=1;whiteSpace=wrap;connectable=0;strokeColor=#EEEEEE;overflow=hidden;fillColor=none;top=0;left=0;bottom=0;right=0;pointerEvents=1;fontSize=12;labelBackgroundColor=none;fontColor=#000000;" parent="FbfgumM9k3iWBc4ifTP3-78" vertex="1">
          <mxGeometry width="38" height="30" as="geometry">
            <mxRectangle width="38" height="30" as="alternateBounds" />
          </mxGeometry>
        </mxCell>
        <mxCell id="FbfgumM9k3iWBc4ifTP3-80" value="id товара" style="shape=partialRectangle;html=1;whiteSpace=wrap;connectable=0;strokeColor=#EEEEEE;overflow=hidden;fillColor=none;top=0;left=0;bottom=0;right=0;pointerEvents=1;fontSize=12;labelBackgroundColor=none;fontColor=#000000;" parent="FbfgumM9k3iWBc4ifTP3-78" vertex="1">
          <mxGeometry x="38" width="140" height="30" as="geometry">
            <mxRectangle width="140" height="30" as="alternateBounds" />
          </mxGeometry>
        </mxCell>
        <mxCell id="FbfgumM9k3iWBc4ifTP3-81" value="INT" style="shape=partialRectangle;html=1;whiteSpace=wrap;connectable=0;strokeColor=#EEEEEE;overflow=hidden;fillColor=none;top=0;left=0;bottom=0;right=0;pointerEvents=1;fontSize=12;labelBackgroundColor=none;fontColor=#000000;" parent="FbfgumM9k3iWBc4ifTP3-78" vertex="1">
          <mxGeometry x="178" width="105" height="30" as="geometry">
            <mxRectangle width="105" height="30" as="alternateBounds" />
          </mxGeometry>
        </mxCell>
        <mxCell id="FbfgumM9k3iWBc4ifTP3-558" style="shape=tableRow;horizontal=0;startSize=0;swimlaneHead=0;swimlaneBody=0;strokeColor=#EEEEEE;top=0;left=0;bottom=0;right=0;collapsible=0;dropTarget=0;fillColor=none;points=[[0,0.5],[1,0.5]];portConstraint=eastwest;fontSize=16;labelBackgroundColor=none;fontColor=#000000;" parent="FbfgumM9k3iWBc4ifTP3-11" vertex="1">
          <mxGeometry y="60" width="283.42900377442913" height="30" as="geometry" />
        </mxCell>
        <mxCell id="ApsFlAxeWI4yGW2BCktG-43" style="shape=partialRectangle;html=1;whiteSpace=wrap;connectable=0;strokeColor=#EEEEEE;overflow=hidden;fillColor=none;top=0;left=0;bottom=0;right=0;pointerEvents=1;fontSize=12;align=center;labelBackgroundColor=none;fontColor=#000000;" parent="FbfgumM9k3iWBc4ifTP3-558" vertex="1">
          <mxGeometry width="38" height="30" as="geometry">
            <mxRectangle width="38" height="30" as="alternateBounds" />
          </mxGeometry>
        </mxCell>
        <mxCell id="FbfgumM9k3iWBc4ifTP3-560" value="Название товара" style="shape=partialRectangle;html=1;whiteSpace=wrap;connectable=0;strokeColor=#EEEEEE;overflow=hidden;fillColor=none;top=0;left=0;bottom=0;right=0;pointerEvents=1;fontSize=12;align=center;labelBackgroundColor=none;fontColor=#000000;" parent="FbfgumM9k3iWBc4ifTP3-558" vertex="1">
          <mxGeometry x="38" width="140" height="30" as="geometry">
            <mxRectangle width="140" height="30" as="alternateBounds" />
          </mxGeometry>
        </mxCell>
        <mxCell id="FbfgumM9k3iWBc4ifTP3-561" value="VARCHAR(50)" style="shape=partialRectangle;html=1;whiteSpace=wrap;connectable=0;strokeColor=#EEEEEE;overflow=hidden;fillColor=none;top=0;left=0;bottom=0;right=0;pointerEvents=1;fontSize=12;labelBackgroundColor=none;fontColor=#000000;" parent="FbfgumM9k3iWBc4ifTP3-558" vertex="1">
          <mxGeometry x="178" width="105" height="30" as="geometry">
            <mxRectangle width="105" height="30" as="alternateBounds" />
          </mxGeometry>
        </mxCell>
        <mxCell id="FbfgumM9k3iWBc4ifTP3-16" value="" style="shape=tableRow;horizontal=0;startSize=0;swimlaneHead=0;swimlaneBody=0;strokeColor=#EEEEEE;top=0;left=0;bottom=0;right=0;collapsible=0;dropTarget=0;fillColor=none;points=[[0,0.5],[1,0.5]];portConstraint=eastwest;fontSize=16;labelBackgroundColor=none;fontColor=#000000;" parent="FbfgumM9k3iWBc4ifTP3-11" vertex="1">
          <mxGeometry y="90" width="283.42900377442913" height="29" as="geometry" />
        </mxCell>
        <mxCell id="ApsFlAxeWI4yGW2BCktG-44" style="shape=partialRectangle;html=1;whiteSpace=wrap;connectable=0;strokeColor=#EEEEEE;overflow=hidden;fillColor=none;top=0;left=0;bottom=0;right=0;pointerEvents=1;fontSize=12;align=center;labelBackgroundColor=none;fontColor=#000000;" parent="FbfgumM9k3iWBc4ifTP3-16" vertex="1">
          <mxGeometry width="38" height="29" as="geometry">
            <mxRectangle width="38" height="29" as="alternateBounds" />
          </mxGeometry>
        </mxCell>
        <mxCell id="FbfgumM9k3iWBc4ifTP3-18" value="&lt;div style=&quot;&quot;&gt;Цена товара&lt;/div&gt;&lt;span id=&quot;docs-internal-guid-eec535c5-7fff-ba72-a998-fead755bfe52&quot;&gt;&lt;/span&gt;" style="shape=partialRectangle;html=1;whiteSpace=wrap;connectable=0;strokeColor=#EEEEEE;overflow=hidden;fillColor=none;top=0;left=0;bottom=0;right=0;pointerEvents=1;fontSize=12;align=center;labelBackgroundColor=none;fontColor=#000000;" parent="FbfgumM9k3iWBc4ifTP3-16" vertex="1">
          <mxGeometry x="38" width="140" height="29" as="geometry">
            <mxRectangle width="140" height="29" as="alternateBounds" />
          </mxGeometry>
        </mxCell>
        <mxCell id="FbfgumM9k3iWBc4ifTP3-19" value="DECIMAL(10,2)" style="shape=partialRectangle;html=1;whiteSpace=wrap;connectable=0;strokeColor=#EEEEEE;overflow=hidden;fillColor=none;top=0;left=0;bottom=0;right=0;pointerEvents=1;fontSize=12;labelBackgroundColor=none;fontColor=#000000;" parent="FbfgumM9k3iWBc4ifTP3-16" vertex="1">
          <mxGeometry x="178" width="105" height="29" as="geometry">
            <mxRectangle width="105" height="29" as="alternateBounds" />
          </mxGeometry>
        </mxCell>
        <mxCell id="FbfgumM9k3iWBc4ifTP3-82" style="shape=tableRow;horizontal=0;startSize=0;swimlaneHead=0;swimlaneBody=0;strokeColor=#EEEEEE;top=0;left=0;bottom=0;right=0;collapsible=0;dropTarget=0;fillColor=none;points=[[0,0.5],[1,0.5]];portConstraint=eastwest;fontSize=16;labelBackgroundColor=none;fontColor=#000000;" parent="FbfgumM9k3iWBc4ifTP3-11" vertex="1">
          <mxGeometry y="119" width="283.42900377442913" height="31" as="geometry" />
        </mxCell>
        <mxCell id="ApsFlAxeWI4yGW2BCktG-45" value="FK" style="shape=partialRectangle;html=1;whiteSpace=wrap;connectable=0;strokeColor=#EEEEEE;overflow=hidden;fillColor=none;top=0;left=0;bottom=0;right=0;pointerEvents=1;fontSize=12;align=center;labelBackgroundColor=none;fontColor=#000000;" parent="FbfgumM9k3iWBc4ifTP3-82" vertex="1">
          <mxGeometry width="38" height="31" as="geometry">
            <mxRectangle width="38" height="31" as="alternateBounds" />
          </mxGeometry>
        </mxCell>
        <mxCell id="FbfgumM9k3iWBc4ifTP3-84" value="Подкатегория" style="shape=partialRectangle;html=1;whiteSpace=wrap;connectable=0;strokeColor=#EEEEEE;overflow=hidden;fillColor=none;top=0;left=0;bottom=0;right=0;pointerEvents=1;fontSize=12;align=center;labelBackgroundColor=none;fontColor=#000000;" parent="FbfgumM9k3iWBc4ifTP3-82" vertex="1">
          <mxGeometry x="38" width="140" height="31" as="geometry">
            <mxRectangle width="140" height="31" as="alternateBounds" />
          </mxGeometry>
        </mxCell>
        <mxCell id="FbfgumM9k3iWBc4ifTP3-85" value="INT" style="shape=partialRectangle;html=1;whiteSpace=wrap;connectable=0;strokeColor=#EEEEEE;overflow=hidden;fillColor=none;top=0;left=0;bottom=0;right=0;pointerEvents=1;fontSize=12;labelBackgroundColor=none;fontColor=#000000;" parent="FbfgumM9k3iWBc4ifTP3-82" vertex="1">
          <mxGeometry x="178" width="105" height="31" as="geometry">
            <mxRectangle width="105" height="31" as="alternateBounds" />
          </mxGeometry>
        </mxCell>
        <mxCell id="FbfgumM9k3iWBc4ifTP3-28" style="shape=tableRow;horizontal=0;startSize=0;swimlaneHead=0;swimlaneBody=0;strokeColor=#EEEEEE;top=0;left=0;bottom=0;right=0;collapsible=0;dropTarget=0;fillColor=none;points=[[0,0.5],[1,0.5]];portConstraint=eastwest;fontSize=16;labelBackgroundColor=none;fontColor=#000000;" parent="FbfgumM9k3iWBc4ifTP3-11" vertex="1">
          <mxGeometry y="150" width="283.42900377442913" height="31" as="geometry" />
        </mxCell>
        <mxCell id="ApsFlAxeWI4yGW2BCktG-46" style="shape=partialRectangle;html=1;whiteSpace=wrap;connectable=0;strokeColor=#EEEEEE;overflow=hidden;fillColor=none;top=0;left=0;bottom=0;right=0;pointerEvents=1;fontSize=12;labelBackgroundColor=none;fontColor=#000000;" parent="FbfgumM9k3iWBc4ifTP3-28" vertex="1">
          <mxGeometry width="38" height="31" as="geometry">
            <mxRectangle width="38" height="31" as="alternateBounds" />
          </mxGeometry>
        </mxCell>
        <mxCell id="FbfgumM9k3iWBc4ifTP3-30" value="Вес" style="shape=partialRectangle;html=1;whiteSpace=wrap;connectable=0;strokeColor=#EEEEEE;overflow=hidden;fillColor=none;top=0;left=0;bottom=0;right=0;pointerEvents=1;fontSize=12;labelBackgroundColor=none;fontColor=#000000;" parent="FbfgumM9k3iWBc4ifTP3-28" vertex="1">
          <mxGeometry x="38" width="140" height="31" as="geometry">
            <mxRectangle width="140" height="31" as="alternateBounds" />
          </mxGeometry>
        </mxCell>
        <mxCell id="FbfgumM9k3iWBc4ifTP3-31" value="DECIMAL(10,2)" style="shape=partialRectangle;html=1;whiteSpace=wrap;connectable=0;strokeColor=#EEEEEE;overflow=hidden;fillColor=none;top=0;left=0;bottom=0;right=0;pointerEvents=1;fontSize=12;labelBackgroundColor=none;fontColor=#000000;" parent="FbfgumM9k3iWBc4ifTP3-28" vertex="1">
          <mxGeometry x="178" width="105" height="31" as="geometry">
            <mxRectangle width="105" height="31" as="alternateBounds" />
          </mxGeometry>
        </mxCell>
        <mxCell id="FbfgumM9k3iWBc4ifTP3-24" style="shape=tableRow;horizontal=0;startSize=0;swimlaneHead=0;swimlaneBody=0;strokeColor=#EEEEEE;top=0;left=0;bottom=0;right=0;collapsible=0;dropTarget=0;fillColor=none;points=[[0,0.5],[1,0.5]];portConstraint=eastwest;fontSize=16;labelBackgroundColor=none;fontColor=#000000;" parent="FbfgumM9k3iWBc4ifTP3-11" vertex="1">
          <mxGeometry y="181" width="283.42900377442913" height="30" as="geometry" />
        </mxCell>
        <mxCell id="ApsFlAxeWI4yGW2BCktG-47" style="shape=partialRectangle;html=1;whiteSpace=wrap;connectable=0;strokeColor=#EEEEEE;overflow=hidden;fillColor=none;top=0;left=0;bottom=0;right=0;pointerEvents=1;fontSize=12;labelBackgroundColor=none;fontColor=#000000;" parent="FbfgumM9k3iWBc4ifTP3-24" vertex="1">
          <mxGeometry width="38" height="30" as="geometry">
            <mxRectangle width="38" height="30" as="alternateBounds" />
          </mxGeometry>
        </mxCell>
        <mxCell id="FbfgumM9k3iWBc4ifTP3-26" value="Длина" style="shape=partialRectangle;html=1;whiteSpace=wrap;connectable=0;strokeColor=#EEEEEE;overflow=hidden;fillColor=none;top=0;left=0;bottom=0;right=0;pointerEvents=1;fontSize=12;labelBackgroundColor=none;fontColor=#000000;" parent="FbfgumM9k3iWBc4ifTP3-24" vertex="1">
          <mxGeometry x="38" width="140" height="30" as="geometry">
            <mxRectangle width="140" height="30" as="alternateBounds" />
          </mxGeometry>
        </mxCell>
        <mxCell id="FbfgumM9k3iWBc4ifTP3-27" value="DECIMAL(10,2)" style="shape=partialRectangle;html=1;whiteSpace=wrap;connectable=0;strokeColor=#EEEEEE;overflow=hidden;fillColor=none;top=0;left=0;bottom=0;right=0;pointerEvents=1;fontSize=12;labelBackgroundColor=none;fontColor=#000000;" parent="FbfgumM9k3iWBc4ifTP3-24" vertex="1">
          <mxGeometry x="178" width="105" height="30" as="geometry">
            <mxRectangle width="105" height="30" as="alternateBounds" />
          </mxGeometry>
        </mxCell>
        <mxCell id="FbfgumM9k3iWBc4ifTP3-54" style="shape=tableRow;horizontal=0;startSize=0;swimlaneHead=0;swimlaneBody=0;strokeColor=#EEEEEE;top=0;left=0;bottom=0;right=0;collapsible=0;dropTarget=0;fillColor=none;points=[[0,0.5],[1,0.5]];portConstraint=eastwest;fontSize=16;labelBackgroundColor=none;fontColor=#000000;" parent="FbfgumM9k3iWBc4ifTP3-11" vertex="1">
          <mxGeometry y="211" width="283.42900377442913" height="30" as="geometry" />
        </mxCell>
        <mxCell id="ApsFlAxeWI4yGW2BCktG-48" style="shape=partialRectangle;html=1;whiteSpace=wrap;connectable=0;strokeColor=#EEEEEE;overflow=hidden;fillColor=none;top=0;left=0;bottom=0;right=0;pointerEvents=1;fontSize=12;labelBackgroundColor=none;fontColor=#000000;" parent="FbfgumM9k3iWBc4ifTP3-54" vertex="1">
          <mxGeometry width="38" height="30" as="geometry">
            <mxRectangle width="38" height="30" as="alternateBounds" />
          </mxGeometry>
        </mxCell>
        <mxCell id="FbfgumM9k3iWBc4ifTP3-56" value="Ширина" style="shape=partialRectangle;html=1;whiteSpace=wrap;connectable=0;strokeColor=#EEEEEE;overflow=hidden;fillColor=none;top=0;left=0;bottom=0;right=0;pointerEvents=1;fontSize=12;labelBackgroundColor=none;fontColor=#000000;" parent="FbfgumM9k3iWBc4ifTP3-54" vertex="1">
          <mxGeometry x="38" width="140" height="30" as="geometry">
            <mxRectangle width="140" height="30" as="alternateBounds" />
          </mxGeometry>
        </mxCell>
        <mxCell id="FbfgumM9k3iWBc4ifTP3-57" value="DECIMAL(10,2)" style="shape=partialRectangle;html=1;whiteSpace=wrap;connectable=0;strokeColor=#EEEEEE;overflow=hidden;fillColor=none;top=0;left=0;bottom=0;right=0;pointerEvents=1;fontSize=12;labelBackgroundColor=none;fontColor=#000000;" parent="FbfgumM9k3iWBc4ifTP3-54" vertex="1">
          <mxGeometry x="178" width="105" height="30" as="geometry">
            <mxRectangle width="105" height="30" as="alternateBounds" />
          </mxGeometry>
        </mxCell>
        <mxCell id="FbfgumM9k3iWBc4ifTP3-58" style="shape=tableRow;horizontal=0;startSize=0;swimlaneHead=0;swimlaneBody=0;strokeColor=#EEEEEE;top=0;left=0;bottom=0;right=0;collapsible=0;dropTarget=0;fillColor=none;points=[[0,0.5],[1,0.5]];portConstraint=eastwest;fontSize=16;labelBackgroundColor=none;fontColor=#000000;" parent="FbfgumM9k3iWBc4ifTP3-11" vertex="1">
          <mxGeometry y="241" width="283.42900377442913" height="30" as="geometry" />
        </mxCell>
        <mxCell id="ApsFlAxeWI4yGW2BCktG-49" style="shape=partialRectangle;html=1;whiteSpace=wrap;connectable=0;strokeColor=#EEEEEE;overflow=hidden;fillColor=none;top=0;left=0;bottom=0;right=0;pointerEvents=1;fontSize=12;labelBackgroundColor=none;fontColor=#000000;" parent="FbfgumM9k3iWBc4ifTP3-58" vertex="1">
          <mxGeometry width="38" height="30" as="geometry">
            <mxRectangle width="38" height="30" as="alternateBounds" />
          </mxGeometry>
        </mxCell>
        <mxCell id="FbfgumM9k3iWBc4ifTP3-60" value="Высота" style="shape=partialRectangle;html=1;whiteSpace=wrap;connectable=0;strokeColor=#EEEEEE;overflow=hidden;fillColor=none;top=0;left=0;bottom=0;right=0;pointerEvents=1;fontSize=12;labelBackgroundColor=none;fontColor=#000000;" parent="FbfgumM9k3iWBc4ifTP3-58" vertex="1">
          <mxGeometry x="38" width="140" height="30" as="geometry">
            <mxRectangle width="140" height="30" as="alternateBounds" />
          </mxGeometry>
        </mxCell>
        <mxCell id="FbfgumM9k3iWBc4ifTP3-61" value="DECIMAL(10,2)" style="shape=partialRectangle;html=1;whiteSpace=wrap;connectable=0;strokeColor=#EEEEEE;overflow=hidden;fillColor=none;top=0;left=0;bottom=0;right=0;pointerEvents=1;fontSize=12;labelBackgroundColor=none;fontColor=#000000;" parent="FbfgumM9k3iWBc4ifTP3-58" vertex="1">
          <mxGeometry x="178" width="105" height="30" as="geometry">
            <mxRectangle width="105" height="30" as="alternateBounds" />
          </mxGeometry>
        </mxCell>
        <mxCell id="FbfgumM9k3iWBc4ifTP3-62" style="shape=tableRow;horizontal=0;startSize=0;swimlaneHead=0;swimlaneBody=0;strokeColor=#EEEEEE;top=0;left=0;bottom=0;right=0;collapsible=0;dropTarget=0;fillColor=none;points=[[0,0.5],[1,0.5]];portConstraint=eastwest;fontSize=16;labelBackgroundColor=none;fontColor=#000000;" parent="FbfgumM9k3iWBc4ifTP3-11" vertex="1">
          <mxGeometry y="271" width="283.42900377442913" height="30" as="geometry" />
        </mxCell>
        <mxCell id="ApsFlAxeWI4yGW2BCktG-50" style="shape=partialRectangle;html=1;whiteSpace=wrap;connectable=0;strokeColor=#EEEEEE;overflow=hidden;fillColor=none;top=0;left=0;bottom=0;right=0;pointerEvents=1;fontSize=12;labelBackgroundColor=none;fontColor=#000000;" parent="FbfgumM9k3iWBc4ifTP3-62" vertex="1">
          <mxGeometry width="38" height="30" as="geometry">
            <mxRectangle width="38" height="30" as="alternateBounds" />
          </mxGeometry>
        </mxCell>
        <mxCell id="FbfgumM9k3iWBc4ifTP3-64" value="Изображение" style="shape=partialRectangle;html=1;whiteSpace=wrap;connectable=0;strokeColor=#EEEEEE;overflow=hidden;fillColor=none;top=0;left=0;bottom=0;right=0;pointerEvents=1;fontSize=12;labelBackgroundColor=none;fontColor=#000000;" parent="FbfgumM9k3iWBc4ifTP3-62" vertex="1">
          <mxGeometry x="38" width="140" height="30" as="geometry">
            <mxRectangle width="140" height="30" as="alternateBounds" />
          </mxGeometry>
        </mxCell>
        <mxCell id="FbfgumM9k3iWBc4ifTP3-65" value="VARCHAR(255)" style="shape=partialRectangle;html=1;whiteSpace=wrap;connectable=0;strokeColor=#EEEEEE;overflow=hidden;fillColor=none;top=0;left=0;bottom=0;right=0;pointerEvents=1;fontSize=12;labelBackgroundColor=none;fontColor=#000000;" parent="FbfgumM9k3iWBc4ifTP3-62" vertex="1">
          <mxGeometry x="178" width="105" height="30" as="geometry">
            <mxRectangle width="105" height="30" as="alternateBounds" />
          </mxGeometry>
        </mxCell>
        <mxCell id="FbfgumM9k3iWBc4ifTP3-66" style="shape=tableRow;horizontal=0;startSize=0;swimlaneHead=0;swimlaneBody=0;strokeColor=#EEEEEE;top=0;left=0;bottom=0;right=0;collapsible=0;dropTarget=0;fillColor=none;points=[[0,0.5],[1,0.5]];portConstraint=eastwest;fontSize=16;labelBackgroundColor=none;fontColor=#000000;" parent="FbfgumM9k3iWBc4ifTP3-11" vertex="1">
          <mxGeometry y="301" width="283.42900377442913" height="29" as="geometry" />
        </mxCell>
        <mxCell id="ApsFlAxeWI4yGW2BCktG-51" style="shape=partialRectangle;html=1;whiteSpace=wrap;connectable=0;strokeColor=#EEEEEE;overflow=hidden;fillColor=none;top=0;left=0;bottom=0;right=0;pointerEvents=1;fontSize=12;labelBackgroundColor=none;fontColor=#000000;" parent="FbfgumM9k3iWBc4ifTP3-66" vertex="1">
          <mxGeometry width="38" height="29" as="geometry">
            <mxRectangle width="38" height="29" as="alternateBounds" />
          </mxGeometry>
        </mxCell>
        <mxCell id="FbfgumM9k3iWBc4ifTP3-68" value="Описание" style="shape=partialRectangle;html=1;whiteSpace=wrap;connectable=0;strokeColor=#EEEEEE;overflow=hidden;fillColor=none;top=0;left=0;bottom=0;right=0;pointerEvents=1;fontSize=12;labelBackgroundColor=none;fontColor=#000000;" parent="FbfgumM9k3iWBc4ifTP3-66" vertex="1">
          <mxGeometry x="38" width="140" height="29" as="geometry">
            <mxRectangle width="140" height="29" as="alternateBounds" />
          </mxGeometry>
        </mxCell>
        <mxCell id="FbfgumM9k3iWBc4ifTP3-69" value="TEXT" style="shape=partialRectangle;html=1;whiteSpace=wrap;connectable=0;strokeColor=#EEEEEE;overflow=hidden;fillColor=none;top=0;left=0;bottom=0;right=0;pointerEvents=1;fontSize=12;labelBackgroundColor=none;fontColor=#000000;" parent="FbfgumM9k3iWBc4ifTP3-66" vertex="1">
          <mxGeometry x="178" width="105" height="29" as="geometry">
            <mxRectangle width="105" height="29" as="alternateBounds" />
          </mxGeometry>
        </mxCell>
        <mxCell id="FbfgumM9k3iWBc4ifTP3-86" style="shape=tableRow;horizontal=0;startSize=0;swimlaneHead=0;swimlaneBody=0;strokeColor=#EEEEEE;top=0;left=0;bottom=0;right=0;collapsible=0;dropTarget=0;fillColor=none;points=[[0,0.5],[1,0.5]];portConstraint=eastwest;fontSize=16;labelBackgroundColor=none;fontColor=#000000;" parent="FbfgumM9k3iWBc4ifTP3-11" vertex="1">
          <mxGeometry y="330" width="283.42900377442913" height="30" as="geometry" />
        </mxCell>
        <mxCell id="ApsFlAxeWI4yGW2BCktG-52" style="shape=partialRectangle;html=1;whiteSpace=wrap;connectable=0;strokeColor=#EEEEEE;overflow=hidden;fillColor=none;top=0;left=0;bottom=0;right=0;pointerEvents=1;fontSize=12;labelBackgroundColor=none;fontColor=#000000;" parent="FbfgumM9k3iWBc4ifTP3-86" vertex="1">
          <mxGeometry width="38" height="30" as="geometry">
            <mxRectangle width="38" height="30" as="alternateBounds" />
          </mxGeometry>
        </mxCell>
        <mxCell id="FbfgumM9k3iWBc4ifTP3-88" value="Возврат (разрешение)" style="shape=partialRectangle;html=1;whiteSpace=wrap;connectable=0;strokeColor=#EEEEEE;overflow=hidden;fillColor=none;top=0;left=0;bottom=0;right=0;pointerEvents=1;fontSize=12;labelBackgroundColor=none;fontColor=#000000;" parent="FbfgumM9k3iWBc4ifTP3-86" vertex="1">
          <mxGeometry x="38" width="140" height="30" as="geometry">
            <mxRectangle width="140" height="30" as="alternateBounds" />
          </mxGeometry>
        </mxCell>
        <mxCell id="FbfgumM9k3iWBc4ifTP3-89" value="BOOL" style="shape=partialRectangle;html=1;whiteSpace=wrap;connectable=0;strokeColor=#EEEEEE;overflow=hidden;fillColor=none;top=0;left=0;bottom=0;right=0;pointerEvents=1;fontSize=12;labelBackgroundColor=none;fontColor=#000000;" parent="FbfgumM9k3iWBc4ifTP3-86" vertex="1">
          <mxGeometry x="178" width="105" height="30" as="geometry">
            <mxRectangle width="105" height="30" as="alternateBounds" />
          </mxGeometry>
        </mxCell>
        <mxCell id="FbfgumM9k3iWBc4ifTP3-70" style="shape=tableRow;horizontal=0;startSize=0;swimlaneHead=0;swimlaneBody=0;strokeColor=#EEEEEE;top=0;left=0;bottom=0;right=0;collapsible=0;dropTarget=0;fillColor=none;points=[[0,0.5],[1,0.5]];portConstraint=eastwest;fontSize=16;labelBackgroundColor=none;fontColor=#000000;" parent="FbfgumM9k3iWBc4ifTP3-11" vertex="1">
          <mxGeometry y="360" width="283.42900377442913" height="30" as="geometry" />
        </mxCell>
        <mxCell id="ApsFlAxeWI4yGW2BCktG-53" style="shape=partialRectangle;html=1;whiteSpace=wrap;connectable=0;strokeColor=#EEEEEE;overflow=hidden;fillColor=none;top=0;left=0;bottom=0;right=0;pointerEvents=1;fontSize=12;labelBackgroundColor=none;fontColor=#000000;" parent="FbfgumM9k3iWBc4ifTP3-70" vertex="1">
          <mxGeometry width="38" height="30" as="geometry">
            <mxRectangle width="38" height="30" as="alternateBounds" />
          </mxGeometry>
        </mxCell>
        <mxCell id="FbfgumM9k3iWBc4ifTP3-72" value="Гарантия" style="shape=partialRectangle;html=1;whiteSpace=wrap;connectable=0;strokeColor=#EEEEEE;overflow=hidden;fillColor=none;top=0;left=0;bottom=0;right=0;pointerEvents=1;fontSize=12;labelBackgroundColor=none;fontColor=#000000;" parent="FbfgumM9k3iWBc4ifTP3-70" vertex="1">
          <mxGeometry x="38" width="140" height="30" as="geometry">
            <mxRectangle width="140" height="30" as="alternateBounds" />
          </mxGeometry>
        </mxCell>
        <mxCell id="FbfgumM9k3iWBc4ifTP3-73" value="INT" style="shape=partialRectangle;html=1;whiteSpace=wrap;connectable=0;strokeColor=#EEEEEE;overflow=hidden;fillColor=none;top=0;left=0;bottom=0;right=0;pointerEvents=1;fontSize=12;labelBackgroundColor=none;fontColor=#000000;" parent="FbfgumM9k3iWBc4ifTP3-70" vertex="1">
          <mxGeometry x="178" width="105" height="30" as="geometry">
            <mxRectangle width="105" height="30" as="alternateBounds" />
          </mxGeometry>
        </mxCell>
        <mxCell id="FbfgumM9k3iWBc4ifTP3-32" value="Оценка товара" style="shape=table;startSize=30;container=1;collapsible=0;childLayout=tableLayout;fontSize=14;fillColor=#56517E;labelBackgroundColor=none;strokeColor=#000000;fontColor=#FFFFFF;" parent="1" vertex="1">
          <mxGeometry x="1115" y="1086" width="246.62427775065134" height="121.50003286508422" as="geometry" />
        </mxCell>
        <mxCell id="FbfgumM9k3iWBc4ifTP3-33" value="" style="shape=tableRow;horizontal=0;startSize=0;swimlaneHead=0;swimlaneBody=0;strokeColor=#EEEEEE;top=0;left=0;bottom=0;right=0;collapsible=0;dropTarget=0;fillColor=none;points=[[0,0.5],[1,0.5]];portConstraint=eastwest;fontSize=16;labelBackgroundColor=none;fontColor=#000000;" parent="FbfgumM9k3iWBc4ifTP3-32" vertex="1">
          <mxGeometry y="30" width="246.62427775065134" height="30" as="geometry" />
        </mxCell>
        <mxCell id="ApsFlAxeWI4yGW2BCktG-39" value="PK" style="shape=partialRectangle;html=1;whiteSpace=wrap;connectable=0;strokeColor=#EEEEEE;overflow=hidden;fillColor=none;top=0;left=0;bottom=0;right=0;pointerEvents=1;fontSize=12;labelBackgroundColor=none;fontColor=#000000;" parent="FbfgumM9k3iWBc4ifTP3-33" vertex="1">
          <mxGeometry width="37" height="30" as="geometry">
            <mxRectangle width="37" height="30" as="alternateBounds" />
          </mxGeometry>
        </mxCell>
        <mxCell id="FbfgumM9k3iWBc4ifTP3-35" value="id товара" style="shape=partialRectangle;html=1;whiteSpace=wrap;connectable=0;strokeColor=#EEEEEE;overflow=hidden;fillColor=none;top=0;left=0;bottom=0;right=0;pointerEvents=1;fontSize=12;labelBackgroundColor=none;fontColor=#000000;" parent="FbfgumM9k3iWBc4ifTP3-33" vertex="1">
          <mxGeometry x="37" width="83" height="30" as="geometry">
            <mxRectangle width="83" height="30" as="alternateBounds" />
          </mxGeometry>
        </mxCell>
        <mxCell id="FbfgumM9k3iWBc4ifTP3-36" value="INT" style="shape=partialRectangle;html=1;whiteSpace=wrap;connectable=0;strokeColor=#EEEEEE;overflow=hidden;fillColor=none;top=0;left=0;bottom=0;right=0;pointerEvents=1;fontSize=12;labelBackgroundColor=none;fontColor=#000000;" parent="FbfgumM9k3iWBc4ifTP3-33" vertex="1">
          <mxGeometry x="120" width="127" height="30" as="geometry">
            <mxRectangle width="127" height="30" as="alternateBounds" />
          </mxGeometry>
        </mxCell>
        <mxCell id="FbfgumM9k3iWBc4ifTP3-37" value="" style="shape=tableRow;horizontal=0;startSize=0;swimlaneHead=0;swimlaneBody=0;strokeColor=#EEEEEE;top=0;left=0;bottom=0;right=0;collapsible=0;dropTarget=0;fillColor=none;points=[[0,0.5],[1,0.5]];portConstraint=eastwest;fontSize=16;labelBackgroundColor=none;fontColor=#000000;" parent="FbfgumM9k3iWBc4ifTP3-32" vertex="1">
          <mxGeometry y="60" width="246.62427775065134" height="30" as="geometry" />
        </mxCell>
        <mxCell id="ApsFlAxeWI4yGW2BCktG-40" value="FK" style="shape=partialRectangle;html=1;whiteSpace=wrap;connectable=0;strokeColor=#EEEEEE;overflow=hidden;fillColor=none;top=0;left=0;bottom=0;right=0;pointerEvents=1;fontSize=12;labelBackgroundColor=none;fontColor=#000000;" parent="FbfgumM9k3iWBc4ifTP3-37" vertex="1">
          <mxGeometry width="37" height="30" as="geometry">
            <mxRectangle width="37" height="30" as="alternateBounds" />
          </mxGeometry>
        </mxCell>
        <mxCell id="FbfgumM9k3iWBc4ifTP3-39" value="Логин" style="shape=partialRectangle;html=1;whiteSpace=wrap;connectable=0;strokeColor=#EEEEEE;overflow=hidden;fillColor=none;top=0;left=0;bottom=0;right=0;pointerEvents=1;fontSize=12;labelBackgroundColor=none;fontColor=#000000;" parent="FbfgumM9k3iWBc4ifTP3-37" vertex="1">
          <mxGeometry x="37" width="83" height="30" as="geometry">
            <mxRectangle width="83" height="30" as="alternateBounds" />
          </mxGeometry>
        </mxCell>
        <mxCell id="FbfgumM9k3iWBc4ifTP3-40" value="VARCHAR(255)" style="shape=partialRectangle;html=1;whiteSpace=wrap;connectable=0;strokeColor=#EEEEEE;overflow=hidden;fillColor=none;top=0;left=0;bottom=0;right=0;pointerEvents=1;fontSize=12;labelBackgroundColor=none;fontColor=#000000;" parent="FbfgumM9k3iWBc4ifTP3-37" vertex="1">
          <mxGeometry x="120" width="127" height="30" as="geometry">
            <mxRectangle width="127" height="30" as="alternateBounds" />
          </mxGeometry>
        </mxCell>
        <mxCell id="FbfgumM9k3iWBc4ifTP3-41" value="" style="shape=tableRow;horizontal=0;startSize=0;swimlaneHead=0;swimlaneBody=0;strokeColor=#EEEEEE;top=0;left=0;bottom=0;right=0;collapsible=0;dropTarget=0;fillColor=none;points=[[0,0.5],[1,0.5]];portConstraint=eastwest;fontSize=16;labelBackgroundColor=none;fontColor=#000000;" parent="FbfgumM9k3iWBc4ifTP3-32" vertex="1">
          <mxGeometry y="90" width="246.62427775065134" height="32" as="geometry" />
        </mxCell>
        <mxCell id="ApsFlAxeWI4yGW2BCktG-41" style="shape=partialRectangle;html=1;whiteSpace=wrap;connectable=0;strokeColor=#EEEEEE;overflow=hidden;fillColor=none;top=0;left=0;bottom=0;right=0;pointerEvents=1;fontSize=12;labelBackgroundColor=none;fontColor=#000000;" parent="FbfgumM9k3iWBc4ifTP3-41" vertex="1">
          <mxGeometry width="37" height="32" as="geometry">
            <mxRectangle width="37" height="32" as="alternateBounds" />
          </mxGeometry>
        </mxCell>
        <mxCell id="FbfgumM9k3iWBc4ifTP3-43" value="Оценка" style="shape=partialRectangle;html=1;whiteSpace=wrap;connectable=0;strokeColor=#EEEEEE;overflow=hidden;fillColor=none;top=0;left=0;bottom=0;right=0;pointerEvents=1;fontSize=12;labelBackgroundColor=none;fontColor=#000000;" parent="FbfgumM9k3iWBc4ifTP3-41" vertex="1">
          <mxGeometry x="37" width="83" height="32" as="geometry">
            <mxRectangle width="83" height="32" as="alternateBounds" />
          </mxGeometry>
        </mxCell>
        <mxCell id="FbfgumM9k3iWBc4ifTP3-44" value="DECIMAL(2,1)" style="shape=partialRectangle;html=1;whiteSpace=wrap;connectable=0;strokeColor=#EEEEEE;overflow=hidden;fillColor=none;top=0;left=0;bottom=0;right=0;pointerEvents=1;fontSize=12;labelBackgroundColor=none;fontColor=#000000;" parent="FbfgumM9k3iWBc4ifTP3-41" vertex="1">
          <mxGeometry x="120" width="127" height="32" as="geometry">
            <mxRectangle width="127" height="32" as="alternateBounds" />
          </mxGeometry>
        </mxCell>
        <mxCell id="FbfgumM9k3iWBc4ifTP3-145" value="Покупатель" style="shape=table;startSize=30;container=1;collapsible=0;childLayout=tableLayout;strokeColor=#000000;fontSize=14;labelBackgroundColor=none;fillColor=#56517E;fontColor=#FFFFFF;" parent="1" vertex="1">
          <mxGeometry x="1479" y="1002" width="301.6901367187502" height="240.15005493164062" as="geometry" />
        </mxCell>
        <mxCell id="FbfgumM9k3iWBc4ifTP3-146" value="" style="shape=tableRow;horizontal=0;startSize=0;swimlaneHead=0;swimlaneBody=0;strokeColor=#EEEEEE;top=0;left=0;bottom=0;right=0;collapsible=0;dropTarget=0;fillColor=none;points=[[0,0.5],[1,0.5]];portConstraint=eastwest;fontSize=16;labelBackgroundColor=none;fontColor=#000000;" parent="FbfgumM9k3iWBc4ifTP3-145" vertex="1">
          <mxGeometry y="30" width="301.6901367187502" height="30" as="geometry" />
        </mxCell>
        <mxCell id="ApsFlAxeWI4yGW2BCktG-59" value="PK" style="shape=partialRectangle;html=1;whiteSpace=wrap;connectable=0;strokeColor=#EEEEEE;overflow=hidden;fillColor=none;top=0;left=0;bottom=0;right=0;pointerEvents=1;fontSize=12;labelBackgroundColor=none;fontColor=#000000;" parent="FbfgumM9k3iWBc4ifTP3-146" vertex="1">
          <mxGeometry width="37" height="30" as="geometry">
            <mxRectangle width="37" height="30" as="alternateBounds" />
          </mxGeometry>
        </mxCell>
        <mxCell id="FbfgumM9k3iWBc4ifTP3-148" value="Код покупателя/Логин" style="shape=partialRectangle;html=1;whiteSpace=wrap;connectable=0;strokeColor=#EEEEEE;overflow=hidden;fillColor=none;top=0;left=0;bottom=0;right=0;pointerEvents=1;fontSize=12;labelBackgroundColor=none;fontColor=#000000;" parent="FbfgumM9k3iWBc4ifTP3-146" vertex="1">
          <mxGeometry x="37" width="140" height="30" as="geometry">
            <mxRectangle width="140" height="30" as="alternateBounds" />
          </mxGeometry>
        </mxCell>
        <mxCell id="FbfgumM9k3iWBc4ifTP3-149" value="INT" style="shape=partialRectangle;html=1;whiteSpace=wrap;connectable=0;strokeColor=#EEEEEE;overflow=hidden;fillColor=none;top=0;left=0;bottom=0;right=0;pointerEvents=1;fontSize=12;labelBackgroundColor=none;fontColor=#000000;" parent="FbfgumM9k3iWBc4ifTP3-146" vertex="1">
          <mxGeometry x="177" width="125" height="30" as="geometry">
            <mxRectangle width="125" height="30" as="alternateBounds" />
          </mxGeometry>
        </mxCell>
        <mxCell id="FbfgumM9k3iWBc4ifTP3-150" value="" style="shape=tableRow;horizontal=0;startSize=0;swimlaneHead=0;swimlaneBody=0;strokeColor=#EEEEEE;top=0;left=0;bottom=0;right=0;collapsible=0;dropTarget=0;fillColor=none;points=[[0,0.5],[1,0.5]];portConstraint=eastwest;fontSize=16;labelBackgroundColor=none;fontColor=#000000;" parent="FbfgumM9k3iWBc4ifTP3-145" vertex="1">
          <mxGeometry y="60" width="301.6901367187502" height="30" as="geometry" />
        </mxCell>
        <mxCell id="ApsFlAxeWI4yGW2BCktG-60" style="shape=partialRectangle;html=1;whiteSpace=wrap;connectable=0;strokeColor=#EEEEEE;overflow=hidden;fillColor=none;top=0;left=0;bottom=0;right=0;pointerEvents=1;fontSize=12;labelBackgroundColor=none;fontColor=#000000;" parent="FbfgumM9k3iWBc4ifTP3-150" vertex="1">
          <mxGeometry width="37" height="30" as="geometry">
            <mxRectangle width="37" height="30" as="alternateBounds" />
          </mxGeometry>
        </mxCell>
        <mxCell id="FbfgumM9k3iWBc4ifTP3-152" value="Пароль" style="shape=partialRectangle;html=1;whiteSpace=wrap;connectable=0;strokeColor=#EEEEEE;overflow=hidden;fillColor=none;top=0;left=0;bottom=0;right=0;pointerEvents=1;fontSize=12;labelBackgroundColor=none;fontColor=#000000;" parent="FbfgumM9k3iWBc4ifTP3-150" vertex="1">
          <mxGeometry x="37" width="140" height="30" as="geometry">
            <mxRectangle width="140" height="30" as="alternateBounds" />
          </mxGeometry>
        </mxCell>
        <mxCell id="FbfgumM9k3iWBc4ifTP3-153" value="VARCHAR(30)" style="shape=partialRectangle;html=1;whiteSpace=wrap;connectable=0;strokeColor=#EEEEEE;overflow=hidden;fillColor=none;top=0;left=0;bottom=0;right=0;pointerEvents=1;fontSize=12;labelBackgroundColor=none;fontColor=#000000;" parent="FbfgumM9k3iWBc4ifTP3-150" vertex="1">
          <mxGeometry x="177" width="125" height="30" as="geometry">
            <mxRectangle width="125" height="30" as="alternateBounds" />
          </mxGeometry>
        </mxCell>
        <mxCell id="FbfgumM9k3iWBc4ifTP3-308" value="" style="shape=singleArrow;whiteSpace=wrap;html=1;arrowWidth=0.4;arrowSize=0.4;fontSize=14;fillColor=none;startSize=30;labelBackgroundColor=none;strokeColor=#EEEEEE;fontColor=#000000;" parent="FbfgumM9k3iWBc4ifTP3-150" vertex="1">
          <mxGeometry x="302" width="NaN" height="30" as="geometry">
            <mxRectangle width="NaN" height="30" as="alternateBounds" />
          </mxGeometry>
        </mxCell>
        <mxCell id="FbfgumM9k3iWBc4ifTP3-154" value="" style="shape=tableRow;horizontal=0;startSize=0;swimlaneHead=0;swimlaneBody=0;strokeColor=#EEEEEE;top=0;left=0;bottom=0;right=0;collapsible=0;dropTarget=0;fillColor=none;points=[[0,0.5],[1,0.5]];portConstraint=eastwest;fontSize=16;labelBackgroundColor=none;fontColor=#000000;" parent="FbfgumM9k3iWBc4ifTP3-145" vertex="1">
          <mxGeometry y="90" width="301.6901367187502" height="30" as="geometry" />
        </mxCell>
        <mxCell id="ApsFlAxeWI4yGW2BCktG-61" style="shape=partialRectangle;html=1;whiteSpace=wrap;connectable=0;strokeColor=#EEEEEE;overflow=hidden;fillColor=none;top=0;left=0;bottom=0;right=0;pointerEvents=1;fontSize=12;labelBackgroundColor=none;fontColor=#000000;" parent="FbfgumM9k3iWBc4ifTP3-154" vertex="1">
          <mxGeometry width="37" height="30" as="geometry">
            <mxRectangle width="37" height="30" as="alternateBounds" />
          </mxGeometry>
        </mxCell>
        <mxCell id="FbfgumM9k3iWBc4ifTP3-156" value="e-mail" style="shape=partialRectangle;html=1;whiteSpace=wrap;connectable=0;strokeColor=#EEEEEE;overflow=hidden;fillColor=none;top=0;left=0;bottom=0;right=0;pointerEvents=1;fontSize=12;labelBackgroundColor=none;fontColor=#000000;" parent="FbfgumM9k3iWBc4ifTP3-154" vertex="1">
          <mxGeometry x="37" width="140" height="30" as="geometry">
            <mxRectangle width="140" height="30" as="alternateBounds" />
          </mxGeometry>
        </mxCell>
        <mxCell id="FbfgumM9k3iWBc4ifTP3-157" value="VARCHAR(100)" style="shape=partialRectangle;html=1;whiteSpace=wrap;connectable=0;strokeColor=#EEEEEE;overflow=hidden;fillColor=none;top=0;left=0;bottom=0;right=0;pointerEvents=1;fontSize=12;labelBackgroundColor=none;fontColor=#000000;" parent="FbfgumM9k3iWBc4ifTP3-154" vertex="1">
          <mxGeometry x="177" width="125" height="30" as="geometry">
            <mxRectangle width="125" height="30" as="alternateBounds" />
          </mxGeometry>
        </mxCell>
        <mxCell id="FbfgumM9k3iWBc4ifTP3-158" style="shape=tableRow;horizontal=0;startSize=0;swimlaneHead=0;swimlaneBody=0;strokeColor=#EEEEEE;top=0;left=0;bottom=0;right=0;collapsible=0;dropTarget=0;fillColor=none;points=[[0,0.5],[1,0.5]];portConstraint=eastwest;fontSize=16;labelBackgroundColor=none;fontColor=#000000;" parent="FbfgumM9k3iWBc4ifTP3-145" vertex="1">
          <mxGeometry y="120" width="301.6901367187502" height="30" as="geometry" />
        </mxCell>
        <mxCell id="ApsFlAxeWI4yGW2BCktG-62" style="shape=partialRectangle;html=1;whiteSpace=wrap;connectable=0;strokeColor=#EEEEEE;overflow=hidden;fillColor=none;top=0;left=0;bottom=0;right=0;pointerEvents=1;fontSize=12;labelBackgroundColor=none;fontColor=#000000;" parent="FbfgumM9k3iWBc4ifTP3-158" vertex="1">
          <mxGeometry width="37" height="30" as="geometry">
            <mxRectangle width="37" height="30" as="alternateBounds" />
          </mxGeometry>
        </mxCell>
        <mxCell id="FbfgumM9k3iWBc4ifTP3-160" value="ФИО" style="shape=partialRectangle;html=1;whiteSpace=wrap;connectable=0;strokeColor=#EEEEEE;overflow=hidden;fillColor=none;top=0;left=0;bottom=0;right=0;pointerEvents=1;fontSize=12;labelBackgroundColor=none;fontColor=#000000;" parent="FbfgumM9k3iWBc4ifTP3-158" vertex="1">
          <mxGeometry x="37" width="140" height="30" as="geometry">
            <mxRectangle width="140" height="30" as="alternateBounds" />
          </mxGeometry>
        </mxCell>
        <mxCell id="FbfgumM9k3iWBc4ifTP3-161" value="VARCHAR(100)" style="shape=partialRectangle;html=1;whiteSpace=wrap;connectable=0;strokeColor=#EEEEEE;overflow=hidden;fillColor=none;top=0;left=0;bottom=0;right=0;pointerEvents=1;fontSize=12;labelBackgroundColor=none;fontColor=#000000;" parent="FbfgumM9k3iWBc4ifTP3-158" vertex="1">
          <mxGeometry x="177" width="125" height="30" as="geometry">
            <mxRectangle width="125" height="30" as="alternateBounds" />
          </mxGeometry>
        </mxCell>
        <mxCell id="FbfgumM9k3iWBc4ifTP3-166" style="shape=tableRow;horizontal=0;startSize=0;swimlaneHead=0;swimlaneBody=0;strokeColor=#EEEEEE;top=0;left=0;bottom=0;right=0;collapsible=0;dropTarget=0;fillColor=none;points=[[0,0.5],[1,0.5]];portConstraint=eastwest;fontSize=16;labelBackgroundColor=none;fontColor=#000000;" parent="FbfgumM9k3iWBc4ifTP3-145" vertex="1">
          <mxGeometry y="150" width="301.6901367187502" height="30" as="geometry" />
        </mxCell>
        <mxCell id="ApsFlAxeWI4yGW2BCktG-63" style="shape=partialRectangle;html=1;whiteSpace=wrap;connectable=0;strokeColor=#EEEEEE;overflow=hidden;fillColor=none;top=0;left=0;bottom=0;right=0;pointerEvents=1;fontSize=12;labelBackgroundColor=none;fontColor=#000000;" parent="FbfgumM9k3iWBc4ifTP3-166" vertex="1">
          <mxGeometry width="37" height="30" as="geometry">
            <mxRectangle width="37" height="30" as="alternateBounds" />
          </mxGeometry>
        </mxCell>
        <mxCell id="FbfgumM9k3iWBc4ifTP3-168" value="Адрес" style="shape=partialRectangle;html=1;whiteSpace=wrap;connectable=0;strokeColor=#EEEEEE;overflow=hidden;fillColor=none;top=0;left=0;bottom=0;right=0;pointerEvents=1;fontSize=12;labelBackgroundColor=none;fontColor=#000000;" parent="FbfgumM9k3iWBc4ifTP3-166" vertex="1">
          <mxGeometry x="37" width="140" height="30" as="geometry">
            <mxRectangle width="140" height="30" as="alternateBounds" />
          </mxGeometry>
        </mxCell>
        <mxCell id="FbfgumM9k3iWBc4ifTP3-169" value="VARCHAR(50)" style="shape=partialRectangle;html=1;whiteSpace=wrap;connectable=0;strokeColor=#EEEEEE;overflow=hidden;fillColor=none;top=0;left=0;bottom=0;right=0;pointerEvents=1;fontSize=12;labelBackgroundColor=none;fontColor=#000000;" parent="FbfgumM9k3iWBc4ifTP3-166" vertex="1">
          <mxGeometry x="177" width="125" height="30" as="geometry">
            <mxRectangle width="125" height="30" as="alternateBounds" />
          </mxGeometry>
        </mxCell>
        <mxCell id="FbfgumM9k3iWBc4ifTP3-170" style="shape=tableRow;horizontal=0;startSize=0;swimlaneHead=0;swimlaneBody=0;strokeColor=#EEEEEE;top=0;left=0;bottom=0;right=0;collapsible=0;dropTarget=0;fillColor=none;points=[[0,0.5],[1,0.5]];portConstraint=eastwest;fontSize=16;labelBackgroundColor=none;fontColor=#000000;" parent="FbfgumM9k3iWBc4ifTP3-145" vertex="1">
          <mxGeometry y="180" width="301.6901367187502" height="30" as="geometry" />
        </mxCell>
        <mxCell id="ApsFlAxeWI4yGW2BCktG-64" style="shape=partialRectangle;html=1;whiteSpace=wrap;connectable=0;strokeColor=#EEEEEE;overflow=hidden;fillColor=none;top=0;left=0;bottom=0;right=0;pointerEvents=1;fontSize=12;labelBackgroundColor=none;fontColor=#000000;" parent="FbfgumM9k3iWBc4ifTP3-170" vertex="1">
          <mxGeometry width="37" height="30" as="geometry">
            <mxRectangle width="37" height="30" as="alternateBounds" />
          </mxGeometry>
        </mxCell>
        <mxCell id="FbfgumM9k3iWBc4ifTP3-172" value="Дата рождения" style="shape=partialRectangle;html=1;whiteSpace=wrap;connectable=0;strokeColor=#EEEEEE;overflow=hidden;fillColor=none;top=0;left=0;bottom=0;right=0;pointerEvents=1;fontSize=12;labelBackgroundColor=none;fontColor=#000000;" parent="FbfgumM9k3iWBc4ifTP3-170" vertex="1">
          <mxGeometry x="37" width="140" height="30" as="geometry">
            <mxRectangle width="140" height="30" as="alternateBounds" />
          </mxGeometry>
        </mxCell>
        <mxCell id="FbfgumM9k3iWBc4ifTP3-173" value="DATE" style="shape=partialRectangle;html=1;whiteSpace=wrap;connectable=0;strokeColor=#EEEEEE;overflow=hidden;fillColor=none;top=0;left=0;bottom=0;right=0;pointerEvents=1;fontSize=12;labelBackgroundColor=none;fontColor=#000000;" parent="FbfgumM9k3iWBc4ifTP3-170" vertex="1">
          <mxGeometry x="177" width="125" height="30" as="geometry">
            <mxRectangle width="125" height="30" as="alternateBounds" />
          </mxGeometry>
        </mxCell>
        <mxCell id="FbfgumM9k3iWBc4ifTP3-174" style="shape=tableRow;horizontal=0;startSize=0;swimlaneHead=0;swimlaneBody=0;strokeColor=#EEEEEE;top=0;left=0;bottom=0;right=0;collapsible=0;dropTarget=0;fillColor=none;points=[[0,0.5],[1,0.5]];portConstraint=eastwest;fontSize=16;labelBackgroundColor=none;fontColor=#000000;" parent="FbfgumM9k3iWBc4ifTP3-145" vertex="1">
          <mxGeometry y="210" width="301.6901367187502" height="30" as="geometry" />
        </mxCell>
        <mxCell id="ApsFlAxeWI4yGW2BCktG-65" style="shape=partialRectangle;html=1;whiteSpace=wrap;connectable=0;strokeColor=#EEEEEE;overflow=hidden;fillColor=none;top=0;left=0;bottom=0;right=0;pointerEvents=1;fontSize=12;labelBackgroundColor=none;fontColor=#000000;" parent="FbfgumM9k3iWBc4ifTP3-174" vertex="1">
          <mxGeometry width="37" height="30" as="geometry">
            <mxRectangle width="37" height="30" as="alternateBounds" />
          </mxGeometry>
        </mxCell>
        <mxCell id="FbfgumM9k3iWBc4ifTP3-176" value="Дата регистрации" style="shape=partialRectangle;html=1;whiteSpace=wrap;connectable=0;strokeColor=#EEEEEE;overflow=hidden;fillColor=none;top=0;left=0;bottom=0;right=0;pointerEvents=1;fontSize=12;labelBackgroundColor=none;fontColor=#000000;" parent="FbfgumM9k3iWBc4ifTP3-174" vertex="1">
          <mxGeometry x="37" width="140" height="30" as="geometry">
            <mxRectangle width="140" height="30" as="alternateBounds" />
          </mxGeometry>
        </mxCell>
        <mxCell id="FbfgumM9k3iWBc4ifTP3-177" value="DATE" style="shape=partialRectangle;html=1;whiteSpace=wrap;connectable=0;strokeColor=#EEEEEE;overflow=hidden;fillColor=none;top=0;left=0;bottom=0;right=0;pointerEvents=1;fontSize=12;labelBackgroundColor=none;fontColor=#000000;" parent="FbfgumM9k3iWBc4ifTP3-174" vertex="1">
          <mxGeometry x="177" width="125" height="30" as="geometry">
            <mxRectangle width="125" height="30" as="alternateBounds" />
          </mxGeometry>
        </mxCell>
        <mxCell id="FbfgumM9k3iWBc4ifTP3-183" value="Банковская карта" style="shape=table;startSize=32;container=1;collapsible=0;childLayout=tableLayout;strokeColor=#000000;fontSize=14;labelBackgroundColor=none;fillColor=#56517E;fontColor=#FFFFFF;" parent="1" vertex="1">
          <mxGeometry x="1097" y="1232" width="282.97507152068306" height="180" as="geometry" />
        </mxCell>
        <mxCell id="FbfgumM9k3iWBc4ifTP3-184" value="" style="shape=tableRow;horizontal=0;startSize=0;swimlaneHead=0;swimlaneBody=0;strokeColor=#EEEEEE;top=0;left=0;bottom=0;right=0;collapsible=0;dropTarget=0;fillColor=none;points=[[0,0.5],[1,0.5]];portConstraint=eastwest;fontSize=16;labelBackgroundColor=none;fontColor=#000000;" parent="FbfgumM9k3iWBc4ifTP3-183" vertex="1">
          <mxGeometry y="32" width="282.97507152068306" height="30" as="geometry" />
        </mxCell>
        <mxCell id="ApsFlAxeWI4yGW2BCktG-54" style="shape=partialRectangle;html=1;whiteSpace=wrap;connectable=0;strokeColor=#EEEEEE;overflow=hidden;fillColor=none;top=0;left=0;bottom=0;right=0;pointerEvents=1;fontSize=12;labelBackgroundColor=none;fontColor=#000000;" parent="FbfgumM9k3iWBc4ifTP3-184" vertex="1">
          <mxGeometry width="43" height="30" as="geometry">
            <mxRectangle width="43" height="30" as="alternateBounds" />
          </mxGeometry>
        </mxCell>
        <mxCell id="FbfgumM9k3iWBc4ifTP3-186" value="Номер карты" style="shape=partialRectangle;html=1;whiteSpace=wrap;connectable=0;strokeColor=#EEEEEE;overflow=hidden;fillColor=none;top=0;left=0;bottom=0;right=0;pointerEvents=1;fontSize=12;labelBackgroundColor=none;fontColor=#000000;" parent="FbfgumM9k3iWBc4ifTP3-184" vertex="1">
          <mxGeometry x="43" width="124" height="30" as="geometry">
            <mxRectangle width="124" height="30" as="alternateBounds" />
          </mxGeometry>
        </mxCell>
        <mxCell id="FbfgumM9k3iWBc4ifTP3-187" value="VARCHAR(16)" style="shape=partialRectangle;html=1;whiteSpace=wrap;connectable=0;strokeColor=#EEEEEE;overflow=hidden;fillColor=none;top=0;left=0;bottom=0;right=0;pointerEvents=1;fontSize=12;labelBackgroundColor=none;fontColor=#000000;" parent="FbfgumM9k3iWBc4ifTP3-184" vertex="1">
          <mxGeometry x="167" width="116" height="30" as="geometry">
            <mxRectangle width="116" height="30" as="alternateBounds" />
          </mxGeometry>
        </mxCell>
        <mxCell id="FbfgumM9k3iWBc4ifTP3-188" value="" style="shape=tableRow;horizontal=0;startSize=0;swimlaneHead=0;swimlaneBody=0;strokeColor=#EEEEEE;top=0;left=0;bottom=0;right=0;collapsible=0;dropTarget=0;fillColor=none;points=[[0,0.5],[1,0.5]];portConstraint=eastwest;fontSize=16;labelBackgroundColor=none;fontColor=#000000;" parent="FbfgumM9k3iWBc4ifTP3-183" vertex="1">
          <mxGeometry y="62" width="282.97507152068306" height="29" as="geometry" />
        </mxCell>
        <mxCell id="ApsFlAxeWI4yGW2BCktG-55" style="shape=partialRectangle;html=1;whiteSpace=wrap;connectable=0;strokeColor=#EEEEEE;overflow=hidden;fillColor=none;top=0;left=0;bottom=0;right=0;pointerEvents=1;fontSize=12;labelBackgroundColor=none;fontColor=#000000;" parent="FbfgumM9k3iWBc4ifTP3-188" vertex="1">
          <mxGeometry width="43" height="29" as="geometry">
            <mxRectangle width="43" height="29" as="alternateBounds" />
          </mxGeometry>
        </mxCell>
        <mxCell id="FbfgumM9k3iWBc4ifTP3-190" value="Имя владельца" style="shape=partialRectangle;html=1;whiteSpace=wrap;connectable=0;strokeColor=#EEEEEE;overflow=hidden;fillColor=none;top=0;left=0;bottom=0;right=0;pointerEvents=1;fontSize=12;labelBackgroundColor=none;fontColor=#000000;" parent="FbfgumM9k3iWBc4ifTP3-188" vertex="1">
          <mxGeometry x="43" width="124" height="29" as="geometry">
            <mxRectangle width="124" height="29" as="alternateBounds" />
          </mxGeometry>
        </mxCell>
        <mxCell id="FbfgumM9k3iWBc4ifTP3-191" value="&lt;span style=&quot;font-family: Helvetica; font-size: 12px; font-style: normal; font-variant-ligatures: normal; font-variant-caps: normal; font-weight: 400; letter-spacing: normal; orphans: 2; text-align: center; text-indent: 0px; text-transform: none; widows: 2; word-spacing: 0px; -webkit-text-stroke-width: 0px; text-decoration-thickness: initial; text-decoration-style: initial; text-decoration-color: initial; float: none; display: inline !important;&quot;&gt;VARCHAR(255)&lt;br&gt;&lt;/span&gt;" style="shape=partialRectangle;html=1;whiteSpace=wrap;connectable=0;strokeColor=#EEEEEE;overflow=hidden;fillColor=none;top=0;left=0;bottom=0;right=0;pointerEvents=1;fontSize=12;labelBackgroundColor=none;fontColor=#000000;" parent="FbfgumM9k3iWBc4ifTP3-188" vertex="1">
          <mxGeometry x="167" width="116" height="29" as="geometry">
            <mxRectangle width="116" height="29" as="alternateBounds" />
          </mxGeometry>
        </mxCell>
        <mxCell id="FbfgumM9k3iWBc4ifTP3-192" value="" style="shape=tableRow;horizontal=0;startSize=0;swimlaneHead=0;swimlaneBody=0;strokeColor=#EEEEEE;top=0;left=0;bottom=0;right=0;collapsible=0;dropTarget=0;fillColor=none;points=[[0,0.5],[1,0.5]];portConstraint=eastwest;fontSize=16;labelBackgroundColor=none;fontColor=#000000;" parent="FbfgumM9k3iWBc4ifTP3-183" vertex="1">
          <mxGeometry y="91" width="282.97507152068306" height="30" as="geometry" />
        </mxCell>
        <mxCell id="ApsFlAxeWI4yGW2BCktG-56" style="shape=partialRectangle;html=1;whiteSpace=wrap;connectable=0;strokeColor=#EEEEEE;overflow=hidden;fillColor=none;top=0;left=0;bottom=0;right=0;pointerEvents=1;fontSize=12;labelBackgroundColor=none;fontColor=#000000;" parent="FbfgumM9k3iWBc4ifTP3-192" vertex="1">
          <mxGeometry width="43" height="30" as="geometry">
            <mxRectangle width="43" height="30" as="alternateBounds" />
          </mxGeometry>
        </mxCell>
        <mxCell id="FbfgumM9k3iWBc4ifTP3-194" value="Проверочный код" style="shape=partialRectangle;html=1;whiteSpace=wrap;connectable=0;strokeColor=#EEEEEE;overflow=hidden;fillColor=none;top=0;left=0;bottom=0;right=0;pointerEvents=1;fontSize=12;labelBackgroundColor=none;fontColor=#000000;" parent="FbfgumM9k3iWBc4ifTP3-192" vertex="1">
          <mxGeometry x="43" width="124" height="30" as="geometry">
            <mxRectangle width="124" height="30" as="alternateBounds" />
          </mxGeometry>
        </mxCell>
        <mxCell id="FbfgumM9k3iWBc4ifTP3-195" value="VARCHAR(3)" style="shape=partialRectangle;html=1;whiteSpace=wrap;connectable=0;strokeColor=#EEEEEE;overflow=hidden;fillColor=none;top=0;left=0;bottom=0;right=0;pointerEvents=1;fontSize=12;labelBackgroundColor=none;fontColor=#000000;" parent="FbfgumM9k3iWBc4ifTP3-192" vertex="1">
          <mxGeometry x="167" width="116" height="30" as="geometry">
            <mxRectangle width="116" height="30" as="alternateBounds" />
          </mxGeometry>
        </mxCell>
        <mxCell id="FbfgumM9k3iWBc4ifTP3-196" style="shape=tableRow;horizontal=0;startSize=0;swimlaneHead=0;swimlaneBody=0;strokeColor=#EEEEEE;top=0;left=0;bottom=0;right=0;collapsible=0;dropTarget=0;fillColor=none;points=[[0,0.5],[1,0.5]];portConstraint=eastwest;fontSize=16;labelBackgroundColor=none;fontColor=#000000;" parent="FbfgumM9k3iWBc4ifTP3-183" vertex="1">
          <mxGeometry y="121" width="282.97507152068306" height="29" as="geometry" />
        </mxCell>
        <mxCell id="ApsFlAxeWI4yGW2BCktG-57" style="shape=partialRectangle;html=1;whiteSpace=wrap;connectable=0;strokeColor=#EEEEEE;overflow=hidden;fillColor=none;top=0;left=0;bottom=0;right=0;pointerEvents=1;fontSize=12;labelBackgroundColor=none;fontColor=#000000;" parent="FbfgumM9k3iWBc4ifTP3-196" vertex="1">
          <mxGeometry width="43" height="29" as="geometry">
            <mxRectangle width="43" height="29" as="alternateBounds" />
          </mxGeometry>
        </mxCell>
        <mxCell id="FbfgumM9k3iWBc4ifTP3-198" value="Срок истечения" style="shape=partialRectangle;html=1;whiteSpace=wrap;connectable=0;strokeColor=#EEEEEE;overflow=hidden;fillColor=none;top=0;left=0;bottom=0;right=0;pointerEvents=1;fontSize=12;labelBackgroundColor=none;fontColor=#000000;" parent="FbfgumM9k3iWBc4ifTP3-196" vertex="1">
          <mxGeometry x="43" width="124" height="29" as="geometry">
            <mxRectangle width="124" height="29" as="alternateBounds" />
          </mxGeometry>
        </mxCell>
        <mxCell id="FbfgumM9k3iWBc4ifTP3-199" value="DATE" style="shape=partialRectangle;html=1;whiteSpace=wrap;connectable=0;strokeColor=#EEEEEE;overflow=hidden;fillColor=none;top=0;left=0;bottom=0;right=0;pointerEvents=1;fontSize=12;labelBackgroundColor=none;fontColor=#000000;" parent="FbfgumM9k3iWBc4ifTP3-196" vertex="1">
          <mxGeometry x="167" width="116" height="29" as="geometry">
            <mxRectangle width="116" height="29" as="alternateBounds" />
          </mxGeometry>
        </mxCell>
        <mxCell id="FbfgumM9k3iWBc4ifTP3-200" style="shape=tableRow;horizontal=0;startSize=0;swimlaneHead=0;swimlaneBody=0;strokeColor=#EEEEEE;top=0;left=0;bottom=0;right=0;collapsible=0;dropTarget=0;fillColor=none;points=[[0,0.5],[1,0.5]];portConstraint=eastwest;fontSize=16;labelBackgroundColor=none;fontColor=#000000;" parent="FbfgumM9k3iWBc4ifTP3-183" vertex="1">
          <mxGeometry y="150" width="282.97507152068306" height="30" as="geometry" />
        </mxCell>
        <mxCell id="ApsFlAxeWI4yGW2BCktG-58" value="FK, PK" style="shape=partialRectangle;html=1;whiteSpace=wrap;connectable=0;strokeColor=#EEEEEE;overflow=hidden;fillColor=none;top=0;left=0;bottom=0;right=0;pointerEvents=1;fontSize=12;labelBackgroundColor=none;fontColor=#000000;" parent="FbfgumM9k3iWBc4ifTP3-200" vertex="1">
          <mxGeometry width="43" height="30" as="geometry">
            <mxRectangle width="43" height="30" as="alternateBounds" />
          </mxGeometry>
        </mxCell>
        <mxCell id="FbfgumM9k3iWBc4ifTP3-202" value="Логин" style="shape=partialRectangle;html=1;whiteSpace=wrap;connectable=0;strokeColor=#EEEEEE;overflow=hidden;fillColor=none;top=0;left=0;bottom=0;right=0;pointerEvents=1;fontSize=12;labelBackgroundColor=none;fontColor=#000000;" parent="FbfgumM9k3iWBc4ifTP3-200" vertex="1">
          <mxGeometry x="43" width="124" height="30" as="geometry">
            <mxRectangle width="124" height="30" as="alternateBounds" />
          </mxGeometry>
        </mxCell>
        <mxCell id="FbfgumM9k3iWBc4ifTP3-203" value="INT" style="shape=partialRectangle;html=1;whiteSpace=wrap;connectable=0;strokeColor=#EEEEEE;overflow=hidden;fillColor=none;top=0;left=0;bottom=0;right=0;pointerEvents=1;fontSize=12;labelBackgroundColor=none;fontColor=#000000;" parent="FbfgumM9k3iWBc4ifTP3-200" vertex="1">
          <mxGeometry x="167" width="116" height="30" as="geometry">
            <mxRectangle width="116" height="30" as="alternateBounds" />
          </mxGeometry>
        </mxCell>
        <mxCell id="FbfgumM9k3iWBc4ifTP3-220" value="Доставка" style="shape=table;startSize=30;container=1;collapsible=0;childLayout=tableLayout;strokeColor=#000000;fontSize=14;labelBackgroundColor=none;fillColor=#56517E;fontColor=#FFFFFF;" parent="1" vertex="1">
          <mxGeometry x="1040" y="401" width="357.6328890782713" height="330.0689613079203" as="geometry" />
        </mxCell>
        <mxCell id="FbfgumM9k3iWBc4ifTP3-221" value="" style="shape=tableRow;horizontal=0;startSize=0;swimlaneHead=0;swimlaneBody=0;strokeColor=#EEEEEE;top=0;left=0;bottom=0;right=0;collapsible=0;dropTarget=0;fillColor=none;points=[[0,0.5],[1,0.5]];portConstraint=eastwest;fontSize=16;labelBackgroundColor=none;fontColor=#000000;" parent="FbfgumM9k3iWBc4ifTP3-220" vertex="1">
          <mxGeometry y="30" width="357.6328890782713" height="30" as="geometry" />
        </mxCell>
        <mxCell id="ApsFlAxeWI4yGW2BCktG-95" value="FK, PK" style="shape=partialRectangle;html=1;whiteSpace=wrap;connectable=0;strokeColor=#EEEEEE;overflow=hidden;fillColor=none;top=0;left=0;bottom=0;right=0;pointerEvents=1;fontSize=12;labelBackgroundColor=none;fontColor=#000000;" parent="FbfgumM9k3iWBc4ifTP3-221" vertex="1">
          <mxGeometry width="52" height="30" as="geometry">
            <mxRectangle width="52" height="30" as="alternateBounds" />
          </mxGeometry>
        </mxCell>
        <mxCell id="FbfgumM9k3iWBc4ifTP3-223" value="Номер заказа" style="shape=partialRectangle;html=1;whiteSpace=wrap;connectable=0;strokeColor=#EEEEEE;overflow=hidden;fillColor=none;top=0;left=0;bottom=0;right=0;pointerEvents=1;fontSize=12;labelBackgroundColor=none;fontColor=#000000;" parent="FbfgumM9k3iWBc4ifTP3-221" vertex="1">
          <mxGeometry x="52" width="183" height="30" as="geometry">
            <mxRectangle width="183" height="30" as="alternateBounds" />
          </mxGeometry>
        </mxCell>
        <mxCell id="FbfgumM9k3iWBc4ifTP3-224" value="INT" style="shape=partialRectangle;html=1;whiteSpace=wrap;connectable=0;strokeColor=#EEEEEE;overflow=hidden;fillColor=none;top=0;left=0;bottom=0;right=0;pointerEvents=1;fontSize=12;labelBackgroundColor=none;fontColor=#000000;" parent="FbfgumM9k3iWBc4ifTP3-221" vertex="1">
          <mxGeometry x="235" width="123" height="30" as="geometry">
            <mxRectangle width="123" height="30" as="alternateBounds" />
          </mxGeometry>
        </mxCell>
        <mxCell id="FbfgumM9k3iWBc4ifTP3-225" value="" style="shape=tableRow;horizontal=0;startSize=0;swimlaneHead=0;swimlaneBody=0;strokeColor=#EEEEEE;top=0;left=0;bottom=0;right=0;collapsible=0;dropTarget=0;fillColor=none;points=[[0,0.5],[1,0.5]];portConstraint=eastwest;fontSize=16;labelBackgroundColor=none;fontColor=#000000;" parent="FbfgumM9k3iWBc4ifTP3-220" vertex="1">
          <mxGeometry y="60" width="357.6328890782713" height="30" as="geometry" />
        </mxCell>
        <mxCell id="ApsFlAxeWI4yGW2BCktG-96" style="shape=partialRectangle;html=1;whiteSpace=wrap;connectable=0;strokeColor=#000000;overflow=hidden;fillColor=none;top=0;left=0;bottom=0;right=0;pointerEvents=1;fontSize=12;labelBackgroundColor=none;fontColor=#000000;" parent="FbfgumM9k3iWBc4ifTP3-225" vertex="1">
          <mxGeometry width="52" height="30" as="geometry">
            <mxRectangle width="52" height="30" as="alternateBounds" />
          </mxGeometry>
        </mxCell>
        <mxCell id="FbfgumM9k3iWBc4ifTP3-227" value="Суммарный вес заказа" style="shape=partialRectangle;html=1;whiteSpace=wrap;connectable=0;strokeColor=#EEEEEE;overflow=hidden;fillColor=none;top=0;left=0;bottom=0;right=0;pointerEvents=1;fontSize=12;labelBackgroundColor=none;fontColor=#000000;" parent="FbfgumM9k3iWBc4ifTP3-225" vertex="1">
          <mxGeometry x="52" width="183" height="30" as="geometry">
            <mxRectangle width="183" height="30" as="alternateBounds" />
          </mxGeometry>
        </mxCell>
        <mxCell id="FbfgumM9k3iWBc4ifTP3-228" value="DECIMAL(10,2)" style="shape=partialRectangle;html=1;whiteSpace=wrap;connectable=0;strokeColor=#EEEEEE;overflow=hidden;fillColor=none;top=0;left=0;bottom=0;right=0;pointerEvents=1;fontSize=12;labelBackgroundColor=none;fontColor=#000000;" parent="FbfgumM9k3iWBc4ifTP3-225" vertex="1">
          <mxGeometry x="235" width="123" height="30" as="geometry">
            <mxRectangle width="123" height="30" as="alternateBounds" />
          </mxGeometry>
        </mxCell>
        <mxCell id="FbfgumM9k3iWBc4ifTP3-229" value="" style="shape=tableRow;horizontal=0;startSize=0;swimlaneHead=0;swimlaneBody=0;strokeColor=#EEEEEE;top=0;left=0;bottom=0;right=0;collapsible=0;dropTarget=0;fillColor=none;points=[[0,0.5],[1,0.5]];portConstraint=eastwest;fontSize=16;labelBackgroundColor=none;fontColor=#000000;" parent="FbfgumM9k3iWBc4ifTP3-220" vertex="1">
          <mxGeometry y="90" width="357.6328890782713" height="30" as="geometry" />
        </mxCell>
        <mxCell id="ApsFlAxeWI4yGW2BCktG-97" style="shape=partialRectangle;html=1;whiteSpace=wrap;connectable=0;strokeColor=#EEEEEE;overflow=hidden;fillColor=none;top=0;left=0;bottom=0;right=0;pointerEvents=1;fontSize=12;labelBackgroundColor=none;fontColor=#000000;" parent="FbfgumM9k3iWBc4ifTP3-229" vertex="1">
          <mxGeometry width="52" height="30" as="geometry">
            <mxRectangle width="52" height="30" as="alternateBounds" />
          </mxGeometry>
        </mxCell>
        <mxCell id="FbfgumM9k3iWBc4ifTP3-231" value="Суммарный объем заказа" style="shape=partialRectangle;html=1;whiteSpace=wrap;connectable=0;strokeColor=#EEEEEE;overflow=hidden;fillColor=none;top=0;left=0;bottom=0;right=0;pointerEvents=1;fontSize=12;labelBackgroundColor=none;fontColor=#000000;" parent="FbfgumM9k3iWBc4ifTP3-229" vertex="1">
          <mxGeometry x="52" width="183" height="30" as="geometry">
            <mxRectangle width="183" height="30" as="alternateBounds" />
          </mxGeometry>
        </mxCell>
        <mxCell id="FbfgumM9k3iWBc4ifTP3-232" value="DECIMAL(10,2)" style="shape=partialRectangle;html=1;whiteSpace=wrap;connectable=0;strokeColor=#EEEEEE;overflow=hidden;fillColor=none;top=0;left=0;bottom=0;right=0;pointerEvents=1;fontSize=12;labelBackgroundColor=none;fontColor=#000000;" parent="FbfgumM9k3iWBc4ifTP3-229" vertex="1">
          <mxGeometry x="235" width="123" height="30" as="geometry">
            <mxRectangle width="123" height="30" as="alternateBounds" />
          </mxGeometry>
        </mxCell>
        <mxCell id="FbfgumM9k3iWBc4ifTP3-233" style="shape=tableRow;horizontal=0;startSize=0;swimlaneHead=0;swimlaneBody=0;strokeColor=#EEEEEE;top=0;left=0;bottom=0;right=0;collapsible=0;dropTarget=0;fillColor=none;points=[[0,0.5],[1,0.5]];portConstraint=eastwest;fontSize=16;labelBackgroundColor=none;fontColor=#000000;" parent="FbfgumM9k3iWBc4ifTP3-220" vertex="1">
          <mxGeometry y="120" width="357.6328890782713" height="30" as="geometry" />
        </mxCell>
        <mxCell id="ApsFlAxeWI4yGW2BCktG-98" style="shape=partialRectangle;html=1;whiteSpace=wrap;connectable=0;strokeColor=#000000;overflow=hidden;fillColor=none;top=0;left=0;bottom=0;right=0;pointerEvents=1;fontSize=12;labelBackgroundColor=none;fontColor=#000000;" parent="FbfgumM9k3iWBc4ifTP3-233" vertex="1">
          <mxGeometry width="52" height="30" as="geometry">
            <mxRectangle width="52" height="30" as="alternateBounds" />
          </mxGeometry>
        </mxCell>
        <mxCell id="FbfgumM9k3iWBc4ifTP3-235" value="Дата доставки" style="shape=partialRectangle;html=1;whiteSpace=wrap;connectable=0;strokeColor=#EEEEEE;overflow=hidden;fillColor=none;top=0;left=0;bottom=0;right=0;pointerEvents=1;fontSize=12;labelBackgroundColor=none;fontColor=#000000;" parent="FbfgumM9k3iWBc4ifTP3-233" vertex="1">
          <mxGeometry x="52" width="183" height="30" as="geometry">
            <mxRectangle width="183" height="30" as="alternateBounds" />
          </mxGeometry>
        </mxCell>
        <mxCell id="FbfgumM9k3iWBc4ifTP3-236" value="DATE" style="shape=partialRectangle;html=1;whiteSpace=wrap;connectable=0;strokeColor=#EEEEEE;overflow=hidden;fillColor=none;top=0;left=0;bottom=0;right=0;pointerEvents=1;fontSize=12;labelBackgroundColor=none;fontColor=#000000;" parent="FbfgumM9k3iWBc4ifTP3-233" vertex="1">
          <mxGeometry x="235" width="123" height="30" as="geometry">
            <mxRectangle width="123" height="30" as="alternateBounds" />
          </mxGeometry>
        </mxCell>
        <mxCell id="FbfgumM9k3iWBc4ifTP3-237" style="shape=tableRow;horizontal=0;startSize=0;swimlaneHead=0;swimlaneBody=0;strokeColor=#EEEEEE;top=0;left=0;bottom=0;right=0;collapsible=0;dropTarget=0;fillColor=none;points=[[0,0.5],[1,0.5]];portConstraint=eastwest;fontSize=16;labelBackgroundColor=none;fontColor=#000000;" parent="FbfgumM9k3iWBc4ifTP3-220" vertex="1">
          <mxGeometry y="150" width="357.6328890782713" height="30" as="geometry" />
        </mxCell>
        <mxCell id="ApsFlAxeWI4yGW2BCktG-99" style="shape=partialRectangle;html=1;whiteSpace=wrap;connectable=0;strokeColor=#EEEEEE;overflow=hidden;fillColor=none;top=0;left=0;bottom=0;right=0;pointerEvents=1;fontSize=12;labelBackgroundColor=none;fontColor=#000000;" parent="FbfgumM9k3iWBc4ifTP3-237" vertex="1">
          <mxGeometry width="52" height="30" as="geometry">
            <mxRectangle width="52" height="30" as="alternateBounds" />
          </mxGeometry>
        </mxCell>
        <mxCell id="FbfgumM9k3iWBc4ifTP3-239" value="Время доставки" style="shape=partialRectangle;html=1;whiteSpace=wrap;connectable=0;strokeColor=#000000;overflow=hidden;fillColor=none;top=0;left=0;bottom=0;right=0;pointerEvents=1;fontSize=12;labelBackgroundColor=none;fontColor=#000000;" parent="FbfgumM9k3iWBc4ifTP3-237" vertex="1">
          <mxGeometry x="52" width="183" height="30" as="geometry">
            <mxRectangle width="183" height="30" as="alternateBounds" />
          </mxGeometry>
        </mxCell>
        <mxCell id="FbfgumM9k3iWBc4ifTP3-240" value="TIME" style="shape=partialRectangle;html=1;whiteSpace=wrap;connectable=0;strokeColor=#EEEEEE;overflow=hidden;fillColor=none;top=0;left=0;bottom=0;right=0;pointerEvents=1;fontSize=12;labelBackgroundColor=none;fontColor=#000000;" parent="FbfgumM9k3iWBc4ifTP3-237" vertex="1">
          <mxGeometry x="235" width="123" height="30" as="geometry">
            <mxRectangle width="123" height="30" as="alternateBounds" />
          </mxGeometry>
        </mxCell>
        <mxCell id="ApsFlAxeWI4yGW2BCktG-111" style="shape=tableRow;horizontal=0;startSize=0;swimlaneHead=0;swimlaneBody=0;strokeColor=#EEEEEE;top=0;left=0;bottom=0;right=0;collapsible=0;dropTarget=0;fillColor=none;points=[[0,0.5],[1,0.5]];portConstraint=eastwest;fontSize=16;labelBackgroundColor=none;fontColor=#000000;" parent="FbfgumM9k3iWBc4ifTP3-220" vertex="1">
          <mxGeometry y="180" width="357.6328890782713" height="30" as="geometry" />
        </mxCell>
        <mxCell id="ApsFlAxeWI4yGW2BCktG-112" style="shape=partialRectangle;html=1;whiteSpace=wrap;connectable=0;strokeColor=#EEEEEE;overflow=hidden;fillColor=none;top=0;left=0;bottom=0;right=0;pointerEvents=1;fontSize=12;labelBackgroundColor=none;fontColor=#000000;" parent="ApsFlAxeWI4yGW2BCktG-111" vertex="1">
          <mxGeometry width="52" height="30" as="geometry">
            <mxRectangle width="52" height="30" as="alternateBounds" />
          </mxGeometry>
        </mxCell>
        <mxCell id="ApsFlAxeWI4yGW2BCktG-113" value="Адрес" style="shape=partialRectangle;html=1;whiteSpace=wrap;connectable=0;strokeColor=#EEEEEE;overflow=hidden;fillColor=none;top=0;left=0;bottom=0;right=0;pointerEvents=1;fontSize=12;labelBackgroundColor=none;fontColor=#000000;" parent="ApsFlAxeWI4yGW2BCktG-111" vertex="1">
          <mxGeometry x="52" width="183" height="30" as="geometry">
            <mxRectangle width="183" height="30" as="alternateBounds" />
          </mxGeometry>
        </mxCell>
        <mxCell id="ApsFlAxeWI4yGW2BCktG-114" value="VARCHAR(50)" style="shape=partialRectangle;html=1;whiteSpace=wrap;connectable=0;strokeColor=#EEEEEE;overflow=hidden;fillColor=none;top=0;left=0;bottom=0;right=0;pointerEvents=1;fontSize=12;labelBackgroundColor=none;fontColor=#000000;" parent="ApsFlAxeWI4yGW2BCktG-111" vertex="1">
          <mxGeometry x="235" width="123" height="30" as="geometry">
            <mxRectangle width="123" height="30" as="alternateBounds" />
          </mxGeometry>
        </mxCell>
        <mxCell id="FbfgumM9k3iWBc4ifTP3-245" style="shape=tableRow;horizontal=0;startSize=0;swimlaneHead=0;swimlaneBody=0;strokeColor=#EEEEEE;top=0;left=0;bottom=0;right=0;collapsible=0;dropTarget=0;fillColor=none;points=[[0,0.5],[1,0.5]];portConstraint=eastwest;fontSize=16;labelBackgroundColor=none;fontColor=#000000;" parent="FbfgumM9k3iWBc4ifTP3-220" vertex="1">
          <mxGeometry y="210" width="357.6328890782713" height="30" as="geometry" />
        </mxCell>
        <mxCell id="ApsFlAxeWI4yGW2BCktG-101" style="shape=partialRectangle;html=1;whiteSpace=wrap;connectable=0;strokeColor=#EEEEEE;overflow=hidden;fillColor=none;top=0;left=0;bottom=0;right=0;pointerEvents=1;fontSize=12;labelBackgroundColor=none;fontColor=#000000;" parent="FbfgumM9k3iWBc4ifTP3-245" vertex="1">
          <mxGeometry width="52" height="30" as="geometry">
            <mxRectangle width="52" height="30" as="alternateBounds" />
          </mxGeometry>
        </mxCell>
        <mxCell id="FbfgumM9k3iWBc4ifTP3-247" value="Стоимость доставки" style="shape=partialRectangle;html=1;whiteSpace=wrap;connectable=0;strokeColor=#EEEEEE;overflow=hidden;fillColor=none;top=0;left=0;bottom=0;right=0;pointerEvents=1;fontSize=12;labelBackgroundColor=none;fontColor=#000000;" parent="FbfgumM9k3iWBc4ifTP3-245" vertex="1">
          <mxGeometry x="52" width="183" height="30" as="geometry">
            <mxRectangle width="183" height="30" as="alternateBounds" />
          </mxGeometry>
        </mxCell>
        <mxCell id="FbfgumM9k3iWBc4ifTP3-248" value="DECIMAL(10,2)" style="shape=partialRectangle;html=1;whiteSpace=wrap;connectable=0;strokeColor=#EEEEEE;overflow=hidden;fillColor=none;top=0;left=0;bottom=0;right=0;pointerEvents=1;fontSize=12;labelBackgroundColor=none;fontColor=#000000;" parent="FbfgumM9k3iWBc4ifTP3-245" vertex="1">
          <mxGeometry x="235" width="123" height="30" as="geometry">
            <mxRectangle width="123" height="30" as="alternateBounds" />
          </mxGeometry>
        </mxCell>
        <mxCell id="FbfgumM9k3iWBc4ifTP3-249" style="shape=tableRow;horizontal=0;startSize=0;swimlaneHead=0;swimlaneBody=0;strokeColor=#EEEEEE;top=0;left=0;bottom=0;right=0;collapsible=0;dropTarget=0;fillColor=none;points=[[0,0.5],[1,0.5]];portConstraint=eastwest;fontSize=16;labelBackgroundColor=none;fontColor=#000000;" parent="FbfgumM9k3iWBc4ifTP3-220" vertex="1">
          <mxGeometry y="240" width="357.6328890782713" height="30" as="geometry" />
        </mxCell>
        <mxCell id="ApsFlAxeWI4yGW2BCktG-102" value="FK" style="shape=partialRectangle;html=1;whiteSpace=wrap;connectable=0;strokeColor=#EEEEEE;overflow=hidden;fillColor=none;top=0;left=0;bottom=0;right=0;pointerEvents=1;fontSize=12;labelBackgroundColor=none;fontColor=#000000;" parent="FbfgumM9k3iWBc4ifTP3-249" vertex="1">
          <mxGeometry width="52" height="30" as="geometry">
            <mxRectangle width="52" height="30" as="alternateBounds" />
          </mxGeometry>
        </mxCell>
        <mxCell id="FbfgumM9k3iWBc4ifTP3-251" value="Табельный номер" style="shape=partialRectangle;html=1;whiteSpace=wrap;connectable=0;strokeColor=#EEEEEE;overflow=hidden;fillColor=none;top=0;left=0;bottom=0;right=0;pointerEvents=1;fontSize=12;labelBackgroundColor=none;fontColor=#000000;" parent="FbfgumM9k3iWBc4ifTP3-249" vertex="1">
          <mxGeometry x="52" width="183" height="30" as="geometry">
            <mxRectangle width="183" height="30" as="alternateBounds" />
          </mxGeometry>
        </mxCell>
        <mxCell id="FbfgumM9k3iWBc4ifTP3-252" value="INT" style="shape=partialRectangle;html=1;whiteSpace=wrap;connectable=0;strokeColor=#EEEEEE;overflow=hidden;fillColor=none;top=0;left=0;bottom=0;right=0;pointerEvents=1;fontSize=12;labelBackgroundColor=none;fontColor=#000000;" parent="FbfgumM9k3iWBc4ifTP3-249" vertex="1">
          <mxGeometry x="235" width="123" height="30" as="geometry">
            <mxRectangle width="123" height="30" as="alternateBounds" />
          </mxGeometry>
        </mxCell>
        <mxCell id="FbfgumM9k3iWBc4ifTP3-253" style="shape=tableRow;horizontal=0;startSize=0;swimlaneHead=0;swimlaneBody=0;strokeColor=#EEEEEE;top=0;left=0;bottom=0;right=0;collapsible=0;dropTarget=0;fillColor=none;points=[[0,0.5],[1,0.5]];portConstraint=eastwest;fontSize=16;labelBackgroundColor=none;fontColor=#000000;" parent="FbfgumM9k3iWBc4ifTP3-220" vertex="1">
          <mxGeometry y="270" width="357.6328890782713" height="30" as="geometry" />
        </mxCell>
        <mxCell id="ApsFlAxeWI4yGW2BCktG-103" style="shape=partialRectangle;html=1;whiteSpace=wrap;connectable=0;strokeColor=#EEEEEE;overflow=hidden;fillColor=none;top=0;left=0;bottom=0;right=0;pointerEvents=1;fontSize=12;labelBackgroundColor=none;fontColor=#000000;" parent="FbfgumM9k3iWBc4ifTP3-253" vertex="1">
          <mxGeometry width="52" height="30" as="geometry">
            <mxRectangle width="52" height="30" as="alternateBounds" />
          </mxGeometry>
        </mxCell>
        <mxCell id="FbfgumM9k3iWBc4ifTP3-255" value="Статус доставки" style="shape=partialRectangle;html=1;whiteSpace=wrap;connectable=0;strokeColor=#EEEEEE;overflow=hidden;fillColor=none;top=0;left=0;bottom=0;right=0;pointerEvents=1;fontSize=12;labelBackgroundColor=none;fontColor=#000000;" parent="FbfgumM9k3iWBc4ifTP3-253" vertex="1">
          <mxGeometry x="52" width="183" height="30" as="geometry">
            <mxRectangle width="183" height="30" as="alternateBounds" />
          </mxGeometry>
        </mxCell>
        <mxCell id="FbfgumM9k3iWBc4ifTP3-256" value="ENUM" style="shape=partialRectangle;html=1;whiteSpace=wrap;connectable=0;strokeColor=#EEEEEE;overflow=hidden;fillColor=none;top=0;left=0;bottom=0;right=0;pointerEvents=1;fontSize=12;labelBackgroundColor=none;fontColor=#000000;" parent="FbfgumM9k3iWBc4ifTP3-253" vertex="1">
          <mxGeometry x="235" width="123" height="30" as="geometry">
            <mxRectangle width="123" height="30" as="alternateBounds" />
          </mxGeometry>
        </mxCell>
        <mxCell id="FbfgumM9k3iWBc4ifTP3-545" style="shape=tableRow;horizontal=0;startSize=0;swimlaneHead=0;swimlaneBody=0;strokeColor=#EEEEEE;top=0;left=0;bottom=0;right=0;collapsible=0;dropTarget=0;fillColor=none;points=[[0,0.5],[1,0.5]];portConstraint=eastwest;fontSize=16;labelBackgroundColor=none;fontColor=#000000;" parent="FbfgumM9k3iWBc4ifTP3-220" vertex="1">
          <mxGeometry y="300" width="357.6328890782713" height="30" as="geometry" />
        </mxCell>
        <mxCell id="ApsFlAxeWI4yGW2BCktG-104" style="shape=partialRectangle;html=1;whiteSpace=wrap;connectable=0;strokeColor=#EEEEEE;overflow=hidden;fillColor=none;top=0;left=0;bottom=0;right=0;pointerEvents=1;fontSize=12;labelBackgroundColor=none;fontColor=#000000;" parent="FbfgumM9k3iWBc4ifTP3-545" vertex="1">
          <mxGeometry width="52" height="30" as="geometry">
            <mxRectangle width="52" height="30" as="alternateBounds" />
          </mxGeometry>
        </mxCell>
        <mxCell id="FbfgumM9k3iWBc4ifTP3-547" value="Вид доставки" style="shape=partialRectangle;html=1;whiteSpace=wrap;connectable=0;strokeColor=#EEEEEE;overflow=hidden;fillColor=none;top=0;left=0;bottom=0;right=0;pointerEvents=1;fontSize=12;labelBackgroundColor=none;fontColor=#000000;" parent="FbfgumM9k3iWBc4ifTP3-545" vertex="1">
          <mxGeometry x="52" width="183" height="30" as="geometry">
            <mxRectangle width="183" height="30" as="alternateBounds" />
          </mxGeometry>
        </mxCell>
        <mxCell id="FbfgumM9k3iWBc4ifTP3-548" value="ENUM" style="shape=partialRectangle;html=1;whiteSpace=wrap;connectable=0;strokeColor=#EEEEEE;overflow=hidden;fillColor=none;top=0;left=0;bottom=0;right=0;pointerEvents=1;fontSize=12;labelBackgroundColor=none;fontColor=#000000;" parent="FbfgumM9k3iWBc4ifTP3-545" vertex="1">
          <mxGeometry x="235" width="123" height="30" as="geometry">
            <mxRectangle width="123" height="30" as="alternateBounds" />
          </mxGeometry>
        </mxCell>
        <mxCell id="FbfgumM9k3iWBc4ifTP3-257" value="Телефон покупателя" style="shape=table;startSize=30;container=1;collapsible=0;childLayout=tableLayout;fontSize=14;fillColor=#56517E;labelBackgroundColor=none;strokeColor=#000000;fontColor=#FFFFFF;" parent="1" vertex="1">
          <mxGeometry x="1885" y="925" width="218.0337306431361" height="90.5788959703948" as="geometry" />
        </mxCell>
        <mxCell id="FbfgumM9k3iWBc4ifTP3-258" value="" style="shape=tableRow;horizontal=0;startSize=0;swimlaneHead=0;swimlaneBody=0;strokeColor=#EEEEEE;top=0;left=0;bottom=0;right=0;collapsible=0;dropTarget=0;fillColor=none;points=[[0,0.5],[1,0.5]];portConstraint=eastwest;fontSize=16;labelBackgroundColor=none;fontColor=#000000;" parent="FbfgumM9k3iWBc4ifTP3-257" vertex="1">
          <mxGeometry y="30" width="218.0337306431361" height="31" as="geometry" />
        </mxCell>
        <mxCell id="ApsFlAxeWI4yGW2BCktG-66" value="PK" style="shape=partialRectangle;html=1;whiteSpace=wrap;connectable=0;strokeColor=#EEEEEE;overflow=hidden;fillColor=none;top=0;left=0;bottom=0;right=0;pointerEvents=1;fontSize=12;labelBackgroundColor=none;fontColor=#000000;" parent="FbfgumM9k3iWBc4ifTP3-258" vertex="1">
          <mxGeometry width="48" height="31" as="geometry">
            <mxRectangle width="48" height="31" as="alternateBounds" />
          </mxGeometry>
        </mxCell>
        <mxCell id="FbfgumM9k3iWBc4ifTP3-260" value="Телефон" style="shape=partialRectangle;html=1;whiteSpace=wrap;connectable=0;strokeColor=#EEEEEE;overflow=hidden;fillColor=none;top=0;left=0;bottom=0;right=0;pointerEvents=1;fontSize=12;labelBackgroundColor=none;fontColor=#000000;" parent="FbfgumM9k3iWBc4ifTP3-258" vertex="1">
          <mxGeometry x="48" width="76" height="31" as="geometry">
            <mxRectangle width="76" height="31" as="alternateBounds" />
          </mxGeometry>
        </mxCell>
        <mxCell id="FbfgumM9k3iWBc4ifTP3-261" value="VARCHAR(30)" style="shape=partialRectangle;html=1;whiteSpace=wrap;connectable=0;strokeColor=#EEEEEE;overflow=hidden;fillColor=none;top=0;left=0;bottom=0;right=0;pointerEvents=1;fontSize=12;labelBackgroundColor=none;fontColor=#000000;" parent="FbfgumM9k3iWBc4ifTP3-258" vertex="1">
          <mxGeometry x="124" width="94" height="31" as="geometry">
            <mxRectangle width="94" height="31" as="alternateBounds" />
          </mxGeometry>
        </mxCell>
        <mxCell id="FbfgumM9k3iWBc4ifTP3-262" value="" style="shape=tableRow;horizontal=0;startSize=0;swimlaneHead=0;swimlaneBody=0;strokeColor=#EEEEEE;top=0;left=0;bottom=0;right=0;collapsible=0;dropTarget=0;fillColor=none;points=[[0,0.5],[1,0.5]];portConstraint=eastwest;fontSize=16;labelBackgroundColor=none;fontColor=#000000;" parent="FbfgumM9k3iWBc4ifTP3-257" vertex="1">
          <mxGeometry y="61" width="218.0337306431361" height="30" as="geometry" />
        </mxCell>
        <mxCell id="ApsFlAxeWI4yGW2BCktG-67" value="FK, PK" style="shape=partialRectangle;html=1;whiteSpace=wrap;connectable=0;strokeColor=#EEEEEE;overflow=hidden;fillColor=none;top=0;left=0;bottom=0;right=0;pointerEvents=1;fontSize=12;labelBackgroundColor=none;fontColor=#000000;" parent="FbfgumM9k3iWBc4ifTP3-262" vertex="1">
          <mxGeometry width="48" height="30" as="geometry">
            <mxRectangle width="48" height="30" as="alternateBounds" />
          </mxGeometry>
        </mxCell>
        <mxCell id="FbfgumM9k3iWBc4ifTP3-264" value="Логин" style="shape=partialRectangle;html=1;whiteSpace=wrap;connectable=0;strokeColor=#EEEEEE;overflow=hidden;fillColor=none;top=0;left=0;bottom=0;right=0;pointerEvents=1;fontSize=12;labelBackgroundColor=none;fontColor=#000000;" parent="FbfgumM9k3iWBc4ifTP3-262" vertex="1">
          <mxGeometry x="48" width="76" height="30" as="geometry">
            <mxRectangle width="76" height="30" as="alternateBounds" />
          </mxGeometry>
        </mxCell>
        <mxCell id="FbfgumM9k3iWBc4ifTP3-265" value="INT" style="shape=partialRectangle;html=1;whiteSpace=wrap;connectable=0;strokeColor=#EEEEEE;overflow=hidden;fillColor=none;top=0;left=0;bottom=0;right=0;pointerEvents=1;fontSize=12;labelBackgroundColor=none;fontColor=#000000;" parent="FbfgumM9k3iWBc4ifTP3-262" vertex="1">
          <mxGeometry x="124" width="94" height="30" as="geometry">
            <mxRectangle width="94" height="30" as="alternateBounds" />
          </mxGeometry>
        </mxCell>
        <mxCell id="FbfgumM9k3iWBc4ifTP3-310" value="" style="shape=singleArrow;whiteSpace=wrap;html=1;arrowWidth=0.4;arrowSize=0.4;fontSize=14;startSize=30;labelBackgroundColor=none;fillColor=#56517E;strokeColor=#EEEEEE;fontColor=#000000;" parent="FbfgumM9k3iWBc4ifTP3-262" vertex="1">
          <mxGeometry x="218" width="NaN" height="30" as="geometry">
            <mxRectangle width="NaN" height="30" as="alternateBounds" />
          </mxGeometry>
        </mxCell>
        <mxCell id="FbfgumM9k3iWBc4ifTP3-270" value="Заказ" style="shape=table;startSize=30;container=1;collapsible=0;childLayout=tableLayout;strokeColor=#000000;fontSize=14;labelBackgroundColor=none;fillColor=#56517E;fontColor=#FFFFFF;" parent="1" vertex="1">
          <mxGeometry x="590" y="563" width="380.3763435279926" height="243.47137451171898" as="geometry" />
        </mxCell>
        <mxCell id="FbfgumM9k3iWBc4ifTP3-271" value="" style="shape=tableRow;horizontal=0;startSize=0;swimlaneHead=0;swimlaneBody=0;strokeColor=#EEEEEE;top=0;left=0;bottom=0;right=0;collapsible=0;dropTarget=0;fillColor=none;points=[[0,0.5],[1,0.5]];portConstraint=eastwest;fontSize=16;labelBackgroundColor=none;fontColor=#000000;" parent="FbfgumM9k3iWBc4ifTP3-270" vertex="1">
          <mxGeometry y="30" width="380.3763435279926" height="30" as="geometry" />
        </mxCell>
        <mxCell id="ApsFlAxeWI4yGW2BCktG-68" value="PK" style="shape=partialRectangle;html=1;whiteSpace=wrap;connectable=0;strokeColor=#EEEEEE;overflow=hidden;fillColor=none;top=0;left=0;bottom=0;right=0;pointerEvents=1;fontSize=12;labelBackgroundColor=none;fontColor=#000000;" parent="FbfgumM9k3iWBc4ifTP3-271" vertex="1">
          <mxGeometry width="54" height="30" as="geometry">
            <mxRectangle width="54" height="30" as="alternateBounds" />
          </mxGeometry>
        </mxCell>
        <mxCell id="FbfgumM9k3iWBc4ifTP3-273" value="Номер заказа" style="shape=partialRectangle;html=1;whiteSpace=wrap;connectable=0;strokeColor=#EEEEEE;overflow=hidden;fillColor=none;top=0;left=0;bottom=0;right=0;pointerEvents=1;fontSize=12;labelBackgroundColor=none;fontColor=#000000;" parent="FbfgumM9k3iWBc4ifTP3-271" vertex="1">
          <mxGeometry x="54" width="224" height="30" as="geometry">
            <mxRectangle width="224" height="30" as="alternateBounds" />
          </mxGeometry>
        </mxCell>
        <mxCell id="FbfgumM9k3iWBc4ifTP3-274" value="INT" style="shape=partialRectangle;html=1;whiteSpace=wrap;connectable=0;strokeColor=#EEEEEE;overflow=hidden;fillColor=none;top=0;left=0;bottom=0;right=0;pointerEvents=1;fontSize=12;labelBackgroundColor=none;fontColor=#000000;" parent="FbfgumM9k3iWBc4ifTP3-271" vertex="1">
          <mxGeometry x="278" width="102" height="30" as="geometry">
            <mxRectangle width="102" height="30" as="alternateBounds" />
          </mxGeometry>
        </mxCell>
        <mxCell id="FbfgumM9k3iWBc4ifTP3-275" value="" style="shape=tableRow;horizontal=0;startSize=0;swimlaneHead=0;swimlaneBody=0;strokeColor=#EEEEEE;top=0;left=0;bottom=0;right=0;collapsible=0;dropTarget=0;fillColor=none;points=[[0,0.5],[1,0.5]];portConstraint=eastwest;fontSize=16;labelBackgroundColor=none;fontColor=#000000;" parent="FbfgumM9k3iWBc4ifTP3-270" vertex="1">
          <mxGeometry y="60" width="380.3763435279926" height="30" as="geometry" />
        </mxCell>
        <mxCell id="ApsFlAxeWI4yGW2BCktG-69" style="shape=partialRectangle;html=1;whiteSpace=wrap;connectable=0;strokeColor=#EEEEEE;overflow=hidden;fillColor=none;top=0;left=0;bottom=0;right=0;pointerEvents=1;fontSize=12;labelBackgroundColor=none;fontColor=#000000;" parent="FbfgumM9k3iWBc4ifTP3-275" vertex="1">
          <mxGeometry width="54" height="30" as="geometry">
            <mxRectangle width="54" height="30" as="alternateBounds" />
          </mxGeometry>
        </mxCell>
        <mxCell id="FbfgumM9k3iWBc4ifTP3-277" value="Дата заказа" style="shape=partialRectangle;html=1;whiteSpace=wrap;connectable=0;strokeColor=#EEEEEE;overflow=hidden;fillColor=none;top=0;left=0;bottom=0;right=0;pointerEvents=1;fontSize=12;labelBackgroundColor=none;fontColor=#000000;" parent="FbfgumM9k3iWBc4ifTP3-275" vertex="1">
          <mxGeometry x="54" width="224" height="30" as="geometry">
            <mxRectangle width="224" height="30" as="alternateBounds" />
          </mxGeometry>
        </mxCell>
        <mxCell id="FbfgumM9k3iWBc4ifTP3-278" value="DATETIME" style="shape=partialRectangle;html=1;whiteSpace=wrap;connectable=0;strokeColor=#EEEEEE;overflow=hidden;fillColor=none;top=0;left=0;bottom=0;right=0;pointerEvents=1;fontSize=12;labelBackgroundColor=none;fontColor=#000000;" parent="FbfgumM9k3iWBc4ifTP3-275" vertex="1">
          <mxGeometry x="278" width="102" height="30" as="geometry">
            <mxRectangle width="102" height="30" as="alternateBounds" />
          </mxGeometry>
        </mxCell>
        <mxCell id="FbfgumM9k3iWBc4ifTP3-283" style="shape=tableRow;horizontal=0;startSize=0;swimlaneHead=0;swimlaneBody=0;strokeColor=#EEEEEE;top=0;left=0;bottom=0;right=0;collapsible=0;dropTarget=0;fillColor=none;points=[[0,0.5],[1,0.5]];portConstraint=eastwest;fontSize=16;labelBackgroundColor=none;fontColor=#000000;" parent="FbfgumM9k3iWBc4ifTP3-270" vertex="1">
          <mxGeometry y="90" width="380.3763435279926" height="30" as="geometry" />
        </mxCell>
        <mxCell id="ApsFlAxeWI4yGW2BCktG-71" style="shape=partialRectangle;html=1;whiteSpace=wrap;connectable=0;strokeColor=#EEEEEE;overflow=hidden;fillColor=none;top=0;left=0;bottom=0;right=0;pointerEvents=1;fontSize=12;labelBackgroundColor=none;fontColor=#000000;" parent="FbfgumM9k3iWBc4ifTP3-283" vertex="1">
          <mxGeometry width="54" height="30" as="geometry">
            <mxRectangle width="54" height="30" as="alternateBounds" />
          </mxGeometry>
        </mxCell>
        <mxCell id="FbfgumM9k3iWBc4ifTP3-285" value="Статус заказа" style="shape=partialRectangle;html=1;whiteSpace=wrap;connectable=0;strokeColor=#EEEEEE;overflow=hidden;fillColor=none;top=0;left=0;bottom=0;right=0;pointerEvents=1;fontSize=12;labelBackgroundColor=none;fontColor=#000000;" parent="FbfgumM9k3iWBc4ifTP3-283" vertex="1">
          <mxGeometry x="54" width="224" height="30" as="geometry">
            <mxRectangle width="224" height="30" as="alternateBounds" />
          </mxGeometry>
        </mxCell>
        <mxCell id="FbfgumM9k3iWBc4ifTP3-286" value="ENUM" style="shape=partialRectangle;html=1;whiteSpace=wrap;connectable=0;strokeColor=#EEEEEE;overflow=hidden;fillColor=none;top=0;left=0;bottom=0;right=0;pointerEvents=1;fontSize=12;labelBackgroundColor=none;fontColor=#000000;" parent="FbfgumM9k3iWBc4ifTP3-283" vertex="1">
          <mxGeometry x="278" width="102" height="30" as="geometry">
            <mxRectangle width="102" height="30" as="alternateBounds" />
          </mxGeometry>
        </mxCell>
        <mxCell id="FbfgumM9k3iWBc4ifTP3-287" style="shape=tableRow;horizontal=0;startSize=0;swimlaneHead=0;swimlaneBody=0;strokeColor=#EEEEEE;top=0;left=0;bottom=0;right=0;collapsible=0;dropTarget=0;fillColor=none;points=[[0,0.5],[1,0.5]];portConstraint=eastwest;fontSize=16;labelBackgroundColor=none;fontColor=#000000;" parent="FbfgumM9k3iWBc4ifTP3-270" vertex="1">
          <mxGeometry y="120" width="380.3763435279926" height="29" as="geometry" />
        </mxCell>
        <mxCell id="ApsFlAxeWI4yGW2BCktG-72" style="shape=partialRectangle;html=1;whiteSpace=wrap;connectable=0;strokeColor=#EEEEEE;overflow=hidden;fillColor=none;top=0;left=0;bottom=0;right=0;pointerEvents=1;fontSize=12;labelBackgroundColor=none;fontColor=#000000;" parent="FbfgumM9k3iWBc4ifTP3-287" vertex="1">
          <mxGeometry width="54" height="29" as="geometry">
            <mxRectangle width="54" height="29" as="alternateBounds" />
          </mxGeometry>
        </mxCell>
        <mxCell id="FbfgumM9k3iWBc4ifTP3-289" value="Стоимость заказа" style="shape=partialRectangle;html=1;whiteSpace=wrap;connectable=0;strokeColor=#EEEEEE;overflow=hidden;fillColor=none;top=0;left=0;bottom=0;right=0;pointerEvents=1;fontSize=12;labelBackgroundColor=none;fontColor=#000000;" parent="FbfgumM9k3iWBc4ifTP3-287" vertex="1">
          <mxGeometry x="54" width="224" height="29" as="geometry">
            <mxRectangle width="224" height="29" as="alternateBounds" />
          </mxGeometry>
        </mxCell>
        <mxCell id="FbfgumM9k3iWBc4ifTP3-290" value="DECIMAL(10,2)" style="shape=partialRectangle;html=1;whiteSpace=wrap;connectable=0;strokeColor=#EEEEEE;overflow=hidden;fillColor=none;top=0;left=0;bottom=0;right=0;pointerEvents=1;fontSize=12;labelBackgroundColor=none;fontColor=#000000;" parent="FbfgumM9k3iWBc4ifTP3-287" vertex="1">
          <mxGeometry x="278" width="102" height="29" as="geometry">
            <mxRectangle width="102" height="29" as="alternateBounds" />
          </mxGeometry>
        </mxCell>
        <mxCell id="FbfgumM9k3iWBc4ifTP3-291" style="shape=tableRow;horizontal=0;startSize=0;swimlaneHead=0;swimlaneBody=0;strokeColor=#EEEEEE;top=0;left=0;bottom=0;right=0;collapsible=0;dropTarget=0;fillColor=none;points=[[0,0.5],[1,0.5]];portConstraint=eastwest;fontSize=16;labelBackgroundColor=none;fontColor=#000000;" parent="FbfgumM9k3iWBc4ifTP3-270" vertex="1">
          <mxGeometry y="149" width="380.3763435279926" height="30" as="geometry" />
        </mxCell>
        <mxCell id="ApsFlAxeWI4yGW2BCktG-73" style="shape=partialRectangle;html=1;whiteSpace=wrap;connectable=0;strokeColor=#EEEEEE;overflow=hidden;fillColor=none;top=0;left=0;bottom=0;right=0;pointerEvents=1;fontSize=12;labelBackgroundColor=none;fontColor=#000000;" parent="FbfgumM9k3iWBc4ifTP3-291" vertex="1">
          <mxGeometry width="54" height="30" as="geometry">
            <mxRectangle width="54" height="30" as="alternateBounds" />
          </mxGeometry>
        </mxCell>
        <mxCell id="FbfgumM9k3iWBc4ifTP3-293" value="Способ оплаты" style="shape=partialRectangle;html=1;whiteSpace=wrap;connectable=0;strokeColor=#EEEEEE;overflow=hidden;fillColor=none;top=0;left=0;bottom=0;right=0;pointerEvents=1;fontSize=12;labelBackgroundColor=none;fontColor=#000000;" parent="FbfgumM9k3iWBc4ifTP3-291" vertex="1">
          <mxGeometry x="54" width="224" height="30" as="geometry">
            <mxRectangle width="224" height="30" as="alternateBounds" />
          </mxGeometry>
        </mxCell>
        <mxCell id="FbfgumM9k3iWBc4ifTP3-294" value="ENUM" style="shape=partialRectangle;html=1;whiteSpace=wrap;connectable=0;strokeColor=#EEEEEE;overflow=hidden;fillColor=none;top=0;left=0;bottom=0;right=0;pointerEvents=1;fontSize=12;labelBackgroundColor=none;fontColor=#000000;" parent="FbfgumM9k3iWBc4ifTP3-291" vertex="1">
          <mxGeometry x="278" width="102" height="30" as="geometry">
            <mxRectangle width="102" height="30" as="alternateBounds" />
          </mxGeometry>
        </mxCell>
        <mxCell id="FbfgumM9k3iWBc4ifTP3-299" style="shape=tableRow;horizontal=0;startSize=0;swimlaneHead=0;swimlaneBody=0;strokeColor=#EEEEEE;top=0;left=0;bottom=0;right=0;collapsible=0;dropTarget=0;fillColor=none;points=[[0,0.5],[1,0.5]];portConstraint=eastwest;fontSize=16;labelBackgroundColor=none;fontColor=#000000;" parent="FbfgumM9k3iWBc4ifTP3-270" vertex="1">
          <mxGeometry y="179" width="380.3763435279926" height="34" as="geometry" />
        </mxCell>
        <mxCell id="ApsFlAxeWI4yGW2BCktG-75" value="FK" style="shape=partialRectangle;html=1;whiteSpace=wrap;connectable=0;strokeColor=#EEEEEE;overflow=hidden;fillColor=none;top=0;left=0;bottom=0;right=0;pointerEvents=1;fontSize=12;labelBackgroundColor=none;fontColor=#000000;" parent="FbfgumM9k3iWBc4ifTP3-299" vertex="1">
          <mxGeometry width="54" height="34" as="geometry">
            <mxRectangle width="54" height="34" as="alternateBounds" />
          </mxGeometry>
        </mxCell>
        <mxCell id="FbfgumM9k3iWBc4ifTP3-301" value="Код пользователя/Логин" style="shape=partialRectangle;html=1;whiteSpace=wrap;connectable=0;strokeColor=#EEEEEE;overflow=hidden;fillColor=none;top=0;left=0;bottom=0;right=0;pointerEvents=1;fontSize=12;labelBackgroundColor=none;fontColor=#000000;" parent="FbfgumM9k3iWBc4ifTP3-299" vertex="1">
          <mxGeometry x="54" width="224" height="34" as="geometry">
            <mxRectangle width="224" height="34" as="alternateBounds" />
          </mxGeometry>
        </mxCell>
        <mxCell id="FbfgumM9k3iWBc4ifTP3-302" value="INT" style="shape=partialRectangle;html=1;whiteSpace=wrap;connectable=0;strokeColor=#EEEEEE;overflow=hidden;fillColor=none;top=0;left=0;bottom=0;right=0;pointerEvents=1;fontSize=12;labelBackgroundColor=none;fontColor=#000000;" parent="FbfgumM9k3iWBc4ifTP3-299" vertex="1">
          <mxGeometry x="278" width="102" height="34" as="geometry">
            <mxRectangle width="102" height="34" as="alternateBounds" />
          </mxGeometry>
        </mxCell>
        <mxCell id="FbfgumM9k3iWBc4ifTP3-303" style="shape=tableRow;horizontal=0;startSize=0;swimlaneHead=0;swimlaneBody=0;strokeColor=#EEEEEE;top=0;left=0;bottom=0;right=0;collapsible=0;dropTarget=0;fillColor=none;points=[[0,0.5],[1,0.5]];portConstraint=eastwest;fontSize=16;labelBackgroundColor=none;fontColor=#000000;" parent="FbfgumM9k3iWBc4ifTP3-270" vertex="1">
          <mxGeometry y="213" width="380.3763435279926" height="30" as="geometry" />
        </mxCell>
        <mxCell id="ApsFlAxeWI4yGW2BCktG-76" value="FK" style="shape=partialRectangle;html=1;whiteSpace=wrap;connectable=0;strokeColor=#EEEEEE;overflow=hidden;fillColor=none;top=0;left=0;bottom=0;right=0;pointerEvents=1;fontSize=12;labelBackgroundColor=none;fontColor=#000000;" parent="FbfgumM9k3iWBc4ifTP3-303" vertex="1">
          <mxGeometry width="54" height="30" as="geometry">
            <mxRectangle width="54" height="30" as="alternateBounds" />
          </mxGeometry>
        </mxCell>
        <mxCell id="FbfgumM9k3iWBc4ifTP3-305" value="Табельный номер (ответв. сотрудник)" style="shape=partialRectangle;html=1;whiteSpace=wrap;connectable=0;strokeColor=#EEEEEE;overflow=hidden;fillColor=none;top=0;left=0;bottom=0;right=0;pointerEvents=1;fontSize=12;labelBackgroundColor=none;fontColor=#000000;" parent="FbfgumM9k3iWBc4ifTP3-303" vertex="1">
          <mxGeometry x="54" width="224" height="30" as="geometry">
            <mxRectangle width="224" height="30" as="alternateBounds" />
          </mxGeometry>
        </mxCell>
        <mxCell id="FbfgumM9k3iWBc4ifTP3-306" value="INT" style="shape=partialRectangle;html=1;whiteSpace=wrap;connectable=0;strokeColor=#EEEEEE;overflow=hidden;fillColor=none;top=0;left=0;bottom=0;right=0;pointerEvents=1;fontSize=12;labelBackgroundColor=none;fontColor=#000000;" parent="FbfgumM9k3iWBc4ifTP3-303" vertex="1">
          <mxGeometry x="278" width="102" height="30" as="geometry">
            <mxRectangle width="102" height="30" as="alternateBounds" />
          </mxGeometry>
        </mxCell>
        <mxCell id="FbfgumM9k3iWBc4ifTP3-317" value="Сотрудники" style="shape=table;startSize=30;container=1;collapsible=0;childLayout=tableLayout;strokeColor=#000000;fontSize=14;labelBackgroundColor=none;fillColor=#56517E;fontColor=#FFFFFF;" parent="1" vertex="1">
          <mxGeometry x="1462" y="668" width="338.0585736005737" height="300" as="geometry" />
        </mxCell>
        <mxCell id="FbfgumM9k3iWBc4ifTP3-318" value="" style="shape=tableRow;horizontal=0;startSize=0;swimlaneHead=0;swimlaneBody=0;strokeColor=#EEEEEE;top=0;left=0;bottom=0;right=0;collapsible=0;dropTarget=0;fillColor=none;points=[[0,0.5],[1,0.5]];portConstraint=eastwest;fontSize=16;labelBackgroundColor=none;fontColor=#000000;" parent="FbfgumM9k3iWBc4ifTP3-317" vertex="1">
          <mxGeometry y="30" width="338.0585736005737" height="30" as="geometry" />
        </mxCell>
        <mxCell id="ApsFlAxeWI4yGW2BCktG-83" value="PK" style="shape=partialRectangle;html=1;whiteSpace=wrap;connectable=0;strokeColor=#EEEEEE;overflow=hidden;fillColor=none;top=0;left=0;bottom=0;right=0;pointerEvents=1;fontSize=12;labelBackgroundColor=none;fontColor=#000000;" parent="FbfgumM9k3iWBc4ifTP3-318" vertex="1">
          <mxGeometry width="45" height="30" as="geometry">
            <mxRectangle width="45" height="30" as="alternateBounds" />
          </mxGeometry>
        </mxCell>
        <mxCell id="FbfgumM9k3iWBc4ifTP3-320" value="Табельный номер сотрудника" style="shape=partialRectangle;html=1;whiteSpace=wrap;connectable=0;strokeColor=#EEEEEE;overflow=hidden;fillColor=none;top=0;left=0;bottom=0;right=0;pointerEvents=1;fontSize=12;labelBackgroundColor=none;fontColor=#000000;" parent="FbfgumM9k3iWBc4ifTP3-318" vertex="1">
          <mxGeometry x="45" width="182" height="30" as="geometry">
            <mxRectangle width="182" height="30" as="alternateBounds" />
          </mxGeometry>
        </mxCell>
        <mxCell id="FbfgumM9k3iWBc4ifTP3-321" value="INT" style="shape=partialRectangle;html=1;whiteSpace=wrap;connectable=0;strokeColor=#EEEEEE;overflow=hidden;fillColor=none;top=0;left=0;bottom=0;right=0;pointerEvents=1;fontSize=12;labelBackgroundColor=none;fontColor=#000000;" parent="FbfgumM9k3iWBc4ifTP3-318" vertex="1">
          <mxGeometry x="227" width="111" height="30" as="geometry">
            <mxRectangle width="111" height="30" as="alternateBounds" />
          </mxGeometry>
        </mxCell>
        <mxCell id="FbfgumM9k3iWBc4ifTP3-322" value="" style="shape=tableRow;horizontal=0;startSize=0;swimlaneHead=0;swimlaneBody=0;strokeColor=#EEEEEE;top=0;left=0;bottom=0;right=0;collapsible=0;dropTarget=0;fillColor=none;points=[[0,0.5],[1,0.5]];portConstraint=eastwest;fontSize=16;labelBackgroundColor=none;fontColor=#000000;" parent="FbfgumM9k3iWBc4ifTP3-317" vertex="1">
          <mxGeometry y="60" width="338.0585736005737" height="30" as="geometry" />
        </mxCell>
        <mxCell id="ApsFlAxeWI4yGW2BCktG-84" value="FK" style="shape=partialRectangle;html=1;whiteSpace=wrap;connectable=0;strokeColor=#EEEEEE;overflow=hidden;fillColor=none;top=0;left=0;bottom=0;right=0;pointerEvents=1;fontSize=12;labelBackgroundColor=none;fontColor=#000000;" parent="FbfgumM9k3iWBc4ifTP3-322" vertex="1">
          <mxGeometry width="45" height="30" as="geometry">
            <mxRectangle width="45" height="30" as="alternateBounds" />
          </mxGeometry>
        </mxCell>
        <mxCell id="FbfgumM9k3iWBc4ifTP3-324" value="Должность" style="shape=partialRectangle;html=1;whiteSpace=wrap;connectable=0;strokeColor=#EEEEEE;overflow=hidden;fillColor=none;top=0;left=0;bottom=0;right=0;pointerEvents=1;fontSize=12;labelBackgroundColor=none;fontColor=#000000;" parent="FbfgumM9k3iWBc4ifTP3-322" vertex="1">
          <mxGeometry x="45" width="182" height="30" as="geometry">
            <mxRectangle width="182" height="30" as="alternateBounds" />
          </mxGeometry>
        </mxCell>
        <mxCell id="FbfgumM9k3iWBc4ifTP3-325" value="INT" style="shape=partialRectangle;html=1;whiteSpace=wrap;connectable=0;strokeColor=#EEEEEE;overflow=hidden;fillColor=none;top=0;left=0;bottom=0;right=0;pointerEvents=1;fontSize=12;labelBackgroundColor=none;fontColor=#000000;" parent="FbfgumM9k3iWBc4ifTP3-322" vertex="1">
          <mxGeometry x="227" width="111" height="30" as="geometry">
            <mxRectangle width="111" height="30" as="alternateBounds" />
          </mxGeometry>
        </mxCell>
        <mxCell id="FbfgumM9k3iWBc4ifTP3-326" value="" style="shape=tableRow;horizontal=0;startSize=0;swimlaneHead=0;swimlaneBody=0;strokeColor=#EEEEEE;top=0;left=0;bottom=0;right=0;collapsible=0;dropTarget=0;fillColor=none;points=[[0,0.5],[1,0.5]];portConstraint=eastwest;fontSize=16;labelBackgroundColor=none;fontColor=#000000;" parent="FbfgumM9k3iWBc4ifTP3-317" vertex="1">
          <mxGeometry y="90" width="338.0585736005737" height="30" as="geometry" />
        </mxCell>
        <mxCell id="ApsFlAxeWI4yGW2BCktG-85" style="shape=partialRectangle;html=1;whiteSpace=wrap;connectable=0;strokeColor=#EEEEEE;overflow=hidden;fillColor=none;top=0;left=0;bottom=0;right=0;pointerEvents=1;fontSize=12;labelBackgroundColor=none;fontColor=#000000;" parent="FbfgumM9k3iWBc4ifTP3-326" vertex="1">
          <mxGeometry width="45" height="30" as="geometry">
            <mxRectangle width="45" height="30" as="alternateBounds" />
          </mxGeometry>
        </mxCell>
        <mxCell id="FbfgumM9k3iWBc4ifTP3-328" value="ФИО сотрудника" style="shape=partialRectangle;html=1;whiteSpace=wrap;connectable=0;strokeColor=#EEEEEE;overflow=hidden;fillColor=none;top=0;left=0;bottom=0;right=0;pointerEvents=1;fontSize=12;labelBackgroundColor=none;fontColor=#000000;" parent="FbfgumM9k3iWBc4ifTP3-326" vertex="1">
          <mxGeometry x="45" width="182" height="30" as="geometry">
            <mxRectangle width="182" height="30" as="alternateBounds" />
          </mxGeometry>
        </mxCell>
        <mxCell id="FbfgumM9k3iWBc4ifTP3-329" value="VARCHAR(100)" style="shape=partialRectangle;html=1;whiteSpace=wrap;connectable=0;strokeColor=#EEEEEE;overflow=hidden;fillColor=none;top=0;left=0;bottom=0;right=0;pointerEvents=1;fontSize=12;labelBackgroundColor=none;fontColor=#000000;" parent="FbfgumM9k3iWBc4ifTP3-326" vertex="1">
          <mxGeometry x="227" width="111" height="30" as="geometry">
            <mxRectangle width="111" height="30" as="alternateBounds" />
          </mxGeometry>
        </mxCell>
        <mxCell id="FbfgumM9k3iWBc4ifTP3-330" style="shape=tableRow;horizontal=0;startSize=0;swimlaneHead=0;swimlaneBody=0;strokeColor=#EEEEEE;top=0;left=0;bottom=0;right=0;collapsible=0;dropTarget=0;fillColor=none;points=[[0,0.5],[1,0.5]];portConstraint=eastwest;fontSize=16;labelBackgroundColor=none;fontColor=#000000;" parent="FbfgumM9k3iWBc4ifTP3-317" vertex="1">
          <mxGeometry y="120" width="338.0585736005737" height="30" as="geometry" />
        </mxCell>
        <mxCell id="ApsFlAxeWI4yGW2BCktG-86" style="shape=partialRectangle;html=1;whiteSpace=wrap;connectable=0;strokeColor=#EEEEEE;overflow=hidden;fillColor=none;top=0;left=0;bottom=0;right=0;pointerEvents=1;fontSize=12;labelBackgroundColor=none;fontColor=#000000;" parent="FbfgumM9k3iWBc4ifTP3-330" vertex="1">
          <mxGeometry width="45" height="30" as="geometry">
            <mxRectangle width="45" height="30" as="alternateBounds" />
          </mxGeometry>
        </mxCell>
        <mxCell id="FbfgumM9k3iWBc4ifTP3-332" value="Паспортные данные" style="shape=partialRectangle;html=1;whiteSpace=wrap;connectable=0;strokeColor=#EEEEEE;overflow=hidden;fillColor=none;top=0;left=0;bottom=0;right=0;pointerEvents=1;fontSize=12;labelBackgroundColor=none;fontColor=#000000;" parent="FbfgumM9k3iWBc4ifTP3-330" vertex="1">
          <mxGeometry x="45" width="182" height="30" as="geometry">
            <mxRectangle width="182" height="30" as="alternateBounds" />
          </mxGeometry>
        </mxCell>
        <mxCell id="FbfgumM9k3iWBc4ifTP3-333" value="VARCHAR(255)" style="shape=partialRectangle;html=1;whiteSpace=wrap;connectable=0;strokeColor=#EEEEEE;overflow=hidden;fillColor=none;top=0;left=0;bottom=0;right=0;pointerEvents=1;fontSize=12;labelBackgroundColor=none;fontColor=#000000;" parent="FbfgumM9k3iWBc4ifTP3-330" vertex="1">
          <mxGeometry x="227" width="111" height="30" as="geometry">
            <mxRectangle width="111" height="30" as="alternateBounds" />
          </mxGeometry>
        </mxCell>
        <mxCell id="FbfgumM9k3iWBc4ifTP3-334" style="shape=tableRow;horizontal=0;startSize=0;swimlaneHead=0;swimlaneBody=0;strokeColor=#EEEEEE;top=0;left=0;bottom=0;right=0;collapsible=0;dropTarget=0;fillColor=none;points=[[0,0.5],[1,0.5]];portConstraint=eastwest;fontSize=16;labelBackgroundColor=none;fontColor=#000000;" parent="FbfgumM9k3iWBc4ifTP3-317" vertex="1">
          <mxGeometry y="150" width="338.0585736005737" height="30" as="geometry" />
        </mxCell>
        <mxCell id="ApsFlAxeWI4yGW2BCktG-87" style="shape=partialRectangle;html=1;whiteSpace=wrap;connectable=0;strokeColor=#EEEEEE;overflow=hidden;fillColor=none;top=0;left=0;bottom=0;right=0;pointerEvents=1;fontSize=12;labelBackgroundColor=none;fontColor=#000000;" parent="FbfgumM9k3iWBc4ifTP3-334" vertex="1">
          <mxGeometry width="45" height="30" as="geometry">
            <mxRectangle width="45" height="30" as="alternateBounds" />
          </mxGeometry>
        </mxCell>
        <mxCell id="FbfgumM9k3iWBc4ifTP3-336" value="Дата рождения" style="shape=partialRectangle;html=1;whiteSpace=wrap;connectable=0;strokeColor=#EEEEEE;overflow=hidden;fillColor=none;top=0;left=0;bottom=0;right=0;pointerEvents=1;fontSize=12;labelBackgroundColor=none;fontColor=#000000;" parent="FbfgumM9k3iWBc4ifTP3-334" vertex="1">
          <mxGeometry x="45" width="182" height="30" as="geometry">
            <mxRectangle width="182" height="30" as="alternateBounds" />
          </mxGeometry>
        </mxCell>
        <mxCell id="FbfgumM9k3iWBc4ifTP3-337" value="DATE" style="shape=partialRectangle;html=1;whiteSpace=wrap;connectable=0;strokeColor=#EEEEEE;overflow=hidden;fillColor=none;top=0;left=0;bottom=0;right=0;pointerEvents=1;fontSize=12;labelBackgroundColor=none;fontColor=#000000;" parent="FbfgumM9k3iWBc4ifTP3-334" vertex="1">
          <mxGeometry x="227" width="111" height="30" as="geometry">
            <mxRectangle width="111" height="30" as="alternateBounds" />
          </mxGeometry>
        </mxCell>
        <mxCell id="FbfgumM9k3iWBc4ifTP3-386" style="shape=tableRow;horizontal=0;startSize=0;swimlaneHead=0;swimlaneBody=0;strokeColor=#EEEEEE;top=0;left=0;bottom=0;right=0;collapsible=0;dropTarget=0;fillColor=none;points=[[0,0.5],[1,0.5]];portConstraint=eastwest;fontSize=16;labelBackgroundColor=none;fontColor=#000000;" parent="FbfgumM9k3iWBc4ifTP3-317" vertex="1">
          <mxGeometry y="180" width="338.0585736005737" height="30" as="geometry" />
        </mxCell>
        <mxCell id="ApsFlAxeWI4yGW2BCktG-88" style="shape=partialRectangle;html=1;whiteSpace=wrap;connectable=0;strokeColor=#EEEEEE;overflow=hidden;fillColor=none;top=0;left=0;bottom=0;right=0;pointerEvents=1;fontSize=12;labelBackgroundColor=none;fontColor=#000000;" parent="FbfgumM9k3iWBc4ifTP3-386" vertex="1">
          <mxGeometry width="45" height="30" as="geometry">
            <mxRectangle width="45" height="30" as="alternateBounds" />
          </mxGeometry>
        </mxCell>
        <mxCell id="FbfgumM9k3iWBc4ifTP3-388" value="ИНН" style="shape=partialRectangle;html=1;whiteSpace=wrap;connectable=0;strokeColor=#EEEEEE;overflow=hidden;fillColor=none;top=0;left=0;bottom=0;right=0;pointerEvents=1;fontSize=12;labelBackgroundColor=none;fontColor=#000000;" parent="FbfgumM9k3iWBc4ifTP3-386" vertex="1">
          <mxGeometry x="45" width="182" height="30" as="geometry">
            <mxRectangle width="182" height="30" as="alternateBounds" />
          </mxGeometry>
        </mxCell>
        <mxCell id="FbfgumM9k3iWBc4ifTP3-389" value="VARCHAR(12)" style="shape=partialRectangle;html=1;whiteSpace=wrap;connectable=0;strokeColor=#EEEEEE;overflow=hidden;fillColor=none;top=0;left=0;bottom=0;right=0;pointerEvents=1;fontSize=12;labelBackgroundColor=none;fontColor=#000000;" parent="FbfgumM9k3iWBc4ifTP3-386" vertex="1">
          <mxGeometry x="227" width="111" height="30" as="geometry">
            <mxRectangle width="111" height="30" as="alternateBounds" />
          </mxGeometry>
        </mxCell>
        <mxCell id="FbfgumM9k3iWBc4ifTP3-338" style="shape=tableRow;horizontal=0;startSize=0;swimlaneHead=0;swimlaneBody=0;strokeColor=#EEEEEE;top=0;left=0;bottom=0;right=0;collapsible=0;dropTarget=0;fillColor=none;points=[[0,0.5],[1,0.5]];portConstraint=eastwest;fontSize=16;labelBackgroundColor=none;fontColor=#000000;" parent="FbfgumM9k3iWBc4ifTP3-317" vertex="1">
          <mxGeometry y="210" width="338.0585736005737" height="30" as="geometry" />
        </mxCell>
        <mxCell id="ApsFlAxeWI4yGW2BCktG-89" style="shape=partialRectangle;html=1;whiteSpace=wrap;connectable=0;strokeColor=#EEEEEE;overflow=hidden;fillColor=none;top=0;left=0;bottom=0;right=0;pointerEvents=1;fontSize=12;labelBackgroundColor=none;fontColor=#000000;" parent="FbfgumM9k3iWBc4ifTP3-338" vertex="1">
          <mxGeometry width="45" height="30" as="geometry">
            <mxRectangle width="45" height="30" as="alternateBounds" />
          </mxGeometry>
        </mxCell>
        <mxCell id="FbfgumM9k3iWBc4ifTP3-340" value="Пол" style="shape=partialRectangle;html=1;whiteSpace=wrap;connectable=0;strokeColor=#EEEEEE;overflow=hidden;fillColor=none;top=0;left=0;bottom=0;right=0;pointerEvents=1;fontSize=12;labelBackgroundColor=none;fontColor=#000000;" parent="FbfgumM9k3iWBc4ifTP3-338" vertex="1">
          <mxGeometry x="45" width="182" height="30" as="geometry">
            <mxRectangle width="182" height="30" as="alternateBounds" />
          </mxGeometry>
        </mxCell>
        <mxCell id="FbfgumM9k3iWBc4ifTP3-341" value="CHAR(1)" style="shape=partialRectangle;html=1;whiteSpace=wrap;connectable=0;strokeColor=#EEEEEE;overflow=hidden;fillColor=none;top=0;left=0;bottom=0;right=0;pointerEvents=1;fontSize=12;labelBackgroundColor=none;fontColor=#000000;" parent="FbfgumM9k3iWBc4ifTP3-338" vertex="1">
          <mxGeometry x="227" width="111" height="30" as="geometry">
            <mxRectangle width="111" height="30" as="alternateBounds" />
          </mxGeometry>
        </mxCell>
        <mxCell id="FbfgumM9k3iWBc4ifTP3-346" style="shape=tableRow;horizontal=0;startSize=0;swimlaneHead=0;swimlaneBody=0;strokeColor=#EEEEEE;top=0;left=0;bottom=0;right=0;collapsible=0;dropTarget=0;fillColor=none;points=[[0,0.5],[1,0.5]];portConstraint=eastwest;fontSize=16;labelBackgroundColor=none;fontColor=#000000;" parent="FbfgumM9k3iWBc4ifTP3-317" vertex="1">
          <mxGeometry y="240" width="338.0585736005737" height="30" as="geometry" />
        </mxCell>
        <mxCell id="ApsFlAxeWI4yGW2BCktG-90" style="shape=partialRectangle;html=1;whiteSpace=wrap;connectable=0;strokeColor=#EEEEEE;overflow=hidden;fillColor=none;top=0;left=0;bottom=0;right=0;pointerEvents=1;fontSize=12;labelBackgroundColor=none;fontColor=#000000;" parent="FbfgumM9k3iWBc4ifTP3-346" vertex="1">
          <mxGeometry width="45" height="30" as="geometry">
            <mxRectangle width="45" height="30" as="alternateBounds" />
          </mxGeometry>
        </mxCell>
        <mxCell id="FbfgumM9k3iWBc4ifTP3-348" value="Телефон" style="shape=partialRectangle;html=1;whiteSpace=wrap;connectable=0;strokeColor=#EEEEEE;overflow=hidden;fillColor=none;top=0;left=0;bottom=0;right=0;pointerEvents=1;fontSize=12;labelBackgroundColor=none;fontColor=#000000;" parent="FbfgumM9k3iWBc4ifTP3-346" vertex="1">
          <mxGeometry x="45" width="182" height="30" as="geometry">
            <mxRectangle width="182" height="30" as="alternateBounds" />
          </mxGeometry>
        </mxCell>
        <mxCell id="FbfgumM9k3iWBc4ifTP3-349" value="VARCHAR(30)" style="shape=partialRectangle;html=1;whiteSpace=wrap;connectable=0;strokeColor=#EEEEEE;overflow=hidden;fillColor=none;top=0;left=0;bottom=0;right=0;pointerEvents=1;fontSize=12;labelBackgroundColor=none;fontColor=#000000;" parent="FbfgumM9k3iWBc4ifTP3-346" vertex="1">
          <mxGeometry x="227" width="111" height="30" as="geometry">
            <mxRectangle width="111" height="30" as="alternateBounds" />
          </mxGeometry>
        </mxCell>
        <mxCell id="FbfgumM9k3iWBc4ifTP3-350" style="shape=tableRow;horizontal=0;startSize=0;swimlaneHead=0;swimlaneBody=0;strokeColor=#EEEEEE;top=0;left=0;bottom=0;right=0;collapsible=0;dropTarget=0;fillColor=none;points=[[0,0.5],[1,0.5]];portConstraint=eastwest;fontSize=16;labelBackgroundColor=none;fontColor=#000000;" parent="FbfgumM9k3iWBc4ifTP3-317" vertex="1">
          <mxGeometry y="270" width="338.0585736005737" height="30" as="geometry" />
        </mxCell>
        <mxCell id="ApsFlAxeWI4yGW2BCktG-91" style="shape=partialRectangle;html=1;whiteSpace=wrap;connectable=0;strokeColor=#EEEEEE;overflow=hidden;fillColor=none;top=0;left=0;bottom=0;right=0;pointerEvents=1;fontSize=12;labelBackgroundColor=none;fontColor=#000000;" parent="FbfgumM9k3iWBc4ifTP3-350" vertex="1">
          <mxGeometry width="45" height="30" as="geometry">
            <mxRectangle width="45" height="30" as="alternateBounds" />
          </mxGeometry>
        </mxCell>
        <mxCell id="FbfgumM9k3iWBc4ifTP3-352" value="Адрес" style="shape=partialRectangle;html=1;whiteSpace=wrap;connectable=0;strokeColor=#EEEEEE;overflow=hidden;fillColor=none;top=0;left=0;bottom=0;right=0;pointerEvents=1;fontSize=12;labelBackgroundColor=none;fontColor=#000000;" parent="FbfgumM9k3iWBc4ifTP3-350" vertex="1">
          <mxGeometry x="45" width="182" height="30" as="geometry">
            <mxRectangle width="182" height="30" as="alternateBounds" />
          </mxGeometry>
        </mxCell>
        <mxCell id="FbfgumM9k3iWBc4ifTP3-353" value="VARCHAR(50)" style="shape=partialRectangle;html=1;whiteSpace=wrap;connectable=0;strokeColor=#EEEEEE;overflow=hidden;fillColor=none;top=0;left=0;bottom=0;right=0;pointerEvents=1;fontSize=12;labelBackgroundColor=none;fontColor=#000000;" parent="FbfgumM9k3iWBc4ifTP3-350" vertex="1">
          <mxGeometry x="227" width="111" height="30" as="geometry">
            <mxRectangle width="111" height="30" as="alternateBounds" />
          </mxGeometry>
        </mxCell>
        <mxCell id="FbfgumM9k3iWBc4ifTP3-390" value="Должности" style="shape=table;startSize=30;container=1;collapsible=0;childLayout=tableLayout;fontSize=14;fillColor=#56517E;labelBackgroundColor=none;strokeColor=#000000;fontColor=#FFFFFF;" parent="1" vertex="1">
          <mxGeometry x="1901" y="716" width="284.5584370930992" height="120" as="geometry" />
        </mxCell>
        <mxCell id="FbfgumM9k3iWBc4ifTP3-391" value="" style="shape=tableRow;horizontal=0;startSize=0;swimlaneHead=0;swimlaneBody=0;strokeColor=#EEEEEE;top=0;left=0;bottom=0;right=0;collapsible=0;dropTarget=0;fillColor=none;points=[[0,0.5],[1,0.5]];portConstraint=eastwest;fontSize=16;labelBackgroundColor=none;fontColor=#000000;" parent="FbfgumM9k3iWBc4ifTP3-390" vertex="1">
          <mxGeometry y="30" width="284.5584370930992" height="30" as="geometry" />
        </mxCell>
        <mxCell id="ApsFlAxeWI4yGW2BCktG-92" value="PK" style="shape=partialRectangle;html=1;whiteSpace=wrap;connectable=0;strokeColor=#EEEEEE;overflow=hidden;fillColor=none;top=0;left=0;bottom=0;right=0;pointerEvents=1;fontSize=12;labelBackgroundColor=none;fontColor=#000000;" parent="FbfgumM9k3iWBc4ifTP3-391" vertex="1">
          <mxGeometry width="36" height="30" as="geometry">
            <mxRectangle width="36" height="30" as="alternateBounds" />
          </mxGeometry>
        </mxCell>
        <mxCell id="FbfgumM9k3iWBc4ifTP3-393" value="Код должности" style="shape=partialRectangle;html=1;whiteSpace=wrap;connectable=0;strokeColor=#EEEEEE;overflow=hidden;fillColor=none;top=0;left=0;bottom=0;right=0;pointerEvents=1;fontSize=12;labelBackgroundColor=none;fontColor=#000000;" parent="FbfgumM9k3iWBc4ifTP3-391" vertex="1">
          <mxGeometry x="36" width="133" height="30" as="geometry">
            <mxRectangle width="133" height="30" as="alternateBounds" />
          </mxGeometry>
        </mxCell>
        <mxCell id="FbfgumM9k3iWBc4ifTP3-394" value="INT" style="shape=partialRectangle;html=1;whiteSpace=wrap;connectable=0;strokeColor=#EEEEEE;overflow=hidden;fillColor=none;top=0;left=0;bottom=0;right=0;pointerEvents=1;fontSize=12;labelBackgroundColor=none;fontColor=#000000;" parent="FbfgumM9k3iWBc4ifTP3-391" vertex="1">
          <mxGeometry x="169" width="116" height="30" as="geometry">
            <mxRectangle width="116" height="30" as="alternateBounds" />
          </mxGeometry>
        </mxCell>
        <mxCell id="FbfgumM9k3iWBc4ifTP3-395" value="" style="shape=tableRow;horizontal=0;startSize=0;swimlaneHead=0;swimlaneBody=0;strokeColor=#EEEEEE;top=0;left=0;bottom=0;right=0;collapsible=0;dropTarget=0;fillColor=none;points=[[0,0.5],[1,0.5]];portConstraint=eastwest;fontSize=16;labelBackgroundColor=none;fontColor=#000000;" parent="FbfgumM9k3iWBc4ifTP3-390" vertex="1">
          <mxGeometry y="60" width="284.5584370930992" height="30" as="geometry" />
        </mxCell>
        <mxCell id="ApsFlAxeWI4yGW2BCktG-93" style="shape=partialRectangle;html=1;whiteSpace=wrap;connectable=0;strokeColor=#EEEEEE;overflow=hidden;fillColor=none;top=0;left=0;bottom=0;right=0;pointerEvents=1;fontSize=12;labelBackgroundColor=none;fontColor=#000000;" parent="FbfgumM9k3iWBc4ifTP3-395" vertex="1">
          <mxGeometry width="36" height="30" as="geometry">
            <mxRectangle width="36" height="30" as="alternateBounds" />
          </mxGeometry>
        </mxCell>
        <mxCell id="FbfgumM9k3iWBc4ifTP3-397" value="Название должности" style="shape=partialRectangle;html=1;whiteSpace=wrap;connectable=0;strokeColor=#EEEEEE;overflow=hidden;fillColor=none;top=0;left=0;bottom=0;right=0;pointerEvents=1;fontSize=12;labelBackgroundColor=none;fontColor=#000000;" parent="FbfgumM9k3iWBc4ifTP3-395" vertex="1">
          <mxGeometry x="36" width="133" height="30" as="geometry">
            <mxRectangle width="133" height="30" as="alternateBounds" />
          </mxGeometry>
        </mxCell>
        <mxCell id="FbfgumM9k3iWBc4ifTP3-398" value="ENUM" style="shape=partialRectangle;html=1;whiteSpace=wrap;connectable=0;strokeColor=#EEEEEE;overflow=hidden;fillColor=none;top=0;left=0;bottom=0;right=0;pointerEvents=1;fontSize=12;labelBackgroundColor=none;fontColor=#000000;" parent="FbfgumM9k3iWBc4ifTP3-395" vertex="1">
          <mxGeometry x="169" width="116" height="30" as="geometry">
            <mxRectangle width="116" height="30" as="alternateBounds" />
          </mxGeometry>
        </mxCell>
        <mxCell id="FbfgumM9k3iWBc4ifTP3-399" value="" style="shape=tableRow;horizontal=0;startSize=0;swimlaneHead=0;swimlaneBody=0;strokeColor=#EEEEEE;top=0;left=0;bottom=0;right=0;collapsible=0;dropTarget=0;fillColor=none;points=[[0,0.5],[1,0.5]];portConstraint=eastwest;fontSize=16;labelBackgroundColor=none;fontColor=#000000;" parent="FbfgumM9k3iWBc4ifTP3-390" vertex="1">
          <mxGeometry y="90" width="284.5584370930992" height="30" as="geometry" />
        </mxCell>
        <mxCell id="ApsFlAxeWI4yGW2BCktG-94" style="shape=partialRectangle;html=1;whiteSpace=wrap;connectable=0;strokeColor=#EEEEEE;overflow=hidden;fillColor=none;top=0;left=0;bottom=0;right=0;pointerEvents=1;fontSize=12;labelBackgroundColor=none;fontColor=#000000;" parent="FbfgumM9k3iWBc4ifTP3-399" vertex="1">
          <mxGeometry width="36" height="30" as="geometry">
            <mxRectangle width="36" height="30" as="alternateBounds" />
          </mxGeometry>
        </mxCell>
        <mxCell id="FbfgumM9k3iWBc4ifTP3-401" value="Оклад" style="shape=partialRectangle;html=1;whiteSpace=wrap;connectable=0;strokeColor=#EEEEEE;overflow=hidden;fillColor=none;top=0;left=0;bottom=0;right=0;pointerEvents=1;fontSize=12;labelBackgroundColor=none;fontColor=#000000;" parent="FbfgumM9k3iWBc4ifTP3-399" vertex="1">
          <mxGeometry x="36" width="133" height="30" as="geometry">
            <mxRectangle width="133" height="30" as="alternateBounds" />
          </mxGeometry>
        </mxCell>
        <mxCell id="FbfgumM9k3iWBc4ifTP3-402" value="DECIMAL(10,2)" style="shape=partialRectangle;html=1;whiteSpace=wrap;connectable=0;strokeColor=#EEEEEE;overflow=hidden;fillColor=none;top=0;left=0;bottom=0;right=0;pointerEvents=1;fontSize=12;labelBackgroundColor=none;fontColor=#000000;" parent="FbfgumM9k3iWBc4ifTP3-399" vertex="1">
          <mxGeometry x="169" width="116" height="30" as="geometry">
            <mxRectangle width="116" height="30" as="alternateBounds" />
          </mxGeometry>
        </mxCell>
        <mxCell id="FbfgumM9k3iWBc4ifTP3-411" value="Товары в заказах" style="shape=table;startSize=30;container=1;collapsible=0;childLayout=tableLayout;fontSize=14;fillColor=#56517E;labelBackgroundColor=none;strokeColor=#000000;fontColor=#FFFFFF;" parent="1" vertex="1">
          <mxGeometry x="316" y="996" width="223.4364126413468" height="118.7192222880808" as="geometry" />
        </mxCell>
        <mxCell id="ApsFlAxeWI4yGW2BCktG-35" style="shape=tableRow;horizontal=0;startSize=0;swimlaneHead=0;swimlaneBody=0;strokeColor=#EEEEEE;top=0;left=0;bottom=0;right=0;collapsible=0;dropTarget=0;fillColor=none;points=[[0,0.5],[1,0.5]];portConstraint=eastwest;fontSize=16;labelBackgroundColor=none;fontColor=#000000;" parent="FbfgumM9k3iWBc4ifTP3-411" vertex="1">
          <mxGeometry y="30" width="223.4364126413468" height="30" as="geometry" />
        </mxCell>
        <mxCell id="ApsFlAxeWI4yGW2BCktG-36" value="PK" style="shape=partialRectangle;html=1;whiteSpace=wrap;connectable=0;strokeColor=#EEEEEE;overflow=hidden;fillColor=none;top=0;left=0;bottom=0;right=0;pointerEvents=1;fontSize=12;labelBackgroundColor=none;fontColor=#000000;" parent="ApsFlAxeWI4yGW2BCktG-35" vertex="1">
          <mxGeometry width="43" height="30" as="geometry">
            <mxRectangle width="43" height="30" as="alternateBounds" />
          </mxGeometry>
        </mxCell>
        <mxCell id="ApsFlAxeWI4yGW2BCktG-37" value="id товара в каталоге" style="shape=partialRectangle;html=1;whiteSpace=wrap;connectable=0;strokeColor=#EEEEEE;overflow=hidden;fillColor=none;top=0;left=0;bottom=0;right=0;pointerEvents=1;fontSize=12;labelBackgroundColor=none;fontColor=#000000;" parent="ApsFlAxeWI4yGW2BCktG-35" vertex="1">
          <mxGeometry x="43" width="129" height="30" as="geometry">
            <mxRectangle width="129" height="30" as="alternateBounds" />
          </mxGeometry>
        </mxCell>
        <mxCell id="ApsFlAxeWI4yGW2BCktG-38" value="INT" style="shape=partialRectangle;html=1;whiteSpace=wrap;connectable=0;strokeColor=#EEEEEE;overflow=hidden;fillColor=none;top=0;left=0;bottom=0;right=0;pointerEvents=1;fontSize=12;labelBackgroundColor=none;fontColor=#000000;" parent="ApsFlAxeWI4yGW2BCktG-35" vertex="1">
          <mxGeometry x="172" width="51" height="30" as="geometry">
            <mxRectangle width="51" height="30" as="alternateBounds" />
          </mxGeometry>
        </mxCell>
        <mxCell id="FbfgumM9k3iWBc4ifTP3-412" value="" style="shape=tableRow;horizontal=0;startSize=0;swimlaneHead=0;swimlaneBody=0;strokeColor=#EEEEEE;top=0;left=0;bottom=0;right=0;collapsible=0;dropTarget=0;fillColor=none;points=[[0,0.5],[1,0.5]];portConstraint=eastwest;fontSize=16;labelBackgroundColor=none;fontColor=#000000;" parent="FbfgumM9k3iWBc4ifTP3-411" vertex="1">
          <mxGeometry y="60" width="223.4364126413468" height="30" as="geometry" />
        </mxCell>
        <mxCell id="ApsFlAxeWI4yGW2BCktG-33" value="FK" style="shape=partialRectangle;html=1;whiteSpace=wrap;connectable=0;strokeColor=#EEEEEE;overflow=hidden;fillColor=none;top=0;left=0;bottom=0;right=0;pointerEvents=1;fontSize=12;labelBackgroundColor=none;fontColor=#000000;" parent="FbfgumM9k3iWBc4ifTP3-412" vertex="1">
          <mxGeometry width="43" height="30" as="geometry">
            <mxRectangle width="43" height="30" as="alternateBounds" />
          </mxGeometry>
        </mxCell>
        <mxCell id="FbfgumM9k3iWBc4ifTP3-414" value="Номер заказа" style="shape=partialRectangle;html=1;whiteSpace=wrap;connectable=0;strokeColor=#EEEEEE;overflow=hidden;fillColor=none;top=0;left=0;bottom=0;right=0;pointerEvents=1;fontSize=12;labelBackgroundColor=none;fontColor=#000000;" parent="FbfgumM9k3iWBc4ifTP3-412" vertex="1">
          <mxGeometry x="43" width="129" height="30" as="geometry">
            <mxRectangle width="129" height="30" as="alternateBounds" />
          </mxGeometry>
        </mxCell>
        <mxCell id="FbfgumM9k3iWBc4ifTP3-415" value="INT" style="shape=partialRectangle;html=1;whiteSpace=wrap;connectable=0;strokeColor=#EEEEEE;overflow=hidden;fillColor=none;top=0;left=0;bottom=0;right=0;pointerEvents=1;fontSize=12;labelBackgroundColor=none;fontColor=#000000;" parent="FbfgumM9k3iWBc4ifTP3-412" vertex="1">
          <mxGeometry x="172" width="51" height="30" as="geometry">
            <mxRectangle width="51" height="30" as="alternateBounds" />
          </mxGeometry>
        </mxCell>
        <mxCell id="FbfgumM9k3iWBc4ifTP3-416" value="" style="shape=tableRow;horizontal=0;startSize=0;swimlaneHead=0;swimlaneBody=0;strokeColor=#EEEEEE;top=0;left=0;bottom=0;right=0;collapsible=0;dropTarget=0;fillColor=none;points=[[0,0.5],[1,0.5]];portConstraint=eastwest;fontSize=16;labelBackgroundColor=none;fontColor=#000000;" parent="FbfgumM9k3iWBc4ifTP3-411" vertex="1">
          <mxGeometry y="90" width="223.4364126413468" height="29" as="geometry" />
        </mxCell>
        <mxCell id="ApsFlAxeWI4yGW2BCktG-34" value="FK" style="shape=partialRectangle;html=1;whiteSpace=wrap;connectable=0;strokeColor=#EEEEEE;overflow=hidden;fillColor=none;top=0;left=0;bottom=0;right=0;pointerEvents=1;fontSize=12;labelBackgroundColor=none;fontColor=#000000;" parent="FbfgumM9k3iWBc4ifTP3-416" vertex="1">
          <mxGeometry width="43" height="29" as="geometry">
            <mxRectangle width="43" height="29" as="alternateBounds" />
          </mxGeometry>
        </mxCell>
        <mxCell id="FbfgumM9k3iWBc4ifTP3-418" value="id товара" style="shape=partialRectangle;html=1;whiteSpace=wrap;connectable=0;strokeColor=#EEEEEE;overflow=hidden;fillColor=none;top=0;left=0;bottom=0;right=0;pointerEvents=1;fontSize=12;labelBackgroundColor=none;fontColor=#000000;" parent="FbfgumM9k3iWBc4ifTP3-416" vertex="1">
          <mxGeometry x="43" width="129" height="29" as="geometry">
            <mxRectangle width="129" height="29" as="alternateBounds" />
          </mxGeometry>
        </mxCell>
        <mxCell id="FbfgumM9k3iWBc4ifTP3-419" value="INT" style="shape=partialRectangle;html=1;whiteSpace=wrap;connectable=0;strokeColor=#EEEEEE;overflow=hidden;fillColor=none;top=0;left=0;bottom=0;right=0;pointerEvents=1;fontSize=12;labelBackgroundColor=none;fontColor=#000000;" parent="FbfgumM9k3iWBc4ifTP3-416" vertex="1">
          <mxGeometry x="172" width="51" height="29" as="geometry">
            <mxRectangle width="51" height="29" as="alternateBounds" />
          </mxGeometry>
        </mxCell>
        <mxCell id="FbfgumM9k3iWBc4ifTP3-420" value="" style="shape=singleArrow;whiteSpace=wrap;html=1;arrowWidth=0.4;arrowSize=0.4;fontSize=14;startSize=30;labelBackgroundColor=none;fillColor=#56517E;strokeColor=#EEEEEE;fontColor=#000000;" parent="FbfgumM9k3iWBc4ifTP3-416" vertex="1">
          <mxGeometry x="223" width="NaN" height="29" as="geometry">
            <mxRectangle width="NaN" height="29" as="alternateBounds" />
          </mxGeometry>
        </mxCell>
        <mxCell id="FbfgumM9k3iWBc4ifTP3-434" value="Точка выдачи" style="shape=table;startSize=30;container=1;collapsible=0;childLayout=tableLayout;strokeColor=#000000;fontSize=14;labelBackgroundColor=none;fillColor=#56517E;fontColor=#FFFFFF;" parent="1" vertex="1">
          <mxGeometry x="687" y="922" width="231.6067744954422" height="120" as="geometry" />
        </mxCell>
        <mxCell id="FbfgumM9k3iWBc4ifTP3-435" value="" style="shape=tableRow;horizontal=0;startSize=0;swimlaneHead=0;swimlaneBody=0;strokeColor=#EEEEEE;top=0;left=0;bottom=0;right=0;collapsible=0;dropTarget=0;fillColor=none;points=[[0,0.5],[1,0.5]];portConstraint=eastwest;fontSize=16;labelBackgroundColor=none;fontColor=#000000;" parent="FbfgumM9k3iWBc4ifTP3-434" vertex="1">
          <mxGeometry y="30" width="231.6067744954422" height="30" as="geometry" />
        </mxCell>
        <mxCell id="ApsFlAxeWI4yGW2BCktG-78" value="PK" style="shape=partialRectangle;html=1;whiteSpace=wrap;connectable=0;strokeColor=#EEEEEE;overflow=hidden;fillColor=none;top=0;left=0;bottom=0;right=0;pointerEvents=1;fontSize=12;labelBackgroundColor=none;fontColor=#000000;" parent="FbfgumM9k3iWBc4ifTP3-435" vertex="1">
          <mxGeometry width="42" height="30" as="geometry">
            <mxRectangle width="42" height="30" as="alternateBounds" />
          </mxGeometry>
        </mxCell>
        <mxCell id="FbfgumM9k3iWBc4ifTP3-437" value="ID точки" style="shape=partialRectangle;html=1;whiteSpace=wrap;connectable=0;strokeColor=#EEEEEE;overflow=hidden;fillColor=none;top=0;left=0;bottom=0;right=0;pointerEvents=1;fontSize=12;labelBackgroundColor=none;fontColor=#000000;" parent="FbfgumM9k3iWBc4ifTP3-435" vertex="1">
          <mxGeometry x="42" width="100" height="30" as="geometry">
            <mxRectangle width="100" height="30" as="alternateBounds" />
          </mxGeometry>
        </mxCell>
        <mxCell id="FbfgumM9k3iWBc4ifTP3-438" value="INT" style="shape=partialRectangle;html=1;whiteSpace=wrap;connectable=0;strokeColor=#EEEEEE;overflow=hidden;fillColor=none;top=0;left=0;bottom=0;right=0;pointerEvents=1;fontSize=12;labelBackgroundColor=none;fontColor=#000000;" parent="FbfgumM9k3iWBc4ifTP3-435" vertex="1">
          <mxGeometry x="142" width="90" height="30" as="geometry">
            <mxRectangle width="90" height="30" as="alternateBounds" />
          </mxGeometry>
        </mxCell>
        <mxCell id="FbfgumM9k3iWBc4ifTP3-439" value="" style="shape=tableRow;horizontal=0;startSize=0;swimlaneHead=0;swimlaneBody=0;strokeColor=#EEEEEE;top=0;left=0;bottom=0;right=0;collapsible=0;dropTarget=0;fillColor=none;points=[[0,0.5],[1,0.5]];portConstraint=eastwest;fontSize=16;labelBackgroundColor=none;fontColor=#000000;" parent="FbfgumM9k3iWBc4ifTP3-434" vertex="1">
          <mxGeometry y="60" width="231.6067744954422" height="30" as="geometry" />
        </mxCell>
        <mxCell id="ApsFlAxeWI4yGW2BCktG-79" style="shape=partialRectangle;html=1;whiteSpace=wrap;connectable=0;strokeColor=#EEEEEE;overflow=hidden;fillColor=none;top=0;left=0;bottom=0;right=0;pointerEvents=1;fontSize=12;labelBackgroundColor=none;fontColor=#000000;" parent="FbfgumM9k3iWBc4ifTP3-439" vertex="1">
          <mxGeometry width="42" height="30" as="geometry">
            <mxRectangle width="42" height="30" as="alternateBounds" />
          </mxGeometry>
        </mxCell>
        <mxCell id="FbfgumM9k3iWBc4ifTP3-441" value="Адрес точки" style="shape=partialRectangle;html=1;whiteSpace=wrap;connectable=0;strokeColor=#EEEEEE;overflow=hidden;fillColor=none;top=0;left=0;bottom=0;right=0;pointerEvents=1;fontSize=12;labelBackgroundColor=none;fontColor=#000000;" parent="FbfgumM9k3iWBc4ifTP3-439" vertex="1">
          <mxGeometry x="42" width="100" height="30" as="geometry">
            <mxRectangle width="100" height="30" as="alternateBounds" />
          </mxGeometry>
        </mxCell>
        <mxCell id="FbfgumM9k3iWBc4ifTP3-442" value="VARCHAR(50)" style="shape=partialRectangle;html=1;whiteSpace=wrap;connectable=0;strokeColor=#EEEEEE;overflow=hidden;fillColor=none;top=0;left=0;bottom=0;right=0;pointerEvents=1;fontSize=12;labelBackgroundColor=none;fontColor=#000000;" parent="FbfgumM9k3iWBc4ifTP3-439" vertex="1">
          <mxGeometry x="142" width="90" height="30" as="geometry">
            <mxRectangle width="90" height="30" as="alternateBounds" />
          </mxGeometry>
        </mxCell>
        <mxCell id="FbfgumM9k3iWBc4ifTP3-443" value="" style="shape=tableRow;horizontal=0;startSize=0;swimlaneHead=0;swimlaneBody=0;strokeColor=#EEEEEE;top=0;left=0;bottom=0;right=0;collapsible=0;dropTarget=0;fillColor=none;points=[[0,0.5],[1,0.5]];portConstraint=eastwest;fontSize=16;labelBackgroundColor=none;fontColor=#000000;" parent="FbfgumM9k3iWBc4ifTP3-434" vertex="1">
          <mxGeometry y="90" width="231.6067744954422" height="30" as="geometry" />
        </mxCell>
        <mxCell id="ApsFlAxeWI4yGW2BCktG-80" style="shape=partialRectangle;html=1;whiteSpace=wrap;connectable=0;strokeColor=#EEEEEE;overflow=hidden;fillColor=none;top=0;left=0;bottom=0;right=0;pointerEvents=1;fontSize=12;labelBackgroundColor=none;fontColor=#000000;" parent="FbfgumM9k3iWBc4ifTP3-443" vertex="1">
          <mxGeometry width="42" height="30" as="geometry">
            <mxRectangle width="42" height="30" as="alternateBounds" />
          </mxGeometry>
        </mxCell>
        <mxCell id="FbfgumM9k3iWBc4ifTP3-445" value="Время работы" style="shape=partialRectangle;html=1;whiteSpace=wrap;connectable=0;strokeColor=#EEEEEE;overflow=hidden;fillColor=none;top=0;left=0;bottom=0;right=0;pointerEvents=1;fontSize=12;labelBackgroundColor=none;fontColor=#000000;" parent="FbfgumM9k3iWBc4ifTP3-443" vertex="1">
          <mxGeometry x="42" width="100" height="30" as="geometry">
            <mxRectangle width="100" height="30" as="alternateBounds" />
          </mxGeometry>
        </mxCell>
        <mxCell id="FbfgumM9k3iWBc4ifTP3-446" value="DATE" style="shape=partialRectangle;html=1;whiteSpace=wrap;connectable=0;strokeColor=#EEEEEE;overflow=hidden;fillColor=none;top=0;left=0;bottom=0;right=0;pointerEvents=1;fontSize=12;labelBackgroundColor=none;fontColor=#000000;" parent="FbfgumM9k3iWBc4ifTP3-443" vertex="1">
          <mxGeometry x="142" width="90" height="30" as="geometry">
            <mxRectangle width="90" height="30" as="alternateBounds" />
          </mxGeometry>
        </mxCell>
        <mxCell id="FbfgumM9k3iWBc4ifTP3-471" value="Телефон точки доступа" style="shape=table;startSize=30;container=1;collapsible=0;childLayout=tableLayout;strokeColor=#000000;fontSize=14;labelBackgroundColor=none;fillColor=#56517E;fontColor=#FFFFFF;" parent="1" vertex="1">
          <mxGeometry x="990" y="979" width="216.63091406884132" height="85.49405887488092" as="geometry" />
        </mxCell>
        <mxCell id="FbfgumM9k3iWBc4ifTP3-472" value="" style="shape=tableRow;horizontal=0;startSize=0;swimlaneHead=0;swimlaneBody=0;strokeColor=#EEEEEE;top=0;left=0;bottom=0;right=0;collapsible=0;dropTarget=0;fillColor=none;points=[[0,0.5],[1,0.5]];portConstraint=eastwest;fontSize=16;labelBackgroundColor=none;fontColor=#000000;" parent="FbfgumM9k3iWBc4ifTP3-471" vertex="1">
          <mxGeometry y="30" width="216.63091406884132" height="26" as="geometry" />
        </mxCell>
        <mxCell id="ApsFlAxeWI4yGW2BCktG-81" value="PK" style="shape=partialRectangle;html=1;whiteSpace=wrap;connectable=0;strokeColor=#EEEEEE;overflow=hidden;fillColor=none;top=0;left=0;bottom=0;right=0;pointerEvents=1;fontSize=12;labelBackgroundColor=none;fontColor=#000000;" parent="FbfgumM9k3iWBc4ifTP3-472" vertex="1">
          <mxGeometry width="49" height="26" as="geometry">
            <mxRectangle width="49" height="26" as="alternateBounds" />
          </mxGeometry>
        </mxCell>
        <mxCell id="FbfgumM9k3iWBc4ifTP3-474" value="Телефон" style="shape=partialRectangle;html=1;whiteSpace=wrap;connectable=0;strokeColor=#EEEEEE;overflow=hidden;fillColor=none;top=0;left=0;bottom=0;right=0;pointerEvents=1;fontSize=12;labelBackgroundColor=none;fontColor=#000000;" parent="FbfgumM9k3iWBc4ifTP3-472" vertex="1">
          <mxGeometry x="49" width="87" height="26" as="geometry">
            <mxRectangle width="87" height="26" as="alternateBounds" />
          </mxGeometry>
        </mxCell>
        <mxCell id="FbfgumM9k3iWBc4ifTP3-475" value="CHAR(30)" style="shape=partialRectangle;html=1;whiteSpace=wrap;connectable=0;strokeColor=#EEEEEE;overflow=hidden;fillColor=none;top=0;left=0;bottom=0;right=0;pointerEvents=1;fontSize=12;labelBackgroundColor=none;fontColor=#000000;" parent="FbfgumM9k3iWBc4ifTP3-472" vertex="1">
          <mxGeometry x="136" width="81" height="26" as="geometry">
            <mxRectangle width="81" height="26" as="alternateBounds" />
          </mxGeometry>
        </mxCell>
        <mxCell id="FbfgumM9k3iWBc4ifTP3-476" value="" style="shape=tableRow;horizontal=0;startSize=0;swimlaneHead=0;swimlaneBody=0;strokeColor=#EEEEEE;top=0;left=0;bottom=0;right=0;collapsible=0;dropTarget=0;fillColor=none;points=[[0,0.5],[1,0.5]];portConstraint=eastwest;fontSize=16;labelBackgroundColor=none;fontColor=#000000;" parent="FbfgumM9k3iWBc4ifTP3-471" vertex="1">
          <mxGeometry y="56" width="216.63091406884132" height="29" as="geometry" />
        </mxCell>
        <mxCell id="ApsFlAxeWI4yGW2BCktG-82" value="FK, PK" style="shape=partialRectangle;html=1;whiteSpace=wrap;connectable=0;strokeColor=#EEEEEE;overflow=hidden;fillColor=none;top=0;left=0;bottom=0;right=0;pointerEvents=1;fontSize=12;labelBackgroundColor=none;fontColor=#000000;" parent="FbfgumM9k3iWBc4ifTP3-476" vertex="1">
          <mxGeometry width="49" height="29" as="geometry">
            <mxRectangle width="49" height="29" as="alternateBounds" />
          </mxGeometry>
        </mxCell>
        <mxCell id="FbfgumM9k3iWBc4ifTP3-478" value="ID точки" style="shape=partialRectangle;html=1;whiteSpace=wrap;connectable=0;strokeColor=#EEEEEE;overflow=hidden;fillColor=none;top=0;left=0;bottom=0;right=0;pointerEvents=1;fontSize=12;labelBackgroundColor=none;fontColor=#000000;" parent="FbfgumM9k3iWBc4ifTP3-476" vertex="1">
          <mxGeometry x="49" width="87" height="29" as="geometry">
            <mxRectangle width="87" height="29" as="alternateBounds" />
          </mxGeometry>
        </mxCell>
        <mxCell id="FbfgumM9k3iWBc4ifTP3-479" value="INT" style="shape=partialRectangle;html=1;whiteSpace=wrap;connectable=0;strokeColor=#EEEEEE;overflow=hidden;fillColor=none;top=0;left=0;bottom=0;right=0;pointerEvents=1;fontSize=12;labelBackgroundColor=none;fontColor=#000000;" parent="FbfgumM9k3iWBc4ifTP3-476" vertex="1">
          <mxGeometry x="136" width="81" height="29" as="geometry">
            <mxRectangle width="81" height="29" as="alternateBounds" />
          </mxGeometry>
        </mxCell>
        <mxCell id="FbfgumM9k3iWBc4ifTP3-571" style="edgeStyle=orthogonalEdgeStyle;rounded=0;orthogonalLoop=1;jettySize=auto;html=1;exitX=1;exitY=0.5;exitDx=0;exitDy=0;endArrow=ERone;endFill=0;labelBackgroundColor=none;strokeColor=#000000;fontColor=#000000;startArrow=ERoneToMany;startFill=0;" parent="1" source="FbfgumM9k3iWBc4ifTP3-412" target="FbfgumM9k3iWBc4ifTP3-271" edge="1">
          <mxGeometry relative="1" as="geometry">
            <mxPoint x="747" y="1090" as="targetPoint" />
          </mxGeometry>
        </mxCell>
        <mxCell id="ouPpzh7KKvOovtRcHMGd-2" value="" style="edgeStyle=entityRelationEdgeStyle;fontSize=12;html=1;endArrow=ERoneToMany;startArrow=ERone;rounded=0;strokeColor=#000000;align=center;verticalAlign=middle;fontFamily=Helvetica;fontColor=#000000;labelBackgroundColor=none;exitX=1;exitY=0.5;exitDx=0;exitDy=0;entryX=0;entryY=0.5;entryDx=0;entryDy=0;startFill=0;endFill=0;" parent="1" source="FbfgumM9k3iWBc4ifTP3-146" target="FbfgumM9k3iWBc4ifTP3-262" edge="1">
          <mxGeometry width="100" height="100" relative="1" as="geometry">
            <mxPoint x="1817" y="1610" as="sourcePoint" />
            <mxPoint x="1917" y="1510" as="targetPoint" />
          </mxGeometry>
        </mxCell>
        <mxCell id="ouPpzh7KKvOovtRcHMGd-3" value="" style="edgeStyle=entityRelationEdgeStyle;fontSize=12;html=1;endArrow=ERone;startArrow=ERoneToMany;rounded=0;strokeColor=#000000;align=center;verticalAlign=middle;fontFamily=Helvetica;fontColor=#000000;labelBackgroundColor=none;exitX=1;exitY=0.5;exitDx=0;exitDy=0;entryX=0;entryY=0.5;entryDx=0;entryDy=0;startFill=0;endFill=0;" parent="1" source="FbfgumM9k3iWBc4ifTP3-200" target="FbfgumM9k3iWBc4ifTP3-146" edge="1">
          <mxGeometry width="100" height="100" relative="1" as="geometry">
            <mxPoint x="1477" y="1910" as="sourcePoint" />
            <mxPoint x="1577" y="1810" as="targetPoint" />
          </mxGeometry>
        </mxCell>
        <mxCell id="ouPpzh7KKvOovtRcHMGd-4" value="" style="edgeStyle=entityRelationEdgeStyle;fontSize=12;html=1;endArrow=ERzeroToMany;startArrow=ERone;rounded=0;strokeColor=#000000;align=center;verticalAlign=middle;fontFamily=Helvetica;fontColor=#000000;labelBackgroundColor=none;entryX=1;entryY=0.5;entryDx=0;entryDy=0;exitX=0;exitY=0.5;exitDx=0;exitDy=0;startFill=0;endFill=0;" parent="1" source="FbfgumM9k3iWBc4ifTP3-146" target="FbfgumM9k3iWBc4ifTP3-37" edge="1">
          <mxGeometry width="100" height="100" relative="1" as="geometry">
            <mxPoint x="1502.2740000000003" y="1530.92" as="sourcePoint" />
            <mxPoint x="1197" y="1625" as="targetPoint" />
            <Array as="points">
              <mxPoint x="1527" y="1570" />
              <mxPoint x="1387" y="1540" />
            </Array>
          </mxGeometry>
        </mxCell>
        <mxCell id="ouPpzh7KKvOovtRcHMGd-5" value="" style="edgeStyle=entityRelationEdgeStyle;fontSize=12;html=1;endArrow=ERzeroToMany;startArrow=ERone;rounded=0;strokeColor=#000000;align=center;verticalAlign=middle;fontFamily=Helvetica;fontColor=#000000;labelBackgroundColor=none;exitX=1;exitY=0.5;exitDx=0;exitDy=0;entryX=0;entryY=0.5;entryDx=0;entryDy=0;startFill=0;endFill=0;" parent="1" source="FbfgumM9k3iWBc4ifTP3-435" target="FbfgumM9k3iWBc4ifTP3-476" edge="1">
          <mxGeometry width="100" height="100" relative="1" as="geometry">
            <mxPoint x="1277" y="1520" as="sourcePoint" />
            <mxPoint x="1377" y="1420" as="targetPoint" />
          </mxGeometry>
        </mxCell>
        <mxCell id="ouPpzh7KKvOovtRcHMGd-6" value="" style="edgeStyle=entityRelationEdgeStyle;fontSize=12;html=1;endArrow=ERzeroToMany;startArrow=ERone;rounded=0;strokeColor=#000000;align=center;verticalAlign=middle;fontFamily=Helvetica;fontColor=#000000;labelBackgroundColor=none;exitX=1;exitY=0.5;exitDx=0;exitDy=0;entryX=0;entryY=0.5;entryDx=0;entryDy=0;endFill=0;startFill=0;" parent="1" source="FbfgumM9k3iWBc4ifTP3-78" target="FbfgumM9k3iWBc4ifTP3-33" edge="1">
          <mxGeometry width="100" height="100" relative="1" as="geometry">
            <mxPoint x="937.0033536783858" y="1310" as="sourcePoint" />
            <mxPoint x="1015.4200000000001" y="1605" as="targetPoint" />
          </mxGeometry>
        </mxCell>
        <mxCell id="ouPpzh7KKvOovtRcHMGd-9" value="" style="edgeStyle=entityRelationEdgeStyle;fontSize=12;html=1;endArrow=ERoneToMany;startArrow=ERone;rounded=0;strokeColor=#000000;align=center;verticalAlign=middle;fontFamily=Helvetica;fontColor=#000000;labelBackgroundColor=none;exitX=0;exitY=0.5;exitDx=0;exitDy=0;entryX=1;entryY=0.5;entryDx=0;entryDy=0;startFill=0;" parent="1" source="FbfgumM9k3iWBc4ifTP3-78" target="FbfgumM9k3iWBc4ifTP3-416" edge="1">
          <mxGeometry width="100" height="100" relative="1" as="geometry">
            <mxPoint x="607" y="1350" as="sourcePoint" />
            <mxPoint x="707" y="1250" as="targetPoint" />
          </mxGeometry>
        </mxCell>
        <mxCell id="ouPpzh7KKvOovtRcHMGd-11" value="" style="edgeStyle=entityRelationEdgeStyle;fontSize=12;html=1;endArrow=ERone;startArrow=ERone;rounded=0;strokeColor=#000000;align=center;verticalAlign=middle;fontFamily=Helvetica;fontColor=#000000;labelBackgroundColor=none;exitX=1;exitY=0.5;exitDx=0;exitDy=0;entryX=0;entryY=0.5;entryDx=0;entryDy=0;startFill=0;endFill=0;" parent="1" source="FbfgumM9k3iWBc4ifTP3-271" target="FbfgumM9k3iWBc4ifTP3-221" edge="1">
          <mxGeometry width="100" height="100" relative="1" as="geometry">
            <mxPoint x="967" y="980" as="sourcePoint" />
            <mxPoint x="1067" y="880" as="targetPoint" />
          </mxGeometry>
        </mxCell>
        <mxCell id="ouPpzh7KKvOovtRcHMGd-13" value="" style="edgeStyle=entityRelationEdgeStyle;fontSize=12;html=1;endArrow=ERoneToMany;startArrow=ERone;rounded=0;strokeColor=#000000;align=center;verticalAlign=middle;fontFamily=Helvetica;fontColor=#000000;labelBackgroundColor=none;entryX=1;entryY=0.5;entryDx=0;entryDy=0;exitX=0;exitY=0.5;exitDx=0;exitDy=0;startFill=0;" parent="1" source="FbfgumM9k3iWBc4ifTP3-322" target="FbfgumM9k3iWBc4ifTP3-303" edge="1">
          <mxGeometry width="100" height="100" relative="1" as="geometry">
            <mxPoint x="1097" y="1200" as="sourcePoint" />
            <mxPoint x="1197" y="1100" as="targetPoint" />
          </mxGeometry>
        </mxCell>
        <mxCell id="ouPpzh7KKvOovtRcHMGd-14" value="" style="edgeStyle=entityRelationEdgeStyle;fontSize=12;html=1;endArrow=ERoneToMany;startArrow=ERone;rounded=0;strokeColor=#000000;align=center;verticalAlign=middle;fontFamily=Helvetica;fontColor=#000000;labelBackgroundColor=none;entryX=1;entryY=0.5;entryDx=0;entryDy=0;exitX=0;exitY=0.5;exitDx=0;exitDy=0;startFill=0;" parent="1" source="FbfgumM9k3iWBc4ifTP3-318" target="FbfgumM9k3iWBc4ifTP3-249" edge="1">
          <mxGeometry width="100" height="100" relative="1" as="geometry">
            <mxPoint x="1097" y="910" as="sourcePoint" />
            <mxPoint x="1197" y="810" as="targetPoint" />
          </mxGeometry>
        </mxCell>
        <mxCell id="ouPpzh7KKvOovtRcHMGd-15" value="" style="edgeStyle=entityRelationEdgeStyle;fontSize=12;html=1;endArrow=ERoneToMany;startArrow=ERmandOne;rounded=0;strokeColor=#000000;align=center;verticalAlign=middle;fontFamily=Helvetica;fontColor=#000000;labelBackgroundColor=none;entryX=1;entryY=0.5;entryDx=0;entryDy=0;exitX=0;exitY=0.5;exitDx=0;exitDy=0;" parent="1" source="FbfgumM9k3iWBc4ifTP3-391" target="FbfgumM9k3iWBc4ifTP3-322" edge="1">
          <mxGeometry width="100" height="100" relative="1" as="geometry">
            <mxPoint x="1707" y="1120" as="sourcePoint" />
            <mxPoint x="1807" y="1020" as="targetPoint" />
          </mxGeometry>
        </mxCell>
        <mxCell id="ApsFlAxeWI4yGW2BCktG-1" value="Подкатегория" style="shape=table;startSize=30;container=1;collapsible=0;childLayout=tableLayout;fontSize=14;fillColor=#56517E;labelBackgroundColor=none;strokeColor=#000000;fontColor=#FFFFFF;" parent="1" vertex="1">
          <mxGeometry x="456" y="1193" width="240.154790463655" height="120.00000000000068" as="geometry" />
        </mxCell>
        <mxCell id="ApsFlAxeWI4yGW2BCktG-2" value="" style="shape=tableRow;horizontal=0;startSize=0;swimlaneHead=0;swimlaneBody=0;strokeColor=#EEEEEE;top=0;left=0;bottom=0;right=0;collapsible=0;dropTarget=0;fillColor=none;points=[[0,0.5],[1,0.5]];portConstraint=eastwest;fontSize=16;labelBackgroundColor=none;fontColor=#000000;" parent="ApsFlAxeWI4yGW2BCktG-1" vertex="1">
          <mxGeometry y="30" width="240.154790463655" height="30" as="geometry" />
        </mxCell>
        <mxCell id="ApsFlAxeWI4yGW2BCktG-26" value="PK" style="shape=partialRectangle;html=1;whiteSpace=wrap;connectable=0;strokeColor=#EEEEEE;overflow=hidden;fillColor=none;top=0;left=0;bottom=0;right=0;pointerEvents=1;fontSize=12;labelBackgroundColor=none;fontColor=#000000;" parent="ApsFlAxeWI4yGW2BCktG-2" vertex="1">
          <mxGeometry width="40" height="30" as="geometry">
            <mxRectangle width="40" height="30" as="alternateBounds" />
          </mxGeometry>
        </mxCell>
        <mxCell id="ApsFlAxeWI4yGW2BCktG-3" value="Подкатегория id" style="shape=partialRectangle;html=1;whiteSpace=wrap;connectable=0;strokeColor=#EEEEEE;overflow=hidden;fillColor=none;top=0;left=0;bottom=0;right=0;pointerEvents=1;fontSize=12;labelBackgroundColor=none;fontColor=#000000;" parent="ApsFlAxeWI4yGW2BCktG-2" vertex="1">
          <mxGeometry x="40" width="105" height="30" as="geometry">
            <mxRectangle width="105" height="30" as="alternateBounds" />
          </mxGeometry>
        </mxCell>
        <mxCell id="ApsFlAxeWI4yGW2BCktG-4" value="INT" style="shape=partialRectangle;html=1;whiteSpace=wrap;connectable=0;strokeColor=#EEEEEE;overflow=hidden;fillColor=none;top=0;left=0;bottom=0;right=0;pointerEvents=1;fontSize=12;labelBackgroundColor=none;fontColor=#000000;" parent="ApsFlAxeWI4yGW2BCktG-2" vertex="1">
          <mxGeometry x="145" width="95" height="30" as="geometry">
            <mxRectangle width="95" height="30" as="alternateBounds" />
          </mxGeometry>
        </mxCell>
        <mxCell id="ApsFlAxeWI4yGW2BCktG-5" value="" style="shape=tableRow;horizontal=0;startSize=0;swimlaneHead=0;swimlaneBody=0;strokeColor=#EEEEEE;top=0;left=0;bottom=0;right=0;collapsible=0;dropTarget=0;fillColor=none;points=[[0,0.5],[1,0.5]];portConstraint=eastwest;fontSize=16;labelBackgroundColor=none;fontColor=#000000;" parent="ApsFlAxeWI4yGW2BCktG-1" vertex="1">
          <mxGeometry y="60" width="240.154790463655" height="30" as="geometry" />
        </mxCell>
        <mxCell id="ApsFlAxeWI4yGW2BCktG-27" style="shape=partialRectangle;html=1;whiteSpace=wrap;connectable=0;strokeColor=#EEEEEE;overflow=hidden;fillColor=none;top=0;left=0;bottom=0;right=0;pointerEvents=1;fontSize=12;labelBackgroundColor=none;fontColor=#000000;" parent="ApsFlAxeWI4yGW2BCktG-5" vertex="1">
          <mxGeometry width="40" height="30" as="geometry">
            <mxRectangle width="40" height="30" as="alternateBounds" />
          </mxGeometry>
        </mxCell>
        <mxCell id="ApsFlAxeWI4yGW2BCktG-6" value="Название" style="shape=partialRectangle;html=1;whiteSpace=wrap;connectable=0;strokeColor=#EEEEEE;overflow=hidden;fillColor=none;top=0;left=0;bottom=0;right=0;pointerEvents=1;fontSize=12;labelBackgroundColor=none;fontColor=#000000;" parent="ApsFlAxeWI4yGW2BCktG-5" vertex="1">
          <mxGeometry x="40" width="105" height="30" as="geometry">
            <mxRectangle width="105" height="30" as="alternateBounds" />
          </mxGeometry>
        </mxCell>
        <mxCell id="ApsFlAxeWI4yGW2BCktG-7" value="VARCHAR(50)" style="shape=partialRectangle;html=1;whiteSpace=wrap;connectable=0;strokeColor=#EEEEEE;overflow=hidden;fillColor=none;top=0;left=0;bottom=0;right=0;pointerEvents=1;fontSize=12;labelBackgroundColor=none;fontColor=#000000;" parent="ApsFlAxeWI4yGW2BCktG-5" vertex="1">
          <mxGeometry x="145" width="95" height="30" as="geometry">
            <mxRectangle width="95" height="30" as="alternateBounds" />
          </mxGeometry>
        </mxCell>
        <mxCell id="ApsFlAxeWI4yGW2BCktG-8" value="" style="shape=singleArrow;whiteSpace=wrap;html=1;arrowWidth=0.4;arrowSize=0.4;fontSize=14;startSize=30;labelBackgroundColor=none;fillColor=#56517E;strokeColor=#EEEEEE;fontColor=#000000;" parent="ApsFlAxeWI4yGW2BCktG-5" vertex="1">
          <mxGeometry x="240" width="NaN" height="30" as="geometry">
            <mxRectangle width="NaN" height="30" as="alternateBounds" />
          </mxGeometry>
        </mxCell>
        <mxCell id="ApsFlAxeWI4yGW2BCktG-9" style="shape=tableRow;horizontal=0;startSize=0;swimlaneHead=0;swimlaneBody=0;strokeColor=#EEEEEE;top=0;left=0;bottom=0;right=0;collapsible=0;dropTarget=0;fillColor=none;points=[[0,0.5],[1,0.5]];portConstraint=eastwest;fontSize=16;labelBackgroundColor=none;fontColor=#000000;" parent="ApsFlAxeWI4yGW2BCktG-1" vertex="1">
          <mxGeometry y="90" width="240.154790463655" height="30" as="geometry" />
        </mxCell>
        <mxCell id="ApsFlAxeWI4yGW2BCktG-28" value="FK" style="shape=partialRectangle;html=1;whiteSpace=wrap;connectable=0;strokeColor=#EEEEEE;overflow=hidden;fillColor=none;top=0;left=0;bottom=0;right=0;pointerEvents=1;fontSize=12;labelBackgroundColor=none;fontColor=#000000;" parent="ApsFlAxeWI4yGW2BCktG-9" vertex="1">
          <mxGeometry width="40" height="30" as="geometry">
            <mxRectangle width="40" height="30" as="alternateBounds" />
          </mxGeometry>
        </mxCell>
        <mxCell id="ApsFlAxeWI4yGW2BCktG-10" value="Категория id" style="shape=partialRectangle;html=1;whiteSpace=wrap;connectable=0;strokeColor=#EEEEEE;overflow=hidden;fillColor=none;top=0;left=0;bottom=0;right=0;pointerEvents=1;fontSize=12;labelBackgroundColor=none;fontColor=#000000;" parent="ApsFlAxeWI4yGW2BCktG-9" vertex="1">
          <mxGeometry x="40" width="105" height="30" as="geometry">
            <mxRectangle width="105" height="30" as="alternateBounds" />
          </mxGeometry>
        </mxCell>
        <mxCell id="ApsFlAxeWI4yGW2BCktG-11" value="INT" style="shape=partialRectangle;html=1;whiteSpace=wrap;connectable=0;strokeColor=#EEEEEE;overflow=hidden;fillColor=none;top=0;left=0;bottom=0;right=0;pointerEvents=1;fontSize=12;labelBackgroundColor=none;fontColor=#000000;" parent="ApsFlAxeWI4yGW2BCktG-9" vertex="1">
          <mxGeometry x="145" width="95" height="30" as="geometry">
            <mxRectangle width="95" height="30" as="alternateBounds" />
          </mxGeometry>
        </mxCell>
        <mxCell id="ApsFlAxeWI4yGW2BCktG-12" style="shape=singleArrow;whiteSpace=wrap;html=1;arrowWidth=0.4;arrowSize=0.4;fontSize=14;startSize=30;labelBackgroundColor=none;fillColor=#56517E;strokeColor=#EEEEEE;fontColor=#000000;" parent="ApsFlAxeWI4yGW2BCktG-9" vertex="1">
          <mxGeometry x="240" width="NaN" height="30" as="geometry">
            <mxRectangle width="NaN" height="30" as="alternateBounds" />
          </mxGeometry>
        </mxCell>
        <mxCell id="ApsFlAxeWI4yGW2BCktG-13" style="edgeStyle=orthogonalEdgeStyle;rounded=0;orthogonalLoop=1;jettySize=auto;html=1;exitX=1;exitY=0.5;exitDx=0;exitDy=0;entryX=0;entryY=0.5;entryDx=0;entryDy=0;strokeColor=#000000;labelBackgroundColor=none;fontColor=#000000;startArrow=ERone;startFill=0;endArrow=ERoneToMany;endFill=0;" parent="1" source="ApsFlAxeWI4yGW2BCktG-2" target="FbfgumM9k3iWBc4ifTP3-82" edge="1">
          <mxGeometry relative="1" as="geometry" />
        </mxCell>
        <mxCell id="ApsFlAxeWI4yGW2BCktG-14" value="Категория" style="shape=table;startSize=30;container=1;collapsible=0;childLayout=tableLayout;fontSize=14;labelBackgroundColor=none;fillColor=#56517E;strokeColor=#000000;fontColor=#FFFFFF;" parent="1" vertex="1">
          <mxGeometry x="494" y="1336" width="218.28734511223377" height="88.9375228881836" as="geometry" />
        </mxCell>
        <mxCell id="ApsFlAxeWI4yGW2BCktG-15" value="" style="shape=tableRow;horizontal=0;startSize=0;swimlaneHead=0;swimlaneBody=0;strokeColor=#EEEEEE;top=0;left=0;bottom=0;right=0;collapsible=0;dropTarget=0;fillColor=none;points=[[0,0.5],[1,0.5]];portConstraint=eastwest;fontSize=16;labelBackgroundColor=none;fontColor=#000000;" parent="ApsFlAxeWI4yGW2BCktG-14" vertex="1">
          <mxGeometry y="30" width="218.28734511223377" height="30" as="geometry" />
        </mxCell>
        <mxCell id="ApsFlAxeWI4yGW2BCktG-29" value="PK" style="shape=partialRectangle;html=1;whiteSpace=wrap;connectable=0;strokeColor=#EEEEEE;overflow=hidden;fillColor=none;top=0;left=0;bottom=0;right=0;pointerEvents=1;fontSize=12;labelBackgroundColor=none;fontColor=#000000;" parent="ApsFlAxeWI4yGW2BCktG-15" vertex="1">
          <mxGeometry width="35" height="30" as="geometry">
            <mxRectangle width="35" height="30" as="alternateBounds" />
          </mxGeometry>
        </mxCell>
        <mxCell id="ApsFlAxeWI4yGW2BCktG-16" value="Категория id" style="shape=partialRectangle;html=1;whiteSpace=wrap;connectable=0;strokeColor=#EEEEEE;overflow=hidden;fillColor=none;top=0;left=0;bottom=0;right=0;pointerEvents=1;fontSize=12;labelBackgroundColor=none;fontColor=#000000;" parent="ApsFlAxeWI4yGW2BCktG-15" vertex="1">
          <mxGeometry x="35" width="94" height="30" as="geometry">
            <mxRectangle width="94" height="30" as="alternateBounds" />
          </mxGeometry>
        </mxCell>
        <mxCell id="ApsFlAxeWI4yGW2BCktG-17" value="INT" style="shape=partialRectangle;html=1;whiteSpace=wrap;connectable=0;strokeColor=#EEEEEE;overflow=hidden;fillColor=none;top=0;left=0;bottom=0;right=0;pointerEvents=1;fontSize=12;labelBackgroundColor=none;fontColor=#000000;" parent="ApsFlAxeWI4yGW2BCktG-15" vertex="1">
          <mxGeometry x="129" width="89" height="30" as="geometry">
            <mxRectangle width="89" height="30" as="alternateBounds" />
          </mxGeometry>
        </mxCell>
        <mxCell id="ApsFlAxeWI4yGW2BCktG-22" style="shape=tableRow;horizontal=0;startSize=0;swimlaneHead=0;swimlaneBody=0;strokeColor=#EEEEEE;top=0;left=0;bottom=0;right=0;collapsible=0;dropTarget=0;fillColor=none;points=[[0,0.5],[1,0.5]];portConstraint=eastwest;fontSize=16;labelBackgroundColor=none;fontColor=#000000;" parent="ApsFlAxeWI4yGW2BCktG-14" vertex="1">
          <mxGeometry y="60" width="218.28734511223377" height="29" as="geometry" />
        </mxCell>
        <mxCell id="ApsFlAxeWI4yGW2BCktG-30" value="" style="shape=partialRectangle;html=1;whiteSpace=wrap;connectable=0;strokeColor=#EEEEEE;overflow=hidden;fillColor=none;top=0;left=0;bottom=0;right=0;pointerEvents=1;fontSize=12;labelBackgroundColor=none;fontColor=#000000;" parent="ApsFlAxeWI4yGW2BCktG-22" vertex="1">
          <mxGeometry width="35" height="29" as="geometry">
            <mxRectangle width="35" height="29" as="alternateBounds" />
          </mxGeometry>
        </mxCell>
        <mxCell id="ApsFlAxeWI4yGW2BCktG-23" value="Название" style="shape=partialRectangle;html=1;whiteSpace=wrap;connectable=0;strokeColor=#EEEEEE;overflow=hidden;fillColor=none;top=0;left=0;bottom=0;right=0;pointerEvents=1;fontSize=12;labelBackgroundColor=none;fontColor=#000000;" parent="ApsFlAxeWI4yGW2BCktG-22" vertex="1">
          <mxGeometry x="35" width="94" height="29" as="geometry">
            <mxRectangle width="94" height="29" as="alternateBounds" />
          </mxGeometry>
        </mxCell>
        <mxCell id="ApsFlAxeWI4yGW2BCktG-24" value="VARCHAR(50)" style="shape=partialRectangle;html=1;whiteSpace=wrap;connectable=0;strokeColor=#EEEEEE;overflow=hidden;fillColor=none;top=0;left=0;bottom=0;right=0;pointerEvents=1;fontSize=12;labelBackgroundColor=none;fontColor=#000000;" parent="ApsFlAxeWI4yGW2BCktG-22" vertex="1">
          <mxGeometry x="129" width="89" height="29" as="geometry">
            <mxRectangle width="89" height="29" as="alternateBounds" />
          </mxGeometry>
        </mxCell>
        <mxCell id="ApsFlAxeWI4yGW2BCktG-115" style="edgeStyle=orthogonalEdgeStyle;rounded=0;orthogonalLoop=1;jettySize=auto;html=1;exitX=1;exitY=0.5;exitDx=0;exitDy=0;entryX=0;entryY=0.5;entryDx=0;entryDy=0;strokeColor=default;endArrow=ERone;endFill=0;startArrow=ERmany;startFill=0;fontColor=#000000;labelBackgroundColor=none;" parent="1" source="FbfgumM9k3iWBc4ifTP3-299" target="FbfgumM9k3iWBc4ifTP3-146" edge="1">
          <mxGeometry relative="1" as="geometry" />
        </mxCell>
        <mxCell id="ApsFlAxeWI4yGW2BCktG-117" value="Заказы в пункте выдачи" style="shape=table;startSize=30;container=1;collapsible=0;childLayout=tableLayout;strokeColor=#000000;fontSize=14;labelBackgroundColor=none;fillColor=#56517E;fontColor=#FFFFFF;" parent="1" vertex="1">
          <mxGeometry x="963" y="828" width="247.8382204423043" height="121.58325195312523" as="geometry" />
        </mxCell>
        <mxCell id="ApsFlAxeWI4yGW2BCktG-118" value="" style="shape=tableRow;horizontal=0;startSize=0;swimlaneHead=0;swimlaneBody=0;strokeColor=#EEEEEE;top=0;left=0;bottom=0;right=0;collapsible=0;dropTarget=0;fillColor=none;points=[[0,0.5],[1,0.5]];portConstraint=eastwest;fontSize=16;labelBackgroundColor=none;fontColor=#000000;" parent="ApsFlAxeWI4yGW2BCktG-117" vertex="1">
          <mxGeometry y="30" width="247.8382204423043" height="30" as="geometry" />
        </mxCell>
        <mxCell id="ApsFlAxeWI4yGW2BCktG-119" value="&lt;font style=&quot;font-size: 12px;&quot;&gt;PK, FK&lt;/font&gt;" style="shape=partialRectangle;html=1;whiteSpace=wrap;connectable=0;strokeColor=#EEEEEE;overflow=hidden;fillColor=none;top=0;left=0;bottom=0;right=0;pointerEvents=1;fontSize=16;labelBackgroundColor=none;fontColor=#000000;" parent="ApsFlAxeWI4yGW2BCktG-118" vertex="1">
          <mxGeometry width="50" height="30" as="geometry">
            <mxRectangle width="50" height="30" as="alternateBounds" />
          </mxGeometry>
        </mxCell>
        <mxCell id="ApsFlAxeWI4yGW2BCktG-120" value="Номер заказа" style="shape=partialRectangle;html=1;whiteSpace=wrap;connectable=0;strokeColor=#EEEEEE;overflow=hidden;fillColor=none;top=0;left=0;bottom=0;right=0;pointerEvents=1;fontSize=12;labelBackgroundColor=none;fontColor=#000000;" parent="ApsFlAxeWI4yGW2BCktG-118" vertex="1">
          <mxGeometry x="50" width="112" height="30" as="geometry">
            <mxRectangle width="112" height="30" as="alternateBounds" />
          </mxGeometry>
        </mxCell>
        <mxCell id="ApsFlAxeWI4yGW2BCktG-121" value="INT" style="shape=partialRectangle;html=1;whiteSpace=wrap;connectable=0;strokeColor=#EEEEEE;overflow=hidden;fillColor=none;top=0;left=0;bottom=0;right=0;pointerEvents=1;fontSize=12;labelBackgroundColor=none;fontColor=#000000;" parent="ApsFlAxeWI4yGW2BCktG-118" vertex="1">
          <mxGeometry x="162" width="86" height="30" as="geometry">
            <mxRectangle width="86" height="30" as="alternateBounds" />
          </mxGeometry>
        </mxCell>
        <mxCell id="ApsFlAxeWI4yGW2BCktG-122" value="" style="shape=tableRow;horizontal=0;startSize=0;swimlaneHead=0;swimlaneBody=0;strokeColor=#EEEEEE;top=0;left=0;bottom=0;right=0;collapsible=0;dropTarget=0;fillColor=none;points=[[0,0.5],[1,0.5]];portConstraint=eastwest;fontSize=16;labelBackgroundColor=none;fontColor=#000000;" parent="ApsFlAxeWI4yGW2BCktG-117" vertex="1">
          <mxGeometry y="60" width="247.8382204423043" height="31" as="geometry" />
        </mxCell>
        <mxCell id="ApsFlAxeWI4yGW2BCktG-123" value="FK" style="shape=partialRectangle;html=1;whiteSpace=wrap;connectable=0;strokeColor=#EEEEEE;overflow=hidden;fillColor=none;top=0;left=0;bottom=0;right=0;pointerEvents=1;fontSize=12;labelBackgroundColor=none;fontColor=#000000;" parent="ApsFlAxeWI4yGW2BCktG-122" vertex="1">
          <mxGeometry width="50" height="31" as="geometry">
            <mxRectangle width="50" height="31" as="alternateBounds" />
          </mxGeometry>
        </mxCell>
        <mxCell id="ApsFlAxeWI4yGW2BCktG-124" value="ID точки" style="shape=partialRectangle;html=1;whiteSpace=wrap;connectable=0;strokeColor=#EEEEEE;overflow=hidden;fillColor=none;top=0;left=0;bottom=0;right=0;pointerEvents=1;fontSize=12;labelBackgroundColor=none;fontColor=#000000;" parent="ApsFlAxeWI4yGW2BCktG-122" vertex="1">
          <mxGeometry x="50" width="112" height="31" as="geometry">
            <mxRectangle width="112" height="31" as="alternateBounds" />
          </mxGeometry>
        </mxCell>
        <mxCell id="ApsFlAxeWI4yGW2BCktG-125" value="INT" style="shape=partialRectangle;html=1;whiteSpace=wrap;connectable=0;strokeColor=#EEEEEE;overflow=hidden;fillColor=none;top=0;left=0;bottom=0;right=0;pointerEvents=1;fontSize=12;labelBackgroundColor=none;fontColor=#000000;" parent="ApsFlAxeWI4yGW2BCktG-122" vertex="1">
          <mxGeometry x="162" width="86" height="31" as="geometry">
            <mxRectangle width="86" height="31" as="alternateBounds" />
          </mxGeometry>
        </mxCell>
        <mxCell id="ApsFlAxeWI4yGW2BCktG-157" style="shape=tableRow;horizontal=0;startSize=0;swimlaneHead=0;swimlaneBody=0;strokeColor=#EEEEEE;top=0;left=0;bottom=0;right=0;collapsible=0;dropTarget=0;fillColor=none;points=[[0,0.5],[1,0.5]];portConstraint=eastwest;fontSize=16;labelBackgroundColor=none;fontColor=#000000;" parent="ApsFlAxeWI4yGW2BCktG-117" vertex="1">
          <mxGeometry y="91" width="247.8382204423043" height="31" as="geometry" />
        </mxCell>
        <mxCell id="ApsFlAxeWI4yGW2BCktG-158" style="shape=partialRectangle;html=1;whiteSpace=wrap;connectable=0;strokeColor=#EEEEEE;overflow=hidden;fillColor=none;top=0;left=0;bottom=0;right=0;pointerEvents=1;fontSize=12;labelBackgroundColor=none;fontColor=#000000;" parent="ApsFlAxeWI4yGW2BCktG-157" vertex="1">
          <mxGeometry width="50" height="31" as="geometry">
            <mxRectangle width="50" height="31" as="alternateBounds" />
          </mxGeometry>
        </mxCell>
        <mxCell id="ApsFlAxeWI4yGW2BCktG-159" value="Срок хранения" style="shape=partialRectangle;html=1;whiteSpace=wrap;connectable=0;strokeColor=#EEEEEE;overflow=hidden;fillColor=none;top=0;left=0;bottom=0;right=0;pointerEvents=1;fontSize=12;labelBackgroundColor=none;fontColor=#000000;" parent="ApsFlAxeWI4yGW2BCktG-157" vertex="1">
          <mxGeometry x="50" width="112" height="31" as="geometry">
            <mxRectangle width="112" height="31" as="alternateBounds" />
          </mxGeometry>
        </mxCell>
        <mxCell id="ApsFlAxeWI4yGW2BCktG-160" value="DATETIME" style="shape=partialRectangle;html=1;whiteSpace=wrap;connectable=0;strokeColor=#EEEEEE;overflow=hidden;fillColor=none;top=0;left=0;bottom=0;right=0;pointerEvents=1;fontSize=12;labelBackgroundColor=none;fontColor=#000000;" parent="ApsFlAxeWI4yGW2BCktG-157" vertex="1">
          <mxGeometry x="162" width="86" height="31" as="geometry">
            <mxRectangle width="86" height="31" as="alternateBounds" />
          </mxGeometry>
        </mxCell>
        <mxCell id="ApsFlAxeWI4yGW2BCktG-155" style="edgeStyle=orthogonalEdgeStyle;rounded=0;orthogonalLoop=1;jettySize=auto;html=1;exitX=0;exitY=0.5;exitDx=0;exitDy=0;strokeColor=#000000;startArrow=ERone;startFill=0;endArrow=ERone;endFill=0;fontColor=#000000;labelBackgroundColor=none;" parent="1" source="FbfgumM9k3iWBc4ifTP3-271" target="ApsFlAxeWI4yGW2BCktG-118" edge="1">
          <mxGeometry relative="1" as="geometry" />
        </mxCell>
        <mxCell id="ApsFlAxeWI4yGW2BCktG-156" style="edgeStyle=orthogonalEdgeStyle;rounded=0;orthogonalLoop=1;jettySize=auto;html=1;exitX=0;exitY=0.5;exitDx=0;exitDy=0;strokeColor=#000000;endArrow=ERoneToMany;endFill=0;startArrow=ERone;startFill=0;fontColor=#000000;labelBackgroundColor=none;" parent="1" source="FbfgumM9k3iWBc4ifTP3-435" target="ApsFlAxeWI4yGW2BCktG-122" edge="1">
          <mxGeometry relative="1" as="geometry">
            <mxPoint x="925" y="894" as="targetPoint" />
          </mxGeometry>
        </mxCell>
        <mxCell id="ApsFlAxeWI4yGW2BCktG-173" style="edgeStyle=orthogonalEdgeStyle;rounded=0;orthogonalLoop=1;jettySize=auto;html=1;exitX=0;exitY=0.5;exitDx=0;exitDy=0;strokeColor=#000000;endArrow=ERone;endFill=0;startArrow=ERoneToMany;startFill=0;fontColor=#000000;labelBackgroundColor=none;" parent="1" source="ApsFlAxeWI4yGW2BCktG-9" target="ApsFlAxeWI4yGW2BCktG-15" edge="1">
          <mxGeometry relative="1" as="geometry" />
        </mxCell>
      </root>
    </mxGraphModel>
  </diagram>
</mxfile>
